G04 EAGLE Gerber RS-274X export*
G75*
%MOMM*%
%FSLAX34Y34*%
%LPD*%
%INTop Copper*%
%IPPOS*%
%AMOC8*
5,1,8,0,0,1.08239X$1,22.5*%
G01*
%ADD10R,1.508000X1.508000*%
%ADD11C,1.508000*%
%ADD12C,2.286000*%
%ADD13C,1.778000*%
%ADD14C,3.556000*%
%ADD15R,1.300000X1.500000*%
%ADD16R,0.800000X0.800000*%
%ADD17R,1.000000X1.100000*%
%ADD18C,1.524000*%
%ADD19R,1.200000X1.500000*%
%ADD20C,0.508000*%
%ADD21C,0.756400*%
%ADD22C,0.406400*%

G36*
X654070Y10037D02*
X654070Y10037D01*
X654089Y10035D01*
X654191Y10057D01*
X654293Y10073D01*
X654310Y10083D01*
X654330Y10087D01*
X654419Y10140D01*
X654510Y10189D01*
X654524Y10203D01*
X654541Y10213D01*
X654608Y10292D01*
X654680Y10367D01*
X654688Y10385D01*
X654701Y10400D01*
X654740Y10496D01*
X654783Y10590D01*
X654785Y10610D01*
X654793Y10628D01*
X654811Y10795D01*
X654811Y208114D01*
X654808Y208134D01*
X654810Y208153D01*
X654788Y208255D01*
X654772Y208357D01*
X654762Y208374D01*
X654758Y208394D01*
X654705Y208483D01*
X654656Y208574D01*
X654642Y208588D01*
X654632Y208605D01*
X654553Y208672D01*
X654478Y208744D01*
X654460Y208752D01*
X654445Y208765D01*
X654349Y208804D01*
X654255Y208847D01*
X654235Y208849D01*
X654217Y208857D01*
X654050Y208875D01*
X650568Y208875D01*
X649675Y209768D01*
X649675Y222032D01*
X650568Y222925D01*
X651882Y222925D01*
X651902Y222928D01*
X651921Y222926D01*
X652023Y222948D01*
X652125Y222964D01*
X652142Y222974D01*
X652162Y222978D01*
X652251Y223031D01*
X652342Y223080D01*
X652356Y223094D01*
X652373Y223104D01*
X652440Y223183D01*
X652512Y223258D01*
X652520Y223276D01*
X652533Y223291D01*
X652572Y223387D01*
X652615Y223481D01*
X652617Y223501D01*
X652625Y223519D01*
X652643Y223686D01*
X652643Y235014D01*
X652640Y235034D01*
X652642Y235053D01*
X652620Y235155D01*
X652604Y235257D01*
X652594Y235274D01*
X652590Y235294D01*
X652537Y235383D01*
X652488Y235474D01*
X652474Y235488D01*
X652464Y235505D01*
X652385Y235572D01*
X652310Y235644D01*
X652292Y235652D01*
X652277Y235665D01*
X652181Y235704D01*
X652087Y235747D01*
X652067Y235749D01*
X652049Y235757D01*
X651882Y235775D01*
X650568Y235775D01*
X649675Y236668D01*
X649675Y245932D01*
X650568Y246825D01*
X654050Y246825D01*
X654070Y246828D01*
X654089Y246826D01*
X654191Y246848D01*
X654293Y246864D01*
X654310Y246874D01*
X654330Y246878D01*
X654419Y246931D01*
X654510Y246980D01*
X654524Y246994D01*
X654541Y247004D01*
X654608Y247083D01*
X654680Y247158D01*
X654688Y247176D01*
X654701Y247191D01*
X654740Y247287D01*
X654783Y247381D01*
X654785Y247401D01*
X654793Y247419D01*
X654811Y247586D01*
X654811Y249682D01*
X654808Y249702D01*
X654810Y249721D01*
X654788Y249823D01*
X654772Y249925D01*
X654762Y249942D01*
X654758Y249962D01*
X654705Y250051D01*
X654656Y250142D01*
X654642Y250156D01*
X654632Y250173D01*
X654553Y250240D01*
X654478Y250312D01*
X654460Y250320D01*
X654445Y250333D01*
X654349Y250372D01*
X654255Y250415D01*
X654235Y250417D01*
X654217Y250425D01*
X654050Y250443D01*
X630439Y250443D01*
X630348Y250429D01*
X630258Y250421D01*
X630228Y250409D01*
X630196Y250404D01*
X630115Y250361D01*
X630031Y250325D01*
X629999Y250299D01*
X629978Y250288D01*
X629956Y250265D01*
X629900Y250220D01*
X619730Y240050D01*
X619677Y239976D01*
X619617Y239906D01*
X619605Y239876D01*
X619586Y239850D01*
X619559Y239763D01*
X619525Y239678D01*
X619521Y239637D01*
X619514Y239615D01*
X619515Y239583D01*
X619507Y239511D01*
X619507Y227475D01*
X619518Y227404D01*
X619520Y227332D01*
X619538Y227283D01*
X619546Y227232D01*
X619580Y227168D01*
X619605Y227101D01*
X619637Y227060D01*
X619662Y227014D01*
X619713Y226965D01*
X619758Y226909D01*
X619802Y226881D01*
X619840Y226845D01*
X619905Y226815D01*
X619965Y226776D01*
X620016Y226763D01*
X620063Y226741D01*
X620134Y226733D01*
X620204Y226716D01*
X620256Y226720D01*
X620307Y226714D01*
X620378Y226730D01*
X620449Y226735D01*
X620497Y226755D01*
X620548Y226767D01*
X620609Y226803D01*
X620675Y226831D01*
X620731Y226876D01*
X620759Y226893D01*
X620774Y226911D01*
X620806Y226936D01*
X621050Y227180D01*
X634452Y240582D01*
X634505Y240656D01*
X634565Y240726D01*
X634577Y240756D01*
X634596Y240782D01*
X634623Y240869D01*
X634657Y240954D01*
X634661Y240995D01*
X634668Y241017D01*
X634667Y241049D01*
X634675Y241121D01*
X634675Y245932D01*
X635568Y246825D01*
X644832Y246825D01*
X645725Y245932D01*
X645725Y236668D01*
X644832Y235775D01*
X640021Y235775D01*
X639930Y235761D01*
X639840Y235753D01*
X639810Y235741D01*
X639778Y235736D01*
X639697Y235693D01*
X639613Y235657D01*
X639581Y235631D01*
X639560Y235620D01*
X639538Y235597D01*
X639482Y235552D01*
X626080Y222150D01*
X626027Y222076D01*
X625967Y222006D01*
X625955Y221976D01*
X625936Y221950D01*
X625909Y221863D01*
X625875Y221778D01*
X625871Y221737D01*
X625864Y221715D01*
X625865Y221683D01*
X625857Y221611D01*
X625857Y158969D01*
X482381Y15493D01*
X334463Y15493D01*
X334373Y15479D01*
X334282Y15471D01*
X334253Y15459D01*
X334221Y15454D01*
X334140Y15411D01*
X334056Y15375D01*
X334024Y15349D01*
X334003Y15338D01*
X333981Y15315D01*
X333925Y15270D01*
X332398Y13743D01*
X328002Y13743D01*
X324893Y16852D01*
X324893Y21248D01*
X328002Y24357D01*
X332398Y24357D01*
X333925Y22830D01*
X333999Y22777D01*
X334069Y22717D01*
X334099Y22705D01*
X334125Y22686D01*
X334212Y22659D01*
X334297Y22625D01*
X334338Y22621D01*
X334360Y22614D01*
X334392Y22615D01*
X334463Y22607D01*
X479119Y22607D01*
X479210Y22621D01*
X479300Y22629D01*
X479330Y22641D01*
X479362Y22646D01*
X479443Y22689D01*
X479527Y22725D01*
X479559Y22751D01*
X479580Y22762D01*
X479602Y22785D01*
X479658Y22830D01*
X618520Y161692D01*
X618573Y161766D01*
X618633Y161836D01*
X618645Y161866D01*
X618664Y161892D01*
X618691Y161979D01*
X618725Y162064D01*
X618729Y162105D01*
X618736Y162127D01*
X618735Y162159D01*
X618743Y162231D01*
X618743Y170620D01*
X618732Y170691D01*
X618730Y170763D01*
X618712Y170812D01*
X618704Y170863D01*
X618670Y170926D01*
X618645Y170994D01*
X618613Y171034D01*
X618588Y171080D01*
X618537Y171130D01*
X618492Y171186D01*
X618448Y171214D01*
X618410Y171250D01*
X618345Y171280D01*
X618285Y171319D01*
X618234Y171331D01*
X618187Y171353D01*
X618116Y171361D01*
X618046Y171379D01*
X617994Y171375D01*
X617943Y171380D01*
X617872Y171365D01*
X617801Y171360D01*
X617753Y171339D01*
X617702Y171328D01*
X617641Y171291D01*
X617575Y171263D01*
X617519Y171218D01*
X617491Y171202D01*
X617476Y171184D01*
X617444Y171158D01*
X617200Y170915D01*
X474479Y28193D01*
X309063Y28193D01*
X308973Y28179D01*
X308882Y28171D01*
X308853Y28159D01*
X308821Y28154D01*
X308740Y28111D01*
X308656Y28075D01*
X308624Y28049D01*
X308603Y28038D01*
X308581Y28015D01*
X308525Y27970D01*
X306998Y26443D01*
X302602Y26443D01*
X299493Y29552D01*
X299493Y33948D01*
X302602Y37057D01*
X306998Y37057D01*
X308525Y35530D01*
X308599Y35477D01*
X308669Y35417D01*
X308699Y35405D01*
X308725Y35386D01*
X308812Y35359D01*
X308897Y35325D01*
X308938Y35321D01*
X308960Y35314D01*
X308992Y35315D01*
X309063Y35307D01*
X471217Y35307D01*
X471307Y35321D01*
X471398Y35329D01*
X471428Y35341D01*
X471460Y35346D01*
X471540Y35389D01*
X471624Y35425D01*
X471656Y35451D01*
X471677Y35462D01*
X471699Y35485D01*
X471755Y35530D01*
X612170Y175945D01*
X612223Y176019D01*
X612283Y176088D01*
X612295Y176118D01*
X612314Y176145D01*
X612341Y176232D01*
X612375Y176316D01*
X612379Y176357D01*
X612386Y176380D01*
X612385Y176412D01*
X612393Y176483D01*
X612393Y184873D01*
X612382Y184943D01*
X612380Y185015D01*
X612362Y185064D01*
X612354Y185116D01*
X612320Y185179D01*
X612295Y185246D01*
X612263Y185287D01*
X612238Y185333D01*
X612187Y185382D01*
X612142Y185438D01*
X612098Y185466D01*
X612060Y185502D01*
X611995Y185533D01*
X611935Y185571D01*
X611884Y185584D01*
X611837Y185606D01*
X611766Y185614D01*
X611696Y185631D01*
X611644Y185627D01*
X611593Y185633D01*
X611522Y185618D01*
X611451Y185612D01*
X611403Y185592D01*
X611352Y185581D01*
X611291Y185544D01*
X611225Y185516D01*
X611169Y185471D01*
X611141Y185455D01*
X611126Y185437D01*
X611094Y185411D01*
X610850Y185168D01*
X466576Y40893D01*
X271577Y40893D01*
X269270Y43200D01*
X257741Y54729D01*
X257662Y54786D01*
X257602Y54837D01*
X257581Y54845D01*
X257552Y54867D01*
X257546Y54869D01*
X257541Y54873D01*
X257430Y54907D01*
X257423Y54909D01*
X257374Y54929D01*
X257356Y54931D01*
X257318Y54943D01*
X257312Y54943D01*
X257306Y54945D01*
X257243Y54944D01*
X257207Y54947D01*
X257191Y54947D01*
X257156Y54942D01*
X257072Y54941D01*
X257065Y54939D01*
X257060Y54939D01*
X257043Y54932D01*
X256970Y54911D01*
X256948Y54908D01*
X256937Y54902D01*
X256911Y54894D01*
X255803Y54435D01*
X252197Y54435D01*
X248865Y55815D01*
X246315Y58365D01*
X244935Y61697D01*
X244935Y65303D01*
X246315Y68635D01*
X248865Y71185D01*
X252197Y72565D01*
X255803Y72565D01*
X259135Y71185D01*
X261685Y68635D01*
X263065Y65303D01*
X263065Y61697D01*
X262606Y60589D01*
X262579Y60475D01*
X262551Y60362D01*
X262551Y60355D01*
X262550Y60349D01*
X262561Y60233D01*
X262570Y60116D01*
X262572Y60111D01*
X262573Y60104D01*
X262621Y59996D01*
X262666Y59890D01*
X262671Y59884D01*
X262673Y59880D01*
X262685Y59866D01*
X262745Y59792D01*
X262749Y59785D01*
X262753Y59782D01*
X262771Y59759D01*
X274300Y48230D01*
X274374Y48177D01*
X274444Y48117D01*
X274474Y48105D01*
X274500Y48086D01*
X274587Y48059D01*
X274672Y48025D01*
X274713Y48021D01*
X274735Y48014D01*
X274767Y48015D01*
X274839Y48007D01*
X463314Y48007D01*
X463404Y48021D01*
X463495Y48029D01*
X463525Y48041D01*
X463557Y48046D01*
X463638Y48089D01*
X463721Y48125D01*
X463754Y48151D01*
X463774Y48162D01*
X463796Y48185D01*
X463852Y48230D01*
X605820Y190198D01*
X605873Y190272D01*
X605933Y190341D01*
X605945Y190371D01*
X605964Y190397D01*
X605991Y190484D01*
X606025Y190569D01*
X606029Y190610D01*
X606036Y190632D01*
X606035Y190665D01*
X606043Y190736D01*
X606043Y249123D01*
X620827Y263907D01*
X654050Y263907D01*
X654070Y263910D01*
X654089Y263908D01*
X654191Y263930D01*
X654293Y263946D01*
X654310Y263956D01*
X654330Y263960D01*
X654419Y264013D01*
X654510Y264062D01*
X654524Y264076D01*
X654541Y264086D01*
X654608Y264165D01*
X654680Y264240D01*
X654688Y264258D01*
X654701Y264273D01*
X654740Y264369D01*
X654783Y264463D01*
X654785Y264483D01*
X654793Y264501D01*
X654811Y264668D01*
X654811Y268605D01*
X654808Y268625D01*
X654810Y268644D01*
X654788Y268746D01*
X654772Y268848D01*
X654762Y268865D01*
X654758Y268885D01*
X654705Y268974D01*
X654656Y269065D01*
X654642Y269079D01*
X654632Y269096D01*
X654553Y269163D01*
X654478Y269235D01*
X654460Y269243D01*
X654445Y269256D01*
X654349Y269295D01*
X654255Y269338D01*
X654235Y269340D01*
X654217Y269348D01*
X654050Y269366D01*
X462020Y269366D01*
X461949Y269355D01*
X461877Y269353D01*
X461829Y269335D01*
X461777Y269327D01*
X461714Y269293D01*
X461646Y269268D01*
X461606Y269236D01*
X461560Y269211D01*
X461510Y269159D01*
X461454Y269115D01*
X461426Y269071D01*
X461390Y269033D01*
X461360Y268968D01*
X461321Y268908D01*
X461309Y268857D01*
X461287Y268810D01*
X461279Y268739D01*
X461261Y268669D01*
X461265Y268617D01*
X461260Y268566D01*
X461275Y268495D01*
X461281Y268424D01*
X461301Y268376D01*
X461312Y268325D01*
X461349Y268264D01*
X461377Y268198D01*
X461422Y268142D01*
X461438Y268114D01*
X461456Y268099D01*
X461482Y268067D01*
X477115Y252434D01*
X477115Y251086D01*
X477118Y251066D01*
X477116Y251047D01*
X477138Y250945D01*
X477154Y250843D01*
X477164Y250826D01*
X477168Y250806D01*
X477221Y250717D01*
X477270Y250626D01*
X477284Y250612D01*
X477294Y250595D01*
X477373Y250528D01*
X477448Y250456D01*
X477466Y250448D01*
X477481Y250435D01*
X477577Y250396D01*
X477671Y250353D01*
X477691Y250351D01*
X477709Y250343D01*
X477876Y250325D01*
X480182Y250325D01*
X481075Y249432D01*
X481075Y233168D01*
X480182Y232275D01*
X477876Y232275D01*
X477856Y232272D01*
X477837Y232274D01*
X477735Y232252D01*
X477633Y232236D01*
X477616Y232226D01*
X477596Y232222D01*
X477507Y232169D01*
X477416Y232120D01*
X477402Y232106D01*
X477385Y232096D01*
X477318Y232017D01*
X477246Y231942D01*
X477238Y231924D01*
X477225Y231909D01*
X477186Y231813D01*
X477143Y231719D01*
X477141Y231699D01*
X477133Y231681D01*
X477115Y231514D01*
X477115Y225686D01*
X477118Y225666D01*
X477116Y225647D01*
X477138Y225545D01*
X477154Y225443D01*
X477164Y225426D01*
X477168Y225406D01*
X477221Y225317D01*
X477270Y225226D01*
X477284Y225212D01*
X477294Y225195D01*
X477373Y225128D01*
X477448Y225056D01*
X477466Y225048D01*
X477481Y225035D01*
X477577Y224996D01*
X477671Y224953D01*
X477691Y224951D01*
X477709Y224943D01*
X477876Y224925D01*
X480182Y224925D01*
X481075Y224032D01*
X481075Y207768D01*
X480182Y206875D01*
X477876Y206875D01*
X477856Y206872D01*
X477837Y206874D01*
X477735Y206852D01*
X477633Y206836D01*
X477616Y206826D01*
X477596Y206822D01*
X477507Y206769D01*
X477416Y206720D01*
X477402Y206706D01*
X477385Y206696D01*
X477318Y206617D01*
X477246Y206542D01*
X477238Y206524D01*
X477225Y206509D01*
X477186Y206413D01*
X477143Y206319D01*
X477141Y206299D01*
X477133Y206281D01*
X477115Y206114D01*
X477115Y187626D01*
X477118Y187606D01*
X477116Y187587D01*
X477138Y187485D01*
X477154Y187383D01*
X477164Y187366D01*
X477168Y187346D01*
X477221Y187257D01*
X477270Y187166D01*
X477284Y187152D01*
X477294Y187135D01*
X477373Y187068D01*
X477448Y186996D01*
X477466Y186988D01*
X477481Y186975D01*
X477577Y186936D01*
X477671Y186893D01*
X477691Y186891D01*
X477709Y186883D01*
X477876Y186865D01*
X478053Y186865D01*
X481385Y185485D01*
X483935Y182935D01*
X485315Y179603D01*
X485315Y175997D01*
X483935Y172665D01*
X481385Y170115D01*
X478053Y168735D01*
X474447Y168735D01*
X471115Y170115D01*
X468565Y172665D01*
X467185Y175997D01*
X467185Y179603D01*
X468565Y182935D01*
X468762Y183132D01*
X468815Y183206D01*
X468875Y183275D01*
X468887Y183305D01*
X468906Y183332D01*
X468933Y183418D01*
X468967Y183503D01*
X468971Y183544D01*
X468978Y183567D01*
X468977Y183599D01*
X468985Y183670D01*
X468985Y206114D01*
X468982Y206134D01*
X468984Y206153D01*
X468962Y206255D01*
X468946Y206357D01*
X468936Y206374D01*
X468932Y206394D01*
X468879Y206483D01*
X468830Y206574D01*
X468816Y206588D01*
X468806Y206605D01*
X468727Y206672D01*
X468652Y206744D01*
X468634Y206752D01*
X468619Y206765D01*
X468523Y206804D01*
X468429Y206847D01*
X468409Y206849D01*
X468391Y206857D01*
X468224Y206875D01*
X465918Y206875D01*
X465025Y207768D01*
X465025Y224032D01*
X465918Y224925D01*
X468224Y224925D01*
X468244Y224928D01*
X468263Y224926D01*
X468365Y224948D01*
X468467Y224964D01*
X468484Y224974D01*
X468504Y224978D01*
X468593Y225031D01*
X468684Y225080D01*
X468698Y225094D01*
X468715Y225104D01*
X468782Y225183D01*
X468854Y225258D01*
X468862Y225276D01*
X468875Y225291D01*
X468914Y225387D01*
X468957Y225481D01*
X468959Y225501D01*
X468967Y225519D01*
X468985Y225686D01*
X468985Y231514D01*
X468982Y231534D01*
X468984Y231553D01*
X468962Y231655D01*
X468946Y231757D01*
X468936Y231774D01*
X468932Y231794D01*
X468879Y231883D01*
X468830Y231974D01*
X468816Y231988D01*
X468806Y232005D01*
X468727Y232072D01*
X468652Y232144D01*
X468634Y232152D01*
X468619Y232165D01*
X468523Y232204D01*
X468429Y232247D01*
X468409Y232249D01*
X468391Y232257D01*
X468224Y232275D01*
X465918Y232275D01*
X465025Y233168D01*
X465025Y249432D01*
X465924Y250330D01*
X465960Y250336D01*
X466032Y250338D01*
X466080Y250356D01*
X466132Y250364D01*
X466195Y250398D01*
X466263Y250423D01*
X466303Y250455D01*
X466349Y250480D01*
X466399Y250532D01*
X466455Y250576D01*
X466483Y250620D01*
X466519Y250658D01*
X466549Y250723D01*
X466588Y250783D01*
X466600Y250834D01*
X466622Y250881D01*
X466630Y250952D01*
X466648Y251022D01*
X466644Y251074D01*
X466649Y251125D01*
X466634Y251196D01*
X466628Y251267D01*
X466608Y251315D01*
X466597Y251366D01*
X466560Y251427D01*
X466532Y251493D01*
X466487Y251549D01*
X466471Y251577D01*
X466453Y251592D01*
X466427Y251624D01*
X455739Y262312D01*
X455665Y262365D01*
X455596Y262425D01*
X455566Y262437D01*
X455540Y262456D01*
X455453Y262483D01*
X455368Y262517D01*
X455327Y262521D01*
X455304Y262528D01*
X455272Y262527D01*
X455201Y262535D01*
X255899Y262535D01*
X255809Y262521D01*
X255718Y262513D01*
X255688Y262501D01*
X255656Y262496D01*
X255576Y262453D01*
X255492Y262417D01*
X255460Y262391D01*
X255439Y262380D01*
X255417Y262357D01*
X255361Y262312D01*
X212181Y219133D01*
X212136Y219070D01*
X212112Y219044D01*
X212102Y219023D01*
X212043Y218944D01*
X212041Y218938D01*
X212038Y218933D01*
X212003Y218821D01*
X211967Y218710D01*
X211967Y218704D01*
X211965Y218698D01*
X211968Y218581D01*
X211969Y218464D01*
X211972Y218457D01*
X211972Y218452D01*
X211978Y218435D01*
X212016Y218303D01*
X212265Y217703D01*
X212265Y214097D01*
X210885Y210765D01*
X208335Y208215D01*
X205003Y206835D01*
X201397Y206835D01*
X198065Y208215D01*
X195515Y210765D01*
X194135Y214097D01*
X194135Y217703D01*
X195515Y221035D01*
X198065Y223585D01*
X201397Y224965D01*
X205003Y224965D01*
X205603Y224716D01*
X205717Y224689D01*
X205830Y224661D01*
X205837Y224661D01*
X205843Y224660D01*
X205959Y224671D01*
X206076Y224680D01*
X206081Y224682D01*
X206088Y224683D01*
X206195Y224731D01*
X206302Y224776D01*
X206308Y224781D01*
X206312Y224783D01*
X206326Y224796D01*
X206433Y224881D01*
X249611Y268059D01*
X249617Y268065D01*
X249660Y268124D01*
X249710Y268177D01*
X249731Y268223D01*
X249761Y268265D01*
X249783Y268334D01*
X249813Y268400D01*
X249819Y268451D01*
X249834Y268500D01*
X249832Y268572D01*
X249840Y268644D01*
X249829Y268694D01*
X249828Y268746D01*
X249803Y268814D01*
X249788Y268885D01*
X249762Y268929D01*
X249744Y268977D01*
X249699Y269034D01*
X249662Y269096D01*
X249623Y269129D01*
X249591Y269169D01*
X249530Y269209D01*
X249475Y269256D01*
X249428Y269275D01*
X249385Y269303D01*
X249314Y269321D01*
X249247Y269348D01*
X249177Y269356D01*
X249146Y269363D01*
X249122Y269362D01*
X249080Y269366D01*
X28964Y269366D01*
X28900Y269356D01*
X28834Y269355D01*
X28754Y269332D01*
X28722Y269327D01*
X28705Y269317D01*
X28673Y269308D01*
X27550Y268843D01*
X22139Y268843D01*
X22122Y268840D01*
X22104Y268842D01*
X21939Y268816D01*
X19719Y268210D01*
X19705Y268203D01*
X19689Y268201D01*
X19536Y268133D01*
X16272Y266227D01*
X16260Y266217D01*
X16246Y266211D01*
X16115Y266105D01*
X13456Y263419D01*
X13447Y263406D01*
X13434Y263397D01*
X13336Y263261D01*
X11462Y259978D01*
X11457Y259964D01*
X11447Y259951D01*
X11387Y259794D01*
X10427Y256139D01*
X10425Y256115D01*
X10403Y255991D01*
X10289Y254103D01*
X10291Y254086D01*
X10288Y254057D01*
X10288Y254030D01*
X10288Y254029D01*
X10288Y254027D01*
X10298Y251925D01*
X10297Y251911D01*
X10289Y251879D01*
X10291Y251861D01*
X10288Y251831D01*
X10288Y148073D01*
X10303Y147977D01*
X10313Y147880D01*
X10323Y147856D01*
X10327Y147830D01*
X10373Y147744D01*
X10413Y147655D01*
X10430Y147636D01*
X10443Y147613D01*
X10513Y147546D01*
X10579Y147474D01*
X10602Y147462D01*
X10621Y147444D01*
X10709Y147403D01*
X10795Y147356D01*
X10820Y147351D01*
X10844Y147340D01*
X10941Y147329D01*
X11037Y147312D01*
X11063Y147316D01*
X11088Y147313D01*
X11184Y147333D01*
X11280Y147348D01*
X11303Y147359D01*
X11329Y147365D01*
X11412Y147415D01*
X11499Y147459D01*
X11518Y147478D01*
X11540Y147491D01*
X11603Y147565D01*
X11671Y147635D01*
X11687Y147663D01*
X11700Y147678D01*
X11712Y147709D01*
X11752Y147782D01*
X12934Y150635D01*
X18365Y156066D01*
X25460Y159005D01*
X26924Y159005D01*
X26944Y159008D01*
X26963Y159006D01*
X27065Y159028D01*
X27167Y159044D01*
X27184Y159054D01*
X27204Y159058D01*
X27293Y159111D01*
X27384Y159160D01*
X27398Y159174D01*
X27415Y159184D01*
X27482Y159263D01*
X27554Y159338D01*
X27562Y159356D01*
X27575Y159371D01*
X27614Y159467D01*
X27657Y159561D01*
X27659Y159581D01*
X27667Y159599D01*
X27685Y159766D01*
X27685Y166214D01*
X27682Y166234D01*
X27684Y166253D01*
X27662Y166355D01*
X27646Y166457D01*
X27636Y166474D01*
X27632Y166494D01*
X27579Y166583D01*
X27530Y166674D01*
X27516Y166688D01*
X27506Y166705D01*
X27427Y166772D01*
X27352Y166844D01*
X27334Y166852D01*
X27319Y166865D01*
X27223Y166904D01*
X27129Y166947D01*
X27109Y166949D01*
X27091Y166957D01*
X26924Y166975D01*
X25118Y166975D01*
X24225Y167868D01*
X24225Y184132D01*
X25118Y185025D01*
X38382Y185025D01*
X39086Y184321D01*
X39144Y184279D01*
X39196Y184229D01*
X39243Y184207D01*
X39285Y184177D01*
X39354Y184156D01*
X39419Y184126D01*
X39471Y184120D01*
X39521Y184105D01*
X39592Y184107D01*
X39663Y184099D01*
X39714Y184110D01*
X39766Y184111D01*
X39834Y184136D01*
X39904Y184151D01*
X39949Y184178D01*
X39997Y184195D01*
X40053Y184240D01*
X40115Y184277D01*
X40149Y184317D01*
X40189Y184349D01*
X40228Y184409D01*
X40275Y184464D01*
X40294Y184512D01*
X40322Y184556D01*
X40340Y184626D01*
X40367Y184692D01*
X40375Y184763D01*
X40383Y184795D01*
X40381Y184818D01*
X40385Y184859D01*
X40385Y190301D01*
X40371Y190391D01*
X40363Y190482D01*
X40351Y190512D01*
X40346Y190544D01*
X40303Y190624D01*
X40267Y190708D01*
X40241Y190740D01*
X40230Y190761D01*
X40207Y190783D01*
X40162Y190839D01*
X35249Y195752D01*
X35175Y195805D01*
X35106Y195865D01*
X35076Y195877D01*
X35050Y195896D01*
X34963Y195923D01*
X34878Y195957D01*
X34837Y195961D01*
X34815Y195968D01*
X34782Y195967D01*
X34711Y195975D01*
X25118Y195975D01*
X24225Y196868D01*
X24225Y213132D01*
X25118Y214025D01*
X34711Y214025D01*
X34801Y214039D01*
X34892Y214047D01*
X34922Y214059D01*
X34954Y214064D01*
X35034Y214107D01*
X35118Y214143D01*
X35150Y214169D01*
X35171Y214180D01*
X35193Y214202D01*
X35195Y214204D01*
X35198Y214207D01*
X35249Y214248D01*
X44712Y223711D01*
X47316Y226315D01*
X122334Y226315D01*
X123767Y224881D01*
X123863Y224813D01*
X123956Y224743D01*
X123962Y224741D01*
X123967Y224738D01*
X124079Y224703D01*
X124190Y224667D01*
X124196Y224667D01*
X124202Y224665D01*
X124319Y224668D01*
X124436Y224669D01*
X124443Y224672D01*
X124448Y224672D01*
X124465Y224678D01*
X124597Y224716D01*
X125197Y224965D01*
X128803Y224965D01*
X132135Y223585D01*
X134685Y221035D01*
X136065Y217703D01*
X136065Y214097D01*
X134685Y210765D01*
X132135Y208215D01*
X128803Y206835D01*
X125197Y206835D01*
X121865Y208215D01*
X119315Y210765D01*
X117935Y214097D01*
X117935Y217424D01*
X117932Y217444D01*
X117934Y217463D01*
X117912Y217565D01*
X117896Y217667D01*
X117886Y217684D01*
X117882Y217704D01*
X117829Y217793D01*
X117780Y217884D01*
X117766Y217898D01*
X117756Y217915D01*
X117677Y217982D01*
X117602Y218054D01*
X117584Y218062D01*
X117569Y218075D01*
X117473Y218114D01*
X117379Y218157D01*
X117359Y218159D01*
X117341Y218167D01*
X117174Y218185D01*
X50999Y218185D01*
X50909Y218171D01*
X50818Y218163D01*
X50788Y218151D01*
X50756Y218146D01*
X50676Y218103D01*
X50592Y218067D01*
X50560Y218041D01*
X50539Y218030D01*
X50517Y218007D01*
X50461Y217962D01*
X39498Y206999D01*
X39445Y206925D01*
X39385Y206856D01*
X39373Y206826D01*
X39354Y206800D01*
X39327Y206713D01*
X39293Y206628D01*
X39289Y206587D01*
X39282Y206565D01*
X39283Y206532D01*
X39275Y206461D01*
X39275Y203539D01*
X39289Y203449D01*
X39297Y203358D01*
X39309Y203328D01*
X39314Y203296D01*
X39357Y203216D01*
X39393Y203132D01*
X39419Y203100D01*
X39430Y203079D01*
X39453Y203057D01*
X39498Y203001D01*
X45911Y196588D01*
X48515Y193984D01*
X48515Y173449D01*
X48529Y173359D01*
X48537Y173268D01*
X48549Y173238D01*
X48554Y173206D01*
X48597Y173126D01*
X48633Y173042D01*
X48659Y173010D01*
X48670Y172989D01*
X48693Y172967D01*
X48738Y172911D01*
X59881Y161768D01*
X59955Y161715D01*
X60024Y161655D01*
X60054Y161643D01*
X60080Y161624D01*
X60167Y161597D01*
X60252Y161563D01*
X60293Y161559D01*
X60316Y161552D01*
X60348Y161553D01*
X60419Y161545D01*
X79289Y161545D01*
X82650Y160153D01*
X85223Y157580D01*
X86615Y154219D01*
X86615Y150581D01*
X85223Y147220D01*
X82650Y144647D01*
X79289Y143255D01*
X60411Y143255D01*
X57050Y144647D01*
X54477Y147220D01*
X53085Y150581D01*
X53085Y154219D01*
X53725Y155762D01*
X53751Y155876D01*
X53780Y155990D01*
X53779Y155996D01*
X53781Y156002D01*
X53770Y156119D01*
X53761Y156235D01*
X53758Y156240D01*
X53758Y156247D01*
X53710Y156354D01*
X53664Y156461D01*
X53660Y156467D01*
X53658Y156472D01*
X53645Y156485D01*
X53560Y156592D01*
X40574Y169577D01*
X40516Y169619D01*
X40464Y169669D01*
X40417Y169691D01*
X40375Y169721D01*
X40306Y169742D01*
X40241Y169772D01*
X40189Y169778D01*
X40139Y169793D01*
X40068Y169791D01*
X39997Y169799D01*
X39946Y169788D01*
X39894Y169787D01*
X39826Y169762D01*
X39756Y169747D01*
X39712Y169720D01*
X39663Y169702D01*
X39607Y169658D01*
X39545Y169621D01*
X39511Y169581D01*
X39471Y169549D01*
X39432Y169488D01*
X39385Y169434D01*
X39366Y169386D01*
X39338Y169342D01*
X39320Y169272D01*
X39293Y169206D01*
X39285Y169134D01*
X39277Y169103D01*
X39279Y169080D01*
X39275Y169039D01*
X39275Y167868D01*
X38382Y166975D01*
X36576Y166975D01*
X36556Y166972D01*
X36537Y166974D01*
X36435Y166952D01*
X36333Y166936D01*
X36316Y166926D01*
X36296Y166922D01*
X36207Y166869D01*
X36116Y166820D01*
X36102Y166806D01*
X36085Y166796D01*
X36018Y166717D01*
X35946Y166642D01*
X35938Y166624D01*
X35925Y166609D01*
X35886Y166513D01*
X35843Y166419D01*
X35841Y166399D01*
X35833Y166381D01*
X35815Y166214D01*
X35815Y158405D01*
X35834Y158291D01*
X35851Y158175D01*
X35853Y158169D01*
X35854Y158163D01*
X35909Y158060D01*
X35962Y157955D01*
X35967Y157951D01*
X35970Y157945D01*
X36054Y157865D01*
X36138Y157783D01*
X36144Y157779D01*
X36148Y157776D01*
X36165Y157768D01*
X36285Y157702D01*
X40235Y156066D01*
X45666Y150635D01*
X48605Y143540D01*
X48605Y135860D01*
X45666Y128765D01*
X40235Y123334D01*
X33140Y120395D01*
X25460Y120395D01*
X18365Y123334D01*
X12934Y128765D01*
X11752Y131618D01*
X11701Y131701D01*
X11655Y131787D01*
X11637Y131805D01*
X11623Y131827D01*
X11547Y131890D01*
X11477Y131956D01*
X11453Y131967D01*
X11433Y131984D01*
X11342Y132019D01*
X11254Y132060D01*
X11228Y132063D01*
X11204Y132072D01*
X11106Y132076D01*
X11010Y132087D01*
X10984Y132082D01*
X10958Y132083D01*
X10864Y132056D01*
X10769Y132035D01*
X10747Y132022D01*
X10722Y132014D01*
X10642Y131959D01*
X10558Y131909D01*
X10541Y131889D01*
X10520Y131874D01*
X10461Y131796D01*
X10398Y131722D01*
X10388Y131698D01*
X10373Y131677D01*
X10343Y131584D01*
X10306Y131494D01*
X10303Y131461D01*
X10297Y131443D01*
X10297Y131410D01*
X10288Y131327D01*
X10288Y28964D01*
X10298Y28900D01*
X10299Y28834D01*
X10322Y28754D01*
X10327Y28722D01*
X10337Y28705D01*
X10346Y28673D01*
X10811Y27550D01*
X10811Y21898D01*
X10813Y21885D01*
X10811Y21871D01*
X10836Y21705D01*
X11387Y19606D01*
X11393Y19591D01*
X11396Y19576D01*
X11462Y19422D01*
X13336Y16139D01*
X13346Y16127D01*
X13352Y16112D01*
X13456Y15981D01*
X16115Y13295D01*
X16128Y13286D01*
X16138Y13273D01*
X16272Y13173D01*
X19536Y11267D01*
X19551Y11261D01*
X19563Y11252D01*
X19719Y11190D01*
X21939Y10584D01*
X21956Y10582D01*
X21972Y10575D01*
X22139Y10557D01*
X27550Y10557D01*
X28673Y10092D01*
X28737Y10077D01*
X28798Y10052D01*
X28881Y10043D01*
X28913Y10036D01*
X28932Y10037D01*
X28964Y10034D01*
X654050Y10034D01*
X654070Y10037D01*
G37*
%LPC*%
G36*
X353797Y54435D02*
X353797Y54435D01*
X350465Y55815D01*
X347915Y58365D01*
X346535Y61697D01*
X346535Y65303D01*
X347915Y68635D01*
X350465Y71185D01*
X353797Y72565D01*
X357403Y72565D01*
X358511Y72106D01*
X358625Y72079D01*
X358738Y72051D01*
X358745Y72051D01*
X358751Y72050D01*
X358867Y72061D01*
X358984Y72070D01*
X358989Y72072D01*
X358996Y72073D01*
X359103Y72121D01*
X359210Y72166D01*
X359216Y72171D01*
X359220Y72173D01*
X359234Y72185D01*
X359341Y72271D01*
X379527Y92457D01*
X445409Y92457D01*
X445506Y92472D01*
X445603Y92482D01*
X445626Y92492D01*
X445652Y92496D01*
X445738Y92542D01*
X445827Y92582D01*
X445847Y92599D01*
X445870Y92612D01*
X445937Y92682D01*
X446008Y92748D01*
X446021Y92771D01*
X446039Y92790D01*
X446080Y92878D01*
X446127Y92964D01*
X446132Y92989D01*
X446143Y93013D01*
X446153Y93110D01*
X446171Y93206D01*
X446167Y93232D01*
X446170Y93257D01*
X446149Y93353D01*
X446135Y93449D01*
X446123Y93472D01*
X446117Y93498D01*
X446067Y93581D01*
X446023Y93668D01*
X446005Y93687D01*
X445991Y93709D01*
X445917Y93772D01*
X445848Y93841D01*
X445819Y93856D01*
X445804Y93869D01*
X445774Y93881D01*
X445720Y93911D01*
X443165Y96465D01*
X442706Y97573D01*
X442645Y97673D01*
X442585Y97773D01*
X442580Y97777D01*
X442577Y97782D01*
X442487Y97857D01*
X442398Y97933D01*
X442392Y97935D01*
X442387Y97939D01*
X442279Y97981D01*
X442170Y98025D01*
X442162Y98026D01*
X442158Y98027D01*
X442139Y98028D01*
X442003Y98043D01*
X417627Y98043D01*
X413006Y102664D01*
X412948Y102706D01*
X412896Y102755D01*
X412849Y102777D01*
X412807Y102807D01*
X412738Y102828D01*
X412673Y102859D01*
X412621Y102864D01*
X412571Y102880D01*
X412500Y102878D01*
X412429Y102886D01*
X412378Y102875D01*
X412326Y102873D01*
X412258Y102849D01*
X412188Y102833D01*
X412143Y102807D01*
X412095Y102789D01*
X412039Y102744D01*
X411977Y102707D01*
X411943Y102668D01*
X411903Y102635D01*
X411864Y102575D01*
X411817Y102520D01*
X411798Y102472D01*
X411770Y102428D01*
X411752Y102359D01*
X411725Y102292D01*
X411717Y102221D01*
X411709Y102190D01*
X411711Y102166D01*
X411707Y102125D01*
X411707Y99402D01*
X408598Y96293D01*
X404202Y96293D01*
X402675Y97820D01*
X402601Y97873D01*
X402531Y97933D01*
X402501Y97945D01*
X402475Y97964D01*
X402388Y97991D01*
X402303Y98025D01*
X402262Y98029D01*
X402240Y98036D01*
X402208Y98035D01*
X402137Y98043D01*
X366827Y98043D01*
X364520Y100350D01*
X278150Y186720D01*
X275843Y189027D01*
X275843Y207053D01*
X275824Y207168D01*
X275807Y207284D01*
X275805Y207290D01*
X275804Y207296D01*
X275749Y207398D01*
X275696Y207503D01*
X275691Y207508D01*
X275688Y207513D01*
X275604Y207593D01*
X275520Y207675D01*
X275514Y207679D01*
X275510Y207682D01*
X275493Y207690D01*
X275373Y207756D01*
X274265Y208215D01*
X271715Y210765D01*
X270335Y214097D01*
X270335Y217703D01*
X271715Y221035D01*
X274265Y223585D01*
X277597Y224965D01*
X281203Y224965D01*
X284535Y223585D01*
X287085Y221035D01*
X288465Y217703D01*
X288465Y214097D01*
X287085Y210765D01*
X284535Y208215D01*
X283427Y207756D01*
X283327Y207695D01*
X283227Y207635D01*
X283223Y207630D01*
X283218Y207627D01*
X283143Y207537D01*
X283067Y207448D01*
X283065Y207442D01*
X283061Y207437D01*
X283019Y207329D01*
X282975Y207220D01*
X282974Y207212D01*
X282973Y207208D01*
X282972Y207189D01*
X282957Y207053D01*
X282957Y192289D01*
X282971Y192198D01*
X282979Y192108D01*
X282991Y192078D01*
X282996Y192046D01*
X283039Y191965D01*
X283075Y191881D01*
X283101Y191849D01*
X283112Y191828D01*
X283135Y191806D01*
X283180Y191750D01*
X369550Y105380D01*
X369624Y105327D01*
X369694Y105267D01*
X369724Y105255D01*
X369750Y105236D01*
X369837Y105209D01*
X369922Y105175D01*
X369963Y105171D01*
X369985Y105164D01*
X370017Y105165D01*
X370089Y105157D01*
X402137Y105157D01*
X402227Y105171D01*
X402318Y105179D01*
X402347Y105191D01*
X402379Y105196D01*
X402460Y105239D01*
X402544Y105275D01*
X402576Y105301D01*
X402597Y105312D01*
X402619Y105335D01*
X402675Y105380D01*
X404202Y106907D01*
X406925Y106907D01*
X406996Y106918D01*
X407068Y106920D01*
X407117Y106938D01*
X407168Y106946D01*
X407232Y106980D01*
X407299Y107005D01*
X407340Y107037D01*
X407386Y107062D01*
X407435Y107114D01*
X407491Y107158D01*
X407519Y107202D01*
X407555Y107240D01*
X407585Y107305D01*
X407624Y107365D01*
X407637Y107416D01*
X407659Y107463D01*
X407667Y107534D01*
X407684Y107604D01*
X407680Y107656D01*
X407686Y107707D01*
X407670Y107778D01*
X407665Y107849D01*
X407645Y107897D01*
X407633Y107948D01*
X407597Y108009D01*
X407569Y108075D01*
X407524Y108131D01*
X407507Y108159D01*
X407489Y108174D01*
X407464Y108206D01*
X354350Y161320D01*
X352043Y163627D01*
X352043Y207053D01*
X352024Y207168D01*
X352007Y207284D01*
X352005Y207290D01*
X352004Y207296D01*
X351949Y207398D01*
X351896Y207503D01*
X351891Y207508D01*
X351888Y207513D01*
X351804Y207593D01*
X351720Y207675D01*
X351714Y207679D01*
X351710Y207683D01*
X351693Y207690D01*
X351573Y207756D01*
X350465Y208215D01*
X347915Y210765D01*
X346535Y214097D01*
X346535Y217703D01*
X347915Y221035D01*
X350473Y223592D01*
X350534Y223630D01*
X350620Y223676D01*
X350638Y223694D01*
X350660Y223708D01*
X350722Y223783D01*
X350789Y223854D01*
X350800Y223878D01*
X350817Y223898D01*
X350851Y223989D01*
X350893Y224077D01*
X350895Y224103D01*
X350905Y224127D01*
X350909Y224225D01*
X350920Y224321D01*
X350914Y224347D01*
X350915Y224373D01*
X350888Y224466D01*
X350867Y224562D01*
X350854Y224584D01*
X350847Y224609D01*
X350791Y224689D01*
X350741Y224773D01*
X350721Y224790D01*
X350707Y224811D01*
X350629Y224869D01*
X350554Y224933D01*
X350530Y224943D01*
X350509Y224958D01*
X350417Y224988D01*
X350326Y225025D01*
X350294Y225028D01*
X350275Y225034D01*
X350242Y225034D01*
X350159Y225043D01*
X344689Y225043D01*
X344598Y225029D01*
X344508Y225021D01*
X344478Y225009D01*
X344446Y225004D01*
X344365Y224961D01*
X344281Y224925D01*
X344249Y224899D01*
X344228Y224888D01*
X344206Y224865D01*
X344150Y224820D01*
X338971Y219641D01*
X338903Y219546D01*
X338833Y219452D01*
X338831Y219446D01*
X338827Y219441D01*
X338793Y219330D01*
X338757Y219218D01*
X338757Y219212D01*
X338755Y219206D01*
X338758Y219089D01*
X338759Y218972D01*
X338761Y218965D01*
X338761Y218960D01*
X338768Y218943D01*
X338806Y218811D01*
X339265Y217703D01*
X339265Y214097D01*
X337885Y210765D01*
X335335Y208215D01*
X332003Y206835D01*
X328397Y206835D01*
X325065Y208215D01*
X322515Y210765D01*
X321135Y214097D01*
X321135Y217703D01*
X322515Y221035D01*
X325065Y223585D01*
X328397Y224965D01*
X332003Y224965D01*
X333111Y224506D01*
X333225Y224479D01*
X333338Y224451D01*
X333345Y224451D01*
X333351Y224450D01*
X333467Y224461D01*
X333584Y224470D01*
X333589Y224472D01*
X333596Y224473D01*
X333703Y224521D01*
X333810Y224566D01*
X333816Y224571D01*
X333820Y224573D01*
X333834Y224585D01*
X333941Y224671D01*
X341427Y232157D01*
X414223Y232157D01*
X422657Y223723D01*
X422657Y160539D01*
X422671Y160448D01*
X422679Y160358D01*
X422691Y160328D01*
X422696Y160296D01*
X422739Y160215D01*
X422775Y160131D01*
X422801Y160099D01*
X422812Y160078D01*
X422835Y160056D01*
X422880Y160000D01*
X447109Y135771D01*
X447203Y135703D01*
X447298Y135633D01*
X447304Y135631D01*
X447309Y135627D01*
X447420Y135593D01*
X447532Y135557D01*
X447538Y135557D01*
X447544Y135555D01*
X447661Y135558D01*
X447778Y135559D01*
X447785Y135561D01*
X447790Y135561D01*
X447807Y135568D01*
X447939Y135606D01*
X449047Y136065D01*
X452653Y136065D01*
X454499Y135300D01*
X454593Y135278D01*
X454686Y135249D01*
X454713Y135250D01*
X454738Y135244D01*
X454835Y135253D01*
X454932Y135256D01*
X454957Y135265D01*
X454983Y135267D01*
X455072Y135307D01*
X455163Y135340D01*
X455184Y135357D01*
X455208Y135367D01*
X455279Y135433D01*
X455355Y135494D01*
X455369Y135516D01*
X455389Y135534D01*
X455436Y135619D01*
X455488Y135701D01*
X455495Y135726D01*
X455507Y135749D01*
X455525Y135845D01*
X455548Y135939D01*
X455546Y135965D01*
X455551Y135991D01*
X455537Y136088D01*
X455529Y136185D01*
X455519Y136209D01*
X455515Y136235D01*
X455471Y136322D01*
X455433Y136411D01*
X455413Y136436D01*
X455404Y136454D01*
X455380Y136477D01*
X455328Y136542D01*
X448280Y143590D01*
X448227Y143629D01*
X448180Y143675D01*
X448107Y143715D01*
X448080Y143734D01*
X448061Y143740D01*
X448033Y143755D01*
X445715Y144715D01*
X443165Y147265D01*
X441785Y150597D01*
X441785Y154203D01*
X443165Y157535D01*
X445723Y160092D01*
X445784Y160130D01*
X445870Y160176D01*
X445888Y160194D01*
X445910Y160208D01*
X445972Y160283D01*
X446039Y160354D01*
X446050Y160378D01*
X446067Y160398D01*
X446101Y160489D01*
X446143Y160577D01*
X446145Y160603D01*
X446155Y160627D01*
X446159Y160725D01*
X446170Y160821D01*
X446164Y160847D01*
X446165Y160873D01*
X446138Y160966D01*
X446117Y161062D01*
X446104Y161084D01*
X446097Y161109D01*
X446041Y161189D01*
X445991Y161273D01*
X445971Y161290D01*
X445957Y161311D01*
X445879Y161369D01*
X445804Y161433D01*
X445780Y161443D01*
X445759Y161458D01*
X445667Y161488D01*
X445576Y161525D01*
X445544Y161528D01*
X445525Y161534D01*
X445492Y161534D01*
X445409Y161543D01*
X436677Y161543D01*
X428243Y169977D01*
X428243Y220461D01*
X428229Y220552D01*
X428221Y220642D01*
X428209Y220672D01*
X428204Y220704D01*
X428161Y220785D01*
X428125Y220869D01*
X428099Y220901D01*
X428088Y220922D01*
X428065Y220944D01*
X428020Y221000D01*
X411500Y237520D01*
X411426Y237573D01*
X411356Y237633D01*
X411326Y237645D01*
X411300Y237664D01*
X411213Y237691D01*
X411128Y237725D01*
X411087Y237729D01*
X411065Y237736D01*
X411033Y237735D01*
X410961Y237743D01*
X385263Y237743D01*
X385173Y237729D01*
X385082Y237721D01*
X385053Y237709D01*
X385021Y237704D01*
X384940Y237661D01*
X384856Y237625D01*
X384824Y237599D01*
X384803Y237588D01*
X384781Y237565D01*
X384725Y237520D01*
X383198Y235993D01*
X378802Y235993D01*
X375693Y239102D01*
X375693Y243498D01*
X378802Y246607D01*
X383198Y246607D01*
X384725Y245080D01*
X384799Y245027D01*
X384869Y244967D01*
X384899Y244955D01*
X384925Y244936D01*
X385012Y244909D01*
X385097Y244875D01*
X385138Y244871D01*
X385160Y244864D01*
X385192Y244865D01*
X385263Y244857D01*
X414223Y244857D01*
X435357Y223723D01*
X435357Y173239D01*
X435371Y173148D01*
X435379Y173058D01*
X435391Y173028D01*
X435396Y172996D01*
X435439Y172915D01*
X435475Y172831D01*
X435501Y172799D01*
X435512Y172778D01*
X435535Y172756D01*
X435580Y172700D01*
X439400Y168880D01*
X439474Y168827D01*
X439544Y168767D01*
X439574Y168755D01*
X439600Y168736D01*
X439687Y168709D01*
X439772Y168675D01*
X439813Y168671D01*
X439835Y168664D01*
X439867Y168665D01*
X439939Y168657D01*
X440117Y168657D01*
X440233Y168676D01*
X440352Y168694D01*
X440356Y168696D01*
X440360Y168696D01*
X440464Y168752D01*
X440571Y168807D01*
X440574Y168810D01*
X440577Y168812D01*
X440659Y168898D01*
X440742Y168983D01*
X440744Y168987D01*
X440747Y168990D01*
X440797Y169098D01*
X440848Y169205D01*
X440849Y169209D01*
X440850Y169213D01*
X440863Y169331D01*
X440878Y169449D01*
X440877Y169454D01*
X440877Y169457D01*
X440874Y169471D01*
X440852Y169615D01*
X440769Y169926D01*
X440769Y176277D01*
X450088Y176277D01*
X450108Y176280D01*
X450127Y176278D01*
X450229Y176300D01*
X450331Y176317D01*
X450348Y176326D01*
X450368Y176330D01*
X450457Y176383D01*
X450548Y176432D01*
X450562Y176446D01*
X450579Y176456D01*
X450646Y176535D01*
X450717Y176610D01*
X450726Y176628D01*
X450739Y176643D01*
X450777Y176739D01*
X450821Y176833D01*
X450823Y176853D01*
X450831Y176871D01*
X450849Y177038D01*
X450849Y177801D01*
X450851Y177801D01*
X450851Y177038D01*
X450854Y177018D01*
X450852Y176999D01*
X450874Y176897D01*
X450891Y176795D01*
X450900Y176778D01*
X450904Y176758D01*
X450957Y176669D01*
X451006Y176578D01*
X451020Y176564D01*
X451030Y176547D01*
X451109Y176480D01*
X451184Y176409D01*
X451202Y176400D01*
X451217Y176387D01*
X451313Y176348D01*
X451407Y176305D01*
X451427Y176303D01*
X451445Y176295D01*
X451612Y176277D01*
X460931Y176277D01*
X460931Y169926D01*
X460758Y169279D01*
X460423Y168700D01*
X460065Y168342D01*
X460053Y168326D01*
X460038Y168313D01*
X459982Y168226D01*
X459921Y168142D01*
X459915Y168123D01*
X459905Y168106D01*
X459879Y168006D01*
X459849Y167907D01*
X459849Y167887D01*
X459845Y167868D01*
X459853Y167765D01*
X459855Y167661D01*
X459862Y167642D01*
X459864Y167622D01*
X459904Y167527D01*
X459940Y167430D01*
X459952Y167414D01*
X459960Y167396D01*
X460065Y167265D01*
X460980Y166350D01*
X467107Y160223D01*
X467107Y157841D01*
X467122Y157744D01*
X467132Y157647D01*
X467142Y157624D01*
X467146Y157598D01*
X467192Y157512D01*
X467232Y157423D01*
X467249Y157403D01*
X467262Y157380D01*
X467332Y157313D01*
X467398Y157242D01*
X467421Y157229D01*
X467440Y157211D01*
X467528Y157170D01*
X467614Y157123D01*
X467639Y157118D01*
X467663Y157107D01*
X467760Y157097D01*
X467856Y157079D01*
X467882Y157083D01*
X467907Y157080D01*
X468003Y157101D01*
X468099Y157115D01*
X468122Y157127D01*
X468148Y157133D01*
X468231Y157183D01*
X468318Y157227D01*
X468337Y157245D01*
X468359Y157259D01*
X468422Y157333D01*
X468491Y157402D01*
X468506Y157431D01*
X468519Y157446D01*
X468531Y157476D01*
X468561Y157530D01*
X471115Y160085D01*
X474447Y161465D01*
X478053Y161465D01*
X481385Y160085D01*
X483935Y157535D01*
X485315Y154203D01*
X485315Y150597D01*
X484856Y149489D01*
X484829Y149375D01*
X484801Y149262D01*
X484801Y149255D01*
X484800Y149249D01*
X484811Y149133D01*
X484820Y149016D01*
X484822Y149011D01*
X484823Y149004D01*
X484871Y148897D01*
X484916Y148790D01*
X484921Y148784D01*
X484923Y148780D01*
X484935Y148766D01*
X485021Y148659D01*
X496550Y137130D01*
X498857Y134823D01*
X498857Y93777D01*
X484073Y78993D01*
X401839Y78993D01*
X401748Y78979D01*
X401658Y78971D01*
X401628Y78959D01*
X401596Y78954D01*
X401515Y78911D01*
X401431Y78875D01*
X401399Y78849D01*
X401378Y78838D01*
X401356Y78815D01*
X401300Y78770D01*
X389771Y67241D01*
X389703Y67146D01*
X389633Y67052D01*
X389631Y67046D01*
X389627Y67041D01*
X389593Y66930D01*
X389557Y66818D01*
X389557Y66812D01*
X389555Y66806D01*
X389558Y66689D01*
X389559Y66572D01*
X389561Y66565D01*
X389561Y66560D01*
X389568Y66543D01*
X389606Y66411D01*
X390065Y65303D01*
X390065Y61697D01*
X388685Y58365D01*
X386135Y55815D01*
X382803Y54435D01*
X379197Y54435D01*
X375865Y55815D01*
X373315Y58365D01*
X371935Y61697D01*
X371935Y65303D01*
X373315Y68635D01*
X375865Y71185D01*
X379197Y72565D01*
X382803Y72565D01*
X383911Y72106D01*
X384025Y72079D01*
X384138Y72051D01*
X384145Y72051D01*
X384151Y72050D01*
X384267Y72061D01*
X384384Y72070D01*
X384389Y72072D01*
X384396Y72073D01*
X384503Y72121D01*
X384610Y72166D01*
X384616Y72171D01*
X384620Y72173D01*
X384634Y72185D01*
X384741Y72271D01*
X396270Y83800D01*
X396514Y84044D01*
X396556Y84102D01*
X396605Y84154D01*
X396627Y84201D01*
X396657Y84243D01*
X396678Y84312D01*
X396709Y84377D01*
X396714Y84429D01*
X396730Y84479D01*
X396728Y84550D01*
X396736Y84621D01*
X396725Y84672D01*
X396723Y84724D01*
X396699Y84792D01*
X396683Y84862D01*
X396657Y84907D01*
X396639Y84955D01*
X396594Y85011D01*
X396557Y85073D01*
X396518Y85107D01*
X396485Y85147D01*
X396425Y85186D01*
X396370Y85233D01*
X396322Y85252D01*
X396278Y85280D01*
X396209Y85298D01*
X396142Y85325D01*
X396071Y85333D01*
X396040Y85341D01*
X396016Y85339D01*
X395975Y85343D01*
X382789Y85343D01*
X382698Y85329D01*
X382608Y85321D01*
X382578Y85309D01*
X382546Y85304D01*
X382465Y85261D01*
X382381Y85225D01*
X382349Y85199D01*
X382328Y85188D01*
X382306Y85165D01*
X382250Y85120D01*
X364371Y67241D01*
X364303Y67147D01*
X364233Y67052D01*
X364231Y67046D01*
X364227Y67041D01*
X364193Y66930D01*
X364157Y66818D01*
X364157Y66812D01*
X364155Y66806D01*
X364158Y66689D01*
X364159Y66572D01*
X364161Y66565D01*
X364161Y66560D01*
X364168Y66543D01*
X364206Y66411D01*
X364665Y65303D01*
X364665Y61697D01*
X363285Y58365D01*
X360735Y55815D01*
X357403Y54435D01*
X353797Y54435D01*
G37*
%LPD*%
G36*
X442118Y105176D02*
X442118Y105176D01*
X442234Y105193D01*
X442240Y105195D01*
X442246Y105196D01*
X442348Y105251D01*
X442453Y105304D01*
X442458Y105309D01*
X442463Y105312D01*
X442543Y105396D01*
X442625Y105480D01*
X442629Y105486D01*
X442633Y105490D01*
X442640Y105507D01*
X442706Y105627D01*
X443165Y106735D01*
X445715Y109285D01*
X449047Y110665D01*
X452653Y110665D01*
X455985Y109285D01*
X458542Y106727D01*
X458580Y106666D01*
X458626Y106580D01*
X458644Y106562D01*
X458658Y106540D01*
X458733Y106478D01*
X458804Y106411D01*
X458828Y106400D01*
X458848Y106383D01*
X458939Y106349D01*
X459027Y106307D01*
X459053Y106305D01*
X459077Y106295D01*
X459175Y106291D01*
X459271Y106280D01*
X459297Y106286D01*
X459323Y106285D01*
X459416Y106312D01*
X459512Y106333D01*
X459534Y106346D01*
X459559Y106353D01*
X459639Y106409D01*
X459723Y106459D01*
X459740Y106479D01*
X459761Y106493D01*
X459819Y106571D01*
X459883Y106646D01*
X459893Y106670D01*
X459908Y106691D01*
X459938Y106783D01*
X459975Y106874D01*
X459978Y106906D01*
X459984Y106925D01*
X459984Y106958D01*
X459993Y107041D01*
X459993Y121559D01*
X459978Y121656D01*
X459968Y121753D01*
X459958Y121776D01*
X459954Y121802D01*
X459908Y121888D01*
X459868Y121977D01*
X459851Y121997D01*
X459838Y122020D01*
X459768Y122087D01*
X459702Y122158D01*
X459679Y122171D01*
X459660Y122189D01*
X459572Y122230D01*
X459486Y122277D01*
X459461Y122282D01*
X459437Y122293D01*
X459340Y122303D01*
X459244Y122321D01*
X459218Y122317D01*
X459193Y122320D01*
X459097Y122299D01*
X459001Y122285D01*
X458978Y122273D01*
X458952Y122267D01*
X458869Y122217D01*
X458782Y122173D01*
X458763Y122155D01*
X458741Y122141D01*
X458678Y122067D01*
X458609Y121998D01*
X458594Y121969D01*
X458581Y121954D01*
X458569Y121924D01*
X458539Y121870D01*
X455985Y119315D01*
X452653Y117935D01*
X449047Y117935D01*
X445715Y119315D01*
X443165Y121865D01*
X441785Y125197D01*
X441785Y128803D01*
X442244Y129911D01*
X442271Y130025D01*
X442299Y130138D01*
X442299Y130145D01*
X442300Y130151D01*
X442289Y130267D01*
X442280Y130384D01*
X442278Y130389D01*
X442277Y130396D01*
X442229Y130503D01*
X442184Y130610D01*
X442179Y130616D01*
X442177Y130620D01*
X442165Y130634D01*
X442079Y130741D01*
X417850Y154970D01*
X415543Y157277D01*
X415543Y159659D01*
X415528Y159755D01*
X415518Y159853D01*
X415508Y159876D01*
X415504Y159902D01*
X415458Y159988D01*
X415418Y160077D01*
X415401Y160097D01*
X415388Y160120D01*
X415318Y160187D01*
X415252Y160258D01*
X415229Y160271D01*
X415210Y160289D01*
X415122Y160330D01*
X415036Y160377D01*
X415011Y160382D01*
X414987Y160393D01*
X414890Y160403D01*
X414794Y160421D01*
X414768Y160417D01*
X414743Y160420D01*
X414647Y160399D01*
X414551Y160385D01*
X414528Y160373D01*
X414502Y160367D01*
X414419Y160317D01*
X414332Y160273D01*
X414313Y160255D01*
X414291Y160241D01*
X414228Y160167D01*
X414160Y160098D01*
X414144Y160069D01*
X414131Y160054D01*
X414119Y160024D01*
X414089Y159970D01*
X411535Y157415D01*
X408203Y156035D01*
X404597Y156035D01*
X401265Y157415D01*
X398715Y159965D01*
X397335Y163297D01*
X397335Y166903D01*
X398715Y170235D01*
X401265Y172785D01*
X404597Y174165D01*
X408203Y174165D01*
X411535Y172785D01*
X414093Y170227D01*
X414130Y170166D01*
X414176Y170080D01*
X414194Y170062D01*
X414208Y170040D01*
X414283Y169978D01*
X414354Y169911D01*
X414378Y169900D01*
X414398Y169883D01*
X414489Y169848D01*
X414577Y169807D01*
X414603Y169805D01*
X414627Y169795D01*
X414725Y169791D01*
X414821Y169780D01*
X414847Y169786D01*
X414873Y169785D01*
X414967Y169812D01*
X415062Y169833D01*
X415084Y169846D01*
X415109Y169853D01*
X415189Y169909D01*
X415273Y169959D01*
X415290Y169979D01*
X415311Y169993D01*
X415370Y170072D01*
X415433Y170146D01*
X415443Y170170D01*
X415458Y170191D01*
X415488Y170283D01*
X415525Y170374D01*
X415528Y170406D01*
X415534Y170425D01*
X415534Y170458D01*
X415543Y170541D01*
X415543Y185059D01*
X415528Y185155D01*
X415518Y185253D01*
X415508Y185276D01*
X415504Y185302D01*
X415458Y185388D01*
X415418Y185477D01*
X415401Y185497D01*
X415388Y185520D01*
X415318Y185587D01*
X415252Y185658D01*
X415229Y185671D01*
X415210Y185689D01*
X415122Y185730D01*
X415036Y185777D01*
X415011Y185782D01*
X414987Y185793D01*
X414890Y185803D01*
X414794Y185821D01*
X414768Y185817D01*
X414743Y185820D01*
X414647Y185799D01*
X414551Y185785D01*
X414528Y185773D01*
X414502Y185767D01*
X414419Y185717D01*
X414332Y185673D01*
X414313Y185655D01*
X414291Y185641D01*
X414228Y185567D01*
X414160Y185498D01*
X414144Y185469D01*
X414131Y185454D01*
X414119Y185424D01*
X414089Y185370D01*
X411535Y182815D01*
X408203Y181435D01*
X404597Y181435D01*
X401265Y182815D01*
X398715Y185365D01*
X397335Y188697D01*
X397335Y192303D01*
X398715Y195635D01*
X401265Y198185D01*
X404597Y199565D01*
X408203Y199565D01*
X411535Y198185D01*
X414093Y195627D01*
X414130Y195566D01*
X414176Y195480D01*
X414194Y195462D01*
X414208Y195440D01*
X414283Y195378D01*
X414354Y195311D01*
X414378Y195300D01*
X414398Y195283D01*
X414489Y195248D01*
X414577Y195207D01*
X414603Y195205D01*
X414627Y195195D01*
X414725Y195191D01*
X414821Y195180D01*
X414847Y195186D01*
X414873Y195185D01*
X414967Y195212D01*
X415062Y195233D01*
X415084Y195246D01*
X415109Y195253D01*
X415189Y195309D01*
X415273Y195359D01*
X415290Y195379D01*
X415311Y195393D01*
X415370Y195472D01*
X415433Y195546D01*
X415443Y195570D01*
X415458Y195591D01*
X415488Y195683D01*
X415525Y195774D01*
X415528Y195806D01*
X415534Y195825D01*
X415534Y195858D01*
X415543Y195941D01*
X415543Y210459D01*
X415528Y210556D01*
X415518Y210653D01*
X415508Y210676D01*
X415504Y210702D01*
X415458Y210788D01*
X415418Y210877D01*
X415401Y210897D01*
X415388Y210920D01*
X415318Y210987D01*
X415252Y211058D01*
X415229Y211071D01*
X415210Y211089D01*
X415122Y211130D01*
X415036Y211177D01*
X415011Y211182D01*
X414987Y211193D01*
X414890Y211203D01*
X414794Y211221D01*
X414768Y211217D01*
X414743Y211220D01*
X414647Y211199D01*
X414551Y211185D01*
X414528Y211173D01*
X414502Y211167D01*
X414419Y211117D01*
X414332Y211073D01*
X414313Y211055D01*
X414291Y211041D01*
X414228Y210967D01*
X414159Y210898D01*
X414144Y210869D01*
X414131Y210854D01*
X414119Y210824D01*
X414089Y210770D01*
X411535Y208215D01*
X408203Y206835D01*
X404597Y206835D01*
X401265Y208215D01*
X398715Y210765D01*
X397335Y214097D01*
X397335Y217703D01*
X398715Y221035D01*
X401273Y223592D01*
X401334Y223630D01*
X401420Y223676D01*
X401438Y223694D01*
X401460Y223708D01*
X401522Y223783D01*
X401589Y223854D01*
X401600Y223878D01*
X401617Y223898D01*
X401651Y223989D01*
X401693Y224077D01*
X401695Y224103D01*
X401705Y224127D01*
X401709Y224225D01*
X401720Y224321D01*
X401714Y224347D01*
X401715Y224373D01*
X401688Y224466D01*
X401667Y224562D01*
X401654Y224584D01*
X401647Y224609D01*
X401591Y224689D01*
X401541Y224773D01*
X401521Y224790D01*
X401507Y224811D01*
X401429Y224869D01*
X401354Y224933D01*
X401330Y224943D01*
X401309Y224958D01*
X401217Y224988D01*
X401126Y225025D01*
X401094Y225028D01*
X401075Y225034D01*
X401042Y225034D01*
X400959Y225043D01*
X386441Y225043D01*
X386344Y225028D01*
X386247Y225018D01*
X386224Y225008D01*
X386198Y225004D01*
X386112Y224958D01*
X386023Y224918D01*
X386003Y224901D01*
X385980Y224888D01*
X385913Y224818D01*
X385842Y224752D01*
X385829Y224729D01*
X385811Y224710D01*
X385770Y224622D01*
X385723Y224536D01*
X385718Y224511D01*
X385707Y224487D01*
X385697Y224390D01*
X385679Y224294D01*
X385683Y224268D01*
X385680Y224243D01*
X385701Y224147D01*
X385715Y224051D01*
X385727Y224028D01*
X385733Y224002D01*
X385783Y223919D01*
X385827Y223832D01*
X385845Y223813D01*
X385859Y223791D01*
X385933Y223728D01*
X386002Y223659D01*
X386031Y223644D01*
X386046Y223631D01*
X386076Y223619D01*
X386130Y223589D01*
X388685Y221035D01*
X390065Y217703D01*
X390065Y214097D01*
X388685Y210765D01*
X386135Y208215D01*
X382803Y206835D01*
X379197Y206835D01*
X375865Y208215D01*
X373315Y210765D01*
X371935Y214097D01*
X371935Y217703D01*
X373315Y221035D01*
X375873Y223592D01*
X375934Y223630D01*
X376020Y223676D01*
X376038Y223694D01*
X376060Y223708D01*
X376122Y223783D01*
X376189Y223854D01*
X376200Y223878D01*
X376217Y223898D01*
X376251Y223989D01*
X376293Y224077D01*
X376295Y224103D01*
X376305Y224127D01*
X376309Y224225D01*
X376320Y224321D01*
X376314Y224347D01*
X376315Y224373D01*
X376288Y224466D01*
X376267Y224562D01*
X376254Y224584D01*
X376247Y224609D01*
X376191Y224689D01*
X376141Y224773D01*
X376121Y224790D01*
X376107Y224811D01*
X376029Y224869D01*
X375954Y224933D01*
X375930Y224943D01*
X375909Y224958D01*
X375817Y224988D01*
X375726Y225025D01*
X375694Y225028D01*
X375675Y225034D01*
X375642Y225034D01*
X375559Y225043D01*
X361041Y225043D01*
X360944Y225028D01*
X360847Y225018D01*
X360824Y225008D01*
X360798Y225004D01*
X360712Y224958D01*
X360623Y224918D01*
X360603Y224901D01*
X360580Y224888D01*
X360513Y224818D01*
X360442Y224752D01*
X360429Y224729D01*
X360411Y224710D01*
X360370Y224622D01*
X360323Y224536D01*
X360318Y224511D01*
X360307Y224487D01*
X360297Y224390D01*
X360279Y224294D01*
X360283Y224268D01*
X360280Y224243D01*
X360301Y224147D01*
X360315Y224051D01*
X360327Y224028D01*
X360333Y224002D01*
X360383Y223919D01*
X360427Y223832D01*
X360445Y223813D01*
X360459Y223791D01*
X360533Y223728D01*
X360602Y223659D01*
X360631Y223644D01*
X360646Y223631D01*
X360676Y223619D01*
X360730Y223589D01*
X363285Y221035D01*
X364665Y217703D01*
X364665Y214097D01*
X363285Y210765D01*
X360735Y208215D01*
X359627Y207756D01*
X359527Y207694D01*
X359427Y207635D01*
X359423Y207630D01*
X359418Y207627D01*
X359343Y207537D01*
X359267Y207448D01*
X359265Y207442D01*
X359261Y207437D01*
X359219Y207329D01*
X359175Y207220D01*
X359174Y207212D01*
X359173Y207208D01*
X359172Y207189D01*
X359157Y207053D01*
X359157Y166889D01*
X359171Y166798D01*
X359179Y166708D01*
X359191Y166678D01*
X359196Y166646D01*
X359239Y166565D01*
X359275Y166481D01*
X359301Y166449D01*
X359312Y166428D01*
X359335Y166406D01*
X359380Y166350D01*
X420350Y105380D01*
X420424Y105327D01*
X420494Y105267D01*
X420524Y105255D01*
X420550Y105236D01*
X420637Y105209D01*
X420722Y105175D01*
X420763Y105171D01*
X420785Y105164D01*
X420817Y105165D01*
X420889Y105157D01*
X442003Y105157D01*
X442118Y105176D01*
G37*
%LPC*%
G36*
X277597Y54435D02*
X277597Y54435D01*
X274265Y55815D01*
X271715Y58365D01*
X270335Y61697D01*
X270335Y65303D01*
X271715Y68635D01*
X274265Y71185D01*
X275373Y71644D01*
X275473Y71705D01*
X275573Y71765D01*
X275577Y71770D01*
X275582Y71773D01*
X275657Y71863D01*
X275733Y71952D01*
X275735Y71958D01*
X275739Y71963D01*
X275781Y72071D01*
X275825Y72180D01*
X275826Y72188D01*
X275827Y72192D01*
X275828Y72211D01*
X275843Y72347D01*
X275843Y169661D01*
X275829Y169752D01*
X275821Y169842D01*
X275809Y169872D01*
X275804Y169904D01*
X275761Y169985D01*
X275725Y170069D01*
X275699Y170101D01*
X275688Y170122D01*
X275665Y170144D01*
X275620Y170200D01*
X250842Y194978D01*
X250763Y195035D01*
X250688Y195097D01*
X250663Y195106D01*
X250642Y195122D01*
X250549Y195150D01*
X250458Y195185D01*
X250432Y195186D01*
X250407Y195194D01*
X250310Y195191D01*
X250212Y195196D01*
X250187Y195188D01*
X250161Y195188D01*
X250070Y195154D01*
X249976Y195127D01*
X249955Y195112D01*
X249930Y195103D01*
X249854Y195042D01*
X249774Y194987D01*
X249759Y194966D01*
X249738Y194949D01*
X249685Y194867D01*
X249627Y194789D01*
X249619Y194765D01*
X249605Y194743D01*
X249581Y194648D01*
X249551Y194556D01*
X249551Y194529D01*
X249545Y194504D01*
X249553Y194407D01*
X249554Y194310D01*
X249563Y194278D01*
X249564Y194259D01*
X249577Y194229D01*
X249600Y194149D01*
X250365Y192303D01*
X250365Y188697D01*
X248985Y185365D01*
X246435Y182815D01*
X243103Y181435D01*
X239497Y181435D01*
X236165Y182815D01*
X233615Y185365D01*
X232235Y188697D01*
X232235Y192303D01*
X233615Y195635D01*
X236165Y198185D01*
X239497Y199565D01*
X243103Y199565D01*
X244949Y198800D01*
X245043Y198778D01*
X245136Y198749D01*
X245163Y198750D01*
X245188Y198744D01*
X245285Y198753D01*
X245382Y198756D01*
X245407Y198765D01*
X245433Y198767D01*
X245522Y198807D01*
X245613Y198840D01*
X245634Y198857D01*
X245658Y198867D01*
X245729Y198933D01*
X245805Y198994D01*
X245819Y199016D01*
X245839Y199034D01*
X245886Y199119D01*
X245938Y199201D01*
X245945Y199226D01*
X245957Y199249D01*
X245975Y199345D01*
X245998Y199439D01*
X245996Y199465D01*
X246001Y199491D01*
X245987Y199588D01*
X245979Y199685D01*
X245969Y199709D01*
X245965Y199735D01*
X245921Y199822D01*
X245883Y199911D01*
X245863Y199936D01*
X245854Y199954D01*
X245830Y199977D01*
X245778Y200042D01*
X237743Y208077D01*
X237743Y210459D01*
X237728Y210555D01*
X237718Y210653D01*
X237708Y210676D01*
X237704Y210702D01*
X237658Y210788D01*
X237618Y210877D01*
X237601Y210897D01*
X237588Y210920D01*
X237518Y210987D01*
X237452Y211058D01*
X237429Y211071D01*
X237410Y211089D01*
X237322Y211130D01*
X237236Y211177D01*
X237211Y211182D01*
X237187Y211193D01*
X237090Y211203D01*
X236994Y211221D01*
X236968Y211217D01*
X236943Y211220D01*
X236847Y211199D01*
X236751Y211185D01*
X236728Y211173D01*
X236702Y211167D01*
X236619Y211117D01*
X236532Y211073D01*
X236513Y211055D01*
X236491Y211041D01*
X236428Y210967D01*
X236360Y210898D01*
X236344Y210869D01*
X236331Y210854D01*
X236319Y210824D01*
X236289Y210770D01*
X233735Y208215D01*
X230403Y206835D01*
X226797Y206835D01*
X223465Y208215D01*
X220915Y210765D01*
X219535Y214097D01*
X219535Y217703D01*
X220915Y221035D01*
X223465Y223585D01*
X226797Y224965D01*
X230403Y224965D01*
X233735Y223585D01*
X236293Y221027D01*
X236330Y220966D01*
X236376Y220880D01*
X236394Y220862D01*
X236408Y220840D01*
X236483Y220778D01*
X236554Y220711D01*
X236578Y220700D01*
X236598Y220683D01*
X236689Y220648D01*
X236777Y220607D01*
X236803Y220605D01*
X236827Y220595D01*
X236925Y220591D01*
X237021Y220580D01*
X237047Y220586D01*
X237073Y220585D01*
X237167Y220612D01*
X237262Y220633D01*
X237284Y220646D01*
X237309Y220653D01*
X237389Y220709D01*
X237473Y220759D01*
X237490Y220779D01*
X237511Y220793D01*
X237570Y220872D01*
X237633Y220946D01*
X237643Y220970D01*
X237658Y220991D01*
X237688Y221083D01*
X237725Y221174D01*
X237728Y221206D01*
X237734Y221225D01*
X237734Y221258D01*
X237743Y221341D01*
X237743Y236423D01*
X258877Y257557D01*
X427537Y257557D01*
X427627Y257571D01*
X427718Y257579D01*
X427747Y257591D01*
X427779Y257596D01*
X427860Y257639D01*
X427944Y257675D01*
X427976Y257701D01*
X427997Y257712D01*
X428019Y257735D01*
X428075Y257780D01*
X429602Y259307D01*
X433998Y259307D01*
X437107Y256198D01*
X437107Y251802D01*
X433998Y248693D01*
X429602Y248693D01*
X428075Y250220D01*
X428001Y250273D01*
X427931Y250333D01*
X427901Y250345D01*
X427875Y250364D01*
X427788Y250391D01*
X427703Y250425D01*
X427662Y250429D01*
X427640Y250436D01*
X427608Y250435D01*
X427537Y250443D01*
X262139Y250443D01*
X262048Y250429D01*
X261958Y250421D01*
X261928Y250409D01*
X261896Y250404D01*
X261815Y250361D01*
X261731Y250325D01*
X261699Y250299D01*
X261678Y250288D01*
X261656Y250265D01*
X261600Y250220D01*
X245080Y233700D01*
X245027Y233626D01*
X244967Y233556D01*
X244955Y233526D01*
X244936Y233500D01*
X244909Y233413D01*
X244875Y233328D01*
X244871Y233287D01*
X244864Y233265D01*
X244865Y233233D01*
X244857Y233161D01*
X244857Y221341D01*
X244872Y221244D01*
X244882Y221147D01*
X244892Y221124D01*
X244896Y221098D01*
X244942Y221012D01*
X244982Y220923D01*
X244999Y220903D01*
X245012Y220880D01*
X245082Y220813D01*
X245148Y220742D01*
X245171Y220729D01*
X245190Y220711D01*
X245278Y220670D01*
X245364Y220623D01*
X245389Y220618D01*
X245413Y220607D01*
X245510Y220597D01*
X245606Y220579D01*
X245632Y220583D01*
X245657Y220580D01*
X245753Y220601D01*
X245849Y220615D01*
X245872Y220627D01*
X245898Y220633D01*
X245981Y220683D01*
X246068Y220727D01*
X246087Y220745D01*
X246109Y220759D01*
X246172Y220833D01*
X246240Y220902D01*
X246256Y220931D01*
X246269Y220946D01*
X246281Y220976D01*
X246311Y221030D01*
X248865Y223585D01*
X252197Y224965D01*
X255803Y224965D01*
X259135Y223585D01*
X261685Y221035D01*
X263065Y217703D01*
X263065Y214097D01*
X261685Y210765D01*
X259135Y208215D01*
X255803Y206835D01*
X252197Y206835D01*
X250351Y207600D01*
X250257Y207622D01*
X250164Y207651D01*
X250137Y207650D01*
X250112Y207656D01*
X250015Y207647D01*
X249918Y207644D01*
X249893Y207635D01*
X249867Y207633D01*
X249778Y207593D01*
X249687Y207560D01*
X249666Y207543D01*
X249642Y207533D01*
X249571Y207467D01*
X249495Y207406D01*
X249481Y207384D01*
X249461Y207366D01*
X249414Y207281D01*
X249362Y207199D01*
X249355Y207174D01*
X249343Y207151D01*
X249325Y207055D01*
X249302Y206961D01*
X249304Y206935D01*
X249299Y206909D01*
X249313Y206812D01*
X249321Y206715D01*
X249331Y206691D01*
X249335Y206665D01*
X249379Y206578D01*
X249417Y206489D01*
X249437Y206464D01*
X249446Y206446D01*
X249470Y206423D01*
X249522Y206358D01*
X282957Y172923D01*
X282957Y72347D01*
X282976Y72232D01*
X282993Y72116D01*
X282995Y72110D01*
X282996Y72104D01*
X283051Y72002D01*
X283104Y71897D01*
X283109Y71892D01*
X283112Y71887D01*
X283196Y71807D01*
X283280Y71725D01*
X283286Y71721D01*
X283290Y71718D01*
X283307Y71710D01*
X283427Y71644D01*
X284535Y71185D01*
X287085Y68635D01*
X288465Y65303D01*
X288465Y61697D01*
X287085Y58365D01*
X284535Y55815D01*
X281203Y54435D01*
X277597Y54435D01*
G37*
%LPD*%
%LPC*%
G36*
X372452Y108993D02*
X372452Y108993D01*
X369343Y112102D01*
X369343Y114261D01*
X369329Y114352D01*
X369321Y114442D01*
X369309Y114472D01*
X369304Y114504D01*
X369261Y114585D01*
X369225Y114669D01*
X369199Y114701D01*
X369188Y114722D01*
X369165Y114744D01*
X369120Y114800D01*
X301243Y182677D01*
X301243Y207053D01*
X301224Y207168D01*
X301207Y207284D01*
X301205Y207290D01*
X301204Y207296D01*
X301149Y207398D01*
X301096Y207503D01*
X301091Y207508D01*
X301088Y207513D01*
X301004Y207593D01*
X300920Y207675D01*
X300914Y207679D01*
X300910Y207683D01*
X300893Y207690D01*
X300773Y207756D01*
X299665Y208215D01*
X297115Y210765D01*
X295735Y214097D01*
X295735Y217703D01*
X297115Y221035D01*
X299665Y223585D01*
X302997Y224965D01*
X306603Y224965D01*
X309935Y223585D01*
X312485Y221035D01*
X313865Y217703D01*
X313865Y214097D01*
X312485Y210765D01*
X309935Y208215D01*
X308827Y207756D01*
X308727Y207694D01*
X308627Y207635D01*
X308623Y207630D01*
X308618Y207627D01*
X308543Y207537D01*
X308467Y207448D01*
X308465Y207442D01*
X308461Y207437D01*
X308419Y207329D01*
X308375Y207220D01*
X308374Y207212D01*
X308373Y207208D01*
X308372Y207189D01*
X308357Y207053D01*
X308357Y185939D01*
X308371Y185848D01*
X308379Y185758D01*
X308391Y185728D01*
X308396Y185696D01*
X308439Y185615D01*
X308475Y185531D01*
X308501Y185499D01*
X308512Y185478D01*
X308535Y185456D01*
X308580Y185400D01*
X374150Y119830D01*
X374224Y119777D01*
X374294Y119717D01*
X374324Y119705D01*
X374350Y119686D01*
X374437Y119659D01*
X374522Y119625D01*
X374563Y119621D01*
X374585Y119614D01*
X374617Y119615D01*
X374689Y119607D01*
X376848Y119607D01*
X379957Y116498D01*
X379957Y112102D01*
X376848Y108993D01*
X372452Y108993D01*
G37*
%LPD*%
%LPC*%
G36*
X60411Y67055D02*
X60411Y67055D01*
X57050Y68447D01*
X54477Y71020D01*
X53085Y74381D01*
X53085Y78019D01*
X54477Y81380D01*
X57050Y83953D01*
X60411Y85345D01*
X79289Y85345D01*
X82650Y83953D01*
X85223Y81380D01*
X85700Y80227D01*
X85762Y80127D01*
X85822Y80027D01*
X85827Y80023D01*
X85830Y80018D01*
X85920Y79943D01*
X86009Y79867D01*
X86015Y79865D01*
X86019Y79861D01*
X86128Y79819D01*
X86237Y79775D01*
X86244Y79774D01*
X86249Y79773D01*
X86267Y79772D01*
X86404Y79757D01*
X92753Y79757D01*
X92868Y79776D01*
X92984Y79793D01*
X92990Y79795D01*
X92996Y79796D01*
X93098Y79851D01*
X93203Y79904D01*
X93208Y79909D01*
X93213Y79912D01*
X93293Y79996D01*
X93375Y80080D01*
X93379Y80086D01*
X93383Y80090D01*
X93390Y80107D01*
X93456Y80227D01*
X93915Y81335D01*
X96465Y83885D01*
X99797Y85265D01*
X103403Y85265D01*
X106735Y83885D01*
X109285Y81335D01*
X110665Y78003D01*
X110665Y74397D01*
X109285Y71065D01*
X106735Y68515D01*
X103403Y67135D01*
X99797Y67135D01*
X96465Y68515D01*
X93915Y71065D01*
X93456Y72173D01*
X93395Y72273D01*
X93335Y72373D01*
X93330Y72377D01*
X93327Y72382D01*
X93237Y72457D01*
X93148Y72533D01*
X93142Y72535D01*
X93137Y72539D01*
X93029Y72581D01*
X92920Y72625D01*
X92912Y72626D01*
X92908Y72627D01*
X92889Y72628D01*
X92753Y72643D01*
X86404Y72643D01*
X86289Y72624D01*
X86173Y72607D01*
X86167Y72605D01*
X86161Y72604D01*
X86058Y72549D01*
X85953Y72496D01*
X85949Y72491D01*
X85943Y72488D01*
X85864Y72404D01*
X85781Y72320D01*
X85778Y72314D01*
X85774Y72310D01*
X85766Y72293D01*
X85700Y72173D01*
X85223Y71020D01*
X82650Y68447D01*
X79289Y67055D01*
X60411Y67055D01*
G37*
%LPD*%
%LPC*%
G36*
X60411Y92455D02*
X60411Y92455D01*
X57050Y93847D01*
X54477Y96420D01*
X53085Y99781D01*
X53085Y103419D01*
X54477Y106780D01*
X57050Y109353D01*
X60411Y110745D01*
X79289Y110745D01*
X82650Y109353D01*
X85223Y106780D01*
X85700Y105627D01*
X85762Y105527D01*
X85822Y105427D01*
X85827Y105423D01*
X85830Y105418D01*
X85920Y105343D01*
X86009Y105267D01*
X86015Y105265D01*
X86019Y105261D01*
X86128Y105219D01*
X86237Y105175D01*
X86244Y105174D01*
X86249Y105173D01*
X86267Y105172D01*
X86404Y105157D01*
X92753Y105157D01*
X92868Y105176D01*
X92984Y105193D01*
X92990Y105195D01*
X92996Y105196D01*
X93098Y105251D01*
X93203Y105304D01*
X93208Y105309D01*
X93213Y105312D01*
X93293Y105396D01*
X93375Y105480D01*
X93379Y105486D01*
X93383Y105490D01*
X93390Y105507D01*
X93456Y105627D01*
X93915Y106735D01*
X96465Y109285D01*
X99797Y110665D01*
X103403Y110665D01*
X106735Y109285D01*
X109285Y106735D01*
X110665Y103403D01*
X110665Y99797D01*
X109285Y96465D01*
X106735Y93915D01*
X103403Y92535D01*
X99797Y92535D01*
X96465Y93915D01*
X93915Y96465D01*
X93456Y97573D01*
X93395Y97673D01*
X93335Y97773D01*
X93330Y97777D01*
X93327Y97782D01*
X93237Y97857D01*
X93148Y97933D01*
X93142Y97935D01*
X93137Y97939D01*
X93029Y97981D01*
X92920Y98025D01*
X92912Y98026D01*
X92908Y98027D01*
X92889Y98028D01*
X92753Y98043D01*
X86404Y98043D01*
X86289Y98024D01*
X86173Y98007D01*
X86167Y98005D01*
X86161Y98004D01*
X86058Y97949D01*
X85953Y97896D01*
X85949Y97891D01*
X85943Y97888D01*
X85864Y97804D01*
X85781Y97720D01*
X85778Y97714D01*
X85774Y97710D01*
X85766Y97693D01*
X85700Y97573D01*
X85223Y96420D01*
X82650Y93847D01*
X79289Y92455D01*
X60411Y92455D01*
G37*
%LPD*%
%LPC*%
G36*
X60411Y117855D02*
X60411Y117855D01*
X57050Y119247D01*
X54477Y121820D01*
X53085Y125181D01*
X53085Y128819D01*
X54477Y132180D01*
X57050Y134753D01*
X60411Y136145D01*
X79289Y136145D01*
X82650Y134753D01*
X85223Y132180D01*
X85700Y131027D01*
X85762Y130927D01*
X85822Y130827D01*
X85827Y130823D01*
X85830Y130818D01*
X85920Y130743D01*
X86009Y130667D01*
X86015Y130665D01*
X86019Y130661D01*
X86128Y130619D01*
X86237Y130575D01*
X86244Y130574D01*
X86249Y130573D01*
X86267Y130572D01*
X86404Y130557D01*
X92753Y130557D01*
X92868Y130576D01*
X92984Y130593D01*
X92990Y130595D01*
X92996Y130596D01*
X93098Y130651D01*
X93203Y130704D01*
X93208Y130709D01*
X93213Y130712D01*
X93293Y130796D01*
X93375Y130880D01*
X93379Y130886D01*
X93383Y130890D01*
X93390Y130907D01*
X93456Y131027D01*
X93915Y132135D01*
X96465Y134685D01*
X99797Y136065D01*
X103403Y136065D01*
X106735Y134685D01*
X109285Y132135D01*
X110665Y128803D01*
X110665Y125197D01*
X109285Y121865D01*
X106735Y119315D01*
X103403Y117935D01*
X99797Y117935D01*
X96465Y119315D01*
X93915Y121865D01*
X93456Y122973D01*
X93395Y123073D01*
X93335Y123173D01*
X93330Y123177D01*
X93327Y123182D01*
X93237Y123257D01*
X93148Y123333D01*
X93142Y123335D01*
X93137Y123339D01*
X93029Y123381D01*
X92920Y123425D01*
X92912Y123426D01*
X92908Y123427D01*
X92889Y123428D01*
X92753Y123443D01*
X86404Y123443D01*
X86289Y123424D01*
X86173Y123407D01*
X86167Y123405D01*
X86161Y123404D01*
X86058Y123349D01*
X85953Y123296D01*
X85949Y123291D01*
X85943Y123288D01*
X85864Y123204D01*
X85781Y123120D01*
X85778Y123114D01*
X85774Y123110D01*
X85766Y123093D01*
X85700Y122973D01*
X85223Y121820D01*
X82650Y119247D01*
X79289Y117855D01*
X60411Y117855D01*
G37*
%LPD*%
%LPC*%
G36*
X60411Y168655D02*
X60411Y168655D01*
X57050Y170047D01*
X54477Y172620D01*
X53085Y175981D01*
X53085Y179619D01*
X54477Y182980D01*
X57050Y185553D01*
X60411Y186945D01*
X79289Y186945D01*
X82650Y185553D01*
X85223Y182980D01*
X85700Y181827D01*
X85762Y181727D01*
X85822Y181627D01*
X85827Y181623D01*
X85830Y181618D01*
X85920Y181543D01*
X86009Y181467D01*
X86015Y181465D01*
X86019Y181461D01*
X86128Y181419D01*
X86237Y181375D01*
X86244Y181374D01*
X86249Y181373D01*
X86267Y181372D01*
X86404Y181357D01*
X92753Y181357D01*
X92868Y181376D01*
X92984Y181393D01*
X92990Y181395D01*
X92996Y181396D01*
X93098Y181451D01*
X93203Y181504D01*
X93208Y181509D01*
X93213Y181512D01*
X93293Y181596D01*
X93375Y181680D01*
X93379Y181686D01*
X93383Y181690D01*
X93390Y181707D01*
X93456Y181827D01*
X93915Y182935D01*
X96465Y185485D01*
X99797Y186865D01*
X103403Y186865D01*
X106735Y185485D01*
X109285Y182935D01*
X110665Y179603D01*
X110665Y175997D01*
X109285Y172665D01*
X106735Y170115D01*
X103403Y168735D01*
X99797Y168735D01*
X96465Y170115D01*
X93915Y172665D01*
X93456Y173773D01*
X93395Y173873D01*
X93335Y173973D01*
X93330Y173977D01*
X93327Y173982D01*
X93237Y174057D01*
X93148Y174133D01*
X93142Y174135D01*
X93137Y174139D01*
X93029Y174181D01*
X92920Y174225D01*
X92912Y174226D01*
X92908Y174227D01*
X92889Y174228D01*
X92753Y174243D01*
X86404Y174243D01*
X86289Y174224D01*
X86173Y174207D01*
X86167Y174205D01*
X86161Y174204D01*
X86058Y174149D01*
X85953Y174096D01*
X85949Y174091D01*
X85943Y174088D01*
X85864Y174004D01*
X85781Y173920D01*
X85778Y173914D01*
X85774Y173910D01*
X85766Y173893D01*
X85700Y173773D01*
X85223Y172620D01*
X82650Y170047D01*
X79289Y168655D01*
X60411Y168655D01*
G37*
%LPD*%
%LPC*%
G36*
X60411Y194055D02*
X60411Y194055D01*
X57050Y195447D01*
X54477Y198020D01*
X53085Y201381D01*
X53085Y205019D01*
X54477Y208380D01*
X57050Y210953D01*
X60411Y212345D01*
X79289Y212345D01*
X82650Y210953D01*
X85223Y208380D01*
X85700Y207227D01*
X85762Y207127D01*
X85822Y207027D01*
X85827Y207023D01*
X85830Y207018D01*
X85920Y206943D01*
X86009Y206867D01*
X86015Y206865D01*
X86019Y206861D01*
X86128Y206819D01*
X86237Y206775D01*
X86244Y206774D01*
X86249Y206773D01*
X86267Y206772D01*
X86404Y206757D01*
X92753Y206757D01*
X92868Y206776D01*
X92984Y206793D01*
X92990Y206795D01*
X92996Y206796D01*
X93098Y206851D01*
X93203Y206904D01*
X93208Y206909D01*
X93213Y206912D01*
X93293Y206996D01*
X93375Y207080D01*
X93379Y207086D01*
X93383Y207090D01*
X93390Y207107D01*
X93456Y207227D01*
X93915Y208335D01*
X96465Y210885D01*
X99797Y212265D01*
X103403Y212265D01*
X106735Y210885D01*
X109285Y208335D01*
X110665Y205003D01*
X110665Y201397D01*
X109285Y198065D01*
X106735Y195515D01*
X103403Y194135D01*
X99797Y194135D01*
X96465Y195515D01*
X93915Y198065D01*
X93456Y199173D01*
X93395Y199273D01*
X93335Y199373D01*
X93330Y199377D01*
X93327Y199382D01*
X93237Y199457D01*
X93148Y199533D01*
X93142Y199535D01*
X93137Y199539D01*
X93029Y199581D01*
X92920Y199625D01*
X92912Y199626D01*
X92908Y199627D01*
X92889Y199628D01*
X92753Y199643D01*
X86404Y199643D01*
X86289Y199624D01*
X86173Y199607D01*
X86167Y199605D01*
X86161Y199604D01*
X86058Y199549D01*
X85953Y199496D01*
X85949Y199491D01*
X85943Y199488D01*
X85864Y199404D01*
X85781Y199320D01*
X85778Y199314D01*
X85774Y199310D01*
X85766Y199293D01*
X85700Y199173D01*
X85223Y198020D01*
X82650Y195447D01*
X79289Y194055D01*
X60411Y194055D01*
G37*
%LPD*%
%LPC*%
G36*
X575523Y248411D02*
X575523Y248411D01*
X572162Y249803D01*
X569589Y252376D01*
X568197Y255737D01*
X568197Y259375D01*
X569589Y262736D01*
X572162Y265309D01*
X575523Y266701D01*
X594401Y266701D01*
X597762Y265309D01*
X600335Y262736D01*
X601727Y259375D01*
X601727Y255737D01*
X600335Y252376D01*
X597762Y249803D01*
X594401Y248411D01*
X575523Y248411D01*
G37*
%LPD*%
%LPC*%
G36*
X510499Y248411D02*
X510499Y248411D01*
X507138Y249803D01*
X504565Y252376D01*
X503173Y255737D01*
X503173Y259375D01*
X504565Y262736D01*
X507138Y265309D01*
X510499Y266701D01*
X529377Y266701D01*
X532738Y265309D01*
X535311Y262736D01*
X536703Y259375D01*
X536703Y255737D01*
X535311Y252376D01*
X532738Y249803D01*
X529377Y248411D01*
X510499Y248411D01*
G37*
%LPD*%
%LPC*%
G36*
X226797Y54435D02*
X226797Y54435D01*
X223465Y55815D01*
X220915Y58365D01*
X219535Y61697D01*
X219535Y65303D01*
X220915Y68635D01*
X223465Y71185D01*
X226797Y72565D01*
X230403Y72565D01*
X233735Y71185D01*
X236285Y68635D01*
X237665Y65303D01*
X237665Y61697D01*
X236285Y58365D01*
X233735Y55815D01*
X230403Y54435D01*
X226797Y54435D01*
G37*
%LPD*%
%LPC*%
G36*
X175997Y206835D02*
X175997Y206835D01*
X172665Y208215D01*
X170115Y210765D01*
X168735Y214097D01*
X168735Y217703D01*
X170115Y221035D01*
X172665Y223585D01*
X175997Y224965D01*
X179603Y224965D01*
X182935Y223585D01*
X185485Y221035D01*
X186865Y217703D01*
X186865Y214097D01*
X185485Y210765D01*
X182935Y208215D01*
X179603Y206835D01*
X175997Y206835D01*
G37*
%LPD*%
%LPC*%
G36*
X404597Y54435D02*
X404597Y54435D01*
X401265Y55815D01*
X398715Y58365D01*
X397335Y61697D01*
X397335Y65303D01*
X398715Y68635D01*
X401265Y71185D01*
X404597Y72565D01*
X408203Y72565D01*
X411535Y71185D01*
X414085Y68635D01*
X415465Y65303D01*
X415465Y61697D01*
X414085Y58365D01*
X411535Y55815D01*
X408203Y54435D01*
X404597Y54435D01*
G37*
%LPD*%
%LPC*%
G36*
X99797Y143335D02*
X99797Y143335D01*
X96465Y144715D01*
X93915Y147265D01*
X92535Y150597D01*
X92535Y154203D01*
X93915Y157535D01*
X96465Y160085D01*
X99797Y161465D01*
X103403Y161465D01*
X106735Y160085D01*
X109285Y157535D01*
X110665Y154203D01*
X110665Y150597D01*
X109285Y147265D01*
X106735Y144715D01*
X103403Y143335D01*
X99797Y143335D01*
G37*
%LPD*%
%LPC*%
G36*
X214097Y181435D02*
X214097Y181435D01*
X210765Y182815D01*
X208215Y185365D01*
X206835Y188697D01*
X206835Y192303D01*
X208215Y195635D01*
X210765Y198185D01*
X214097Y199565D01*
X217703Y199565D01*
X221035Y198185D01*
X223585Y195635D01*
X224965Y192303D01*
X224965Y188697D01*
X223585Y185365D01*
X221035Y182815D01*
X217703Y181435D01*
X214097Y181435D01*
G37*
%LPD*%
%LPC*%
G36*
X328397Y54435D02*
X328397Y54435D01*
X325065Y55815D01*
X322515Y58365D01*
X321135Y61697D01*
X321135Y65303D01*
X322515Y68635D01*
X325065Y71185D01*
X328397Y72565D01*
X332003Y72565D01*
X335335Y71185D01*
X337885Y68635D01*
X339265Y65303D01*
X339265Y61697D01*
X337885Y58365D01*
X335335Y55815D01*
X332003Y54435D01*
X328397Y54435D01*
G37*
%LPD*%
%LPC*%
G36*
X302997Y54435D02*
X302997Y54435D01*
X299665Y55815D01*
X297115Y58365D01*
X295735Y61697D01*
X295735Y65303D01*
X297115Y68635D01*
X299665Y71185D01*
X302997Y72565D01*
X306603Y72565D01*
X309935Y71185D01*
X312485Y68635D01*
X313865Y65303D01*
X313865Y61697D01*
X312485Y58365D01*
X309935Y55815D01*
X306603Y54435D01*
X302997Y54435D01*
G37*
%LPD*%
%LPC*%
G36*
X175997Y54435D02*
X175997Y54435D01*
X172665Y55815D01*
X170115Y58365D01*
X168735Y61697D01*
X168735Y65303D01*
X170115Y68635D01*
X172665Y71185D01*
X175997Y72565D01*
X179603Y72565D01*
X182935Y71185D01*
X185485Y68635D01*
X186865Y65303D01*
X186865Y61697D01*
X185485Y58365D01*
X182935Y55815D01*
X179603Y54435D01*
X175997Y54435D01*
G37*
%LPD*%
%LPC*%
G36*
X150597Y54435D02*
X150597Y54435D01*
X147265Y55815D01*
X144715Y58365D01*
X143335Y61697D01*
X143335Y65303D01*
X144715Y68635D01*
X147265Y71185D01*
X150597Y72565D01*
X154203Y72565D01*
X157535Y71185D01*
X160085Y68635D01*
X161465Y65303D01*
X161465Y61697D01*
X160085Y58365D01*
X157535Y55815D01*
X154203Y54435D01*
X150597Y54435D01*
G37*
%LPD*%
%LPC*%
G36*
X125197Y54435D02*
X125197Y54435D01*
X121865Y55815D01*
X119315Y58365D01*
X117935Y61697D01*
X117935Y65303D01*
X119315Y68635D01*
X121865Y71185D01*
X125197Y72565D01*
X128803Y72565D01*
X132135Y71185D01*
X134685Y68635D01*
X136065Y65303D01*
X136065Y61697D01*
X134685Y58365D01*
X132135Y55815D01*
X128803Y54435D01*
X125197Y54435D01*
G37*
%LPD*%
%LPC*%
G36*
X586485Y213867D02*
X586485Y213867D01*
X586485Y222505D01*
X593382Y222505D01*
X594961Y222255D01*
X596482Y221760D01*
X597907Y221034D01*
X599201Y220094D01*
X600332Y218963D01*
X601272Y217669D01*
X601998Y216244D01*
X602493Y214723D01*
X602628Y213867D01*
X586485Y213867D01*
G37*
%LPD*%
%LPC*%
G36*
X521461Y213867D02*
X521461Y213867D01*
X521461Y222505D01*
X528358Y222505D01*
X529937Y222255D01*
X531458Y221760D01*
X532883Y221034D01*
X534177Y220094D01*
X535308Y218963D01*
X536248Y217669D01*
X536974Y216244D01*
X537469Y214723D01*
X537604Y213867D01*
X521461Y213867D01*
G37*
%LPD*%
%LPC*%
G36*
X567296Y213867D02*
X567296Y213867D01*
X567431Y214723D01*
X567926Y216244D01*
X568652Y217669D01*
X569592Y218963D01*
X570723Y220094D01*
X572017Y221034D01*
X573442Y221760D01*
X574963Y222255D01*
X576542Y222505D01*
X583439Y222505D01*
X583439Y213867D01*
X567296Y213867D01*
G37*
%LPD*%
%LPC*%
G36*
X502272Y213867D02*
X502272Y213867D01*
X502407Y214723D01*
X502902Y216244D01*
X503628Y217669D01*
X504568Y218963D01*
X505699Y220094D01*
X506993Y221034D01*
X508418Y221760D01*
X509939Y222255D01*
X511518Y222505D01*
X518415Y222505D01*
X518415Y213867D01*
X502272Y213867D01*
G37*
%LPD*%
%LPC*%
G36*
X521461Y202183D02*
X521461Y202183D01*
X521461Y210821D01*
X537604Y210821D01*
X537469Y209965D01*
X536974Y208444D01*
X536248Y207019D01*
X535308Y205725D01*
X534177Y204594D01*
X532883Y203654D01*
X531458Y202928D01*
X529937Y202433D01*
X528358Y202183D01*
X521461Y202183D01*
G37*
%LPD*%
%LPC*%
G36*
X586485Y202183D02*
X586485Y202183D01*
X586485Y210821D01*
X602628Y210821D01*
X602493Y209965D01*
X601998Y208444D01*
X601272Y207019D01*
X600332Y205725D01*
X599201Y204594D01*
X597907Y203654D01*
X596482Y202928D01*
X594961Y202433D01*
X593382Y202183D01*
X586485Y202183D01*
G37*
%LPD*%
%LPC*%
G36*
X511518Y202183D02*
X511518Y202183D01*
X509939Y202433D01*
X508418Y202928D01*
X506993Y203654D01*
X505699Y204594D01*
X504568Y205725D01*
X503628Y207019D01*
X502902Y208444D01*
X502407Y209965D01*
X502272Y210821D01*
X518415Y210821D01*
X518415Y202183D01*
X511518Y202183D01*
G37*
%LPD*%
%LPC*%
G36*
X576542Y202183D02*
X576542Y202183D01*
X574963Y202433D01*
X573442Y202928D01*
X572017Y203654D01*
X570723Y204594D01*
X569592Y205725D01*
X568652Y207019D01*
X567926Y208444D01*
X567431Y209965D01*
X567296Y210821D01*
X583439Y210821D01*
X583439Y202183D01*
X576542Y202183D01*
G37*
%LPD*%
%LPC*%
G36*
X452373Y179323D02*
X452373Y179323D01*
X452373Y187881D01*
X458724Y187881D01*
X459371Y187708D01*
X459950Y187373D01*
X460423Y186900D01*
X460758Y186321D01*
X460931Y185674D01*
X460931Y179323D01*
X452373Y179323D01*
G37*
%LPD*%
%LPC*%
G36*
X440769Y179323D02*
X440769Y179323D01*
X440769Y185674D01*
X440942Y186321D01*
X441277Y186900D01*
X441750Y187373D01*
X442329Y187708D01*
X442976Y187881D01*
X449327Y187881D01*
X449327Y179323D01*
X440769Y179323D01*
G37*
%LPD*%
%LPC*%
G36*
X455573Y217423D02*
X455573Y217423D01*
X455573Y225941D01*
X460884Y225941D01*
X461531Y225768D01*
X462110Y225433D01*
X462583Y224960D01*
X462918Y224381D01*
X463091Y223734D01*
X463091Y217423D01*
X455573Y217423D01*
G37*
%LPD*%
%LPC*%
G36*
X455573Y242823D02*
X455573Y242823D01*
X455573Y251341D01*
X460884Y251341D01*
X461531Y251168D01*
X462110Y250833D01*
X462583Y250360D01*
X462918Y249781D01*
X463091Y249134D01*
X463091Y242823D01*
X455573Y242823D01*
G37*
%LPD*%
%LPC*%
G36*
X455573Y231259D02*
X455573Y231259D01*
X455573Y239777D01*
X463091Y239777D01*
X463091Y233466D01*
X462918Y232819D01*
X462583Y232240D01*
X462110Y231767D01*
X461531Y231432D01*
X460884Y231259D01*
X455573Y231259D01*
G37*
%LPD*%
%LPC*%
G36*
X455573Y205859D02*
X455573Y205859D01*
X455573Y214377D01*
X463091Y214377D01*
X463091Y208066D01*
X462918Y207419D01*
X462583Y206840D01*
X462110Y206367D01*
X461531Y206032D01*
X460884Y205859D01*
X455573Y205859D01*
G37*
%LPD*%
%LPC*%
G36*
X445009Y217423D02*
X445009Y217423D01*
X445009Y223734D01*
X445182Y224381D01*
X445517Y224960D01*
X445990Y225433D01*
X446569Y225768D01*
X447216Y225941D01*
X452527Y225941D01*
X452527Y217423D01*
X445009Y217423D01*
G37*
%LPD*%
%LPC*%
G36*
X445009Y242823D02*
X445009Y242823D01*
X445009Y249134D01*
X445182Y249781D01*
X445517Y250360D01*
X445990Y250833D01*
X446569Y251168D01*
X447216Y251341D01*
X452527Y251341D01*
X452527Y242823D01*
X445009Y242823D01*
G37*
%LPD*%
%LPC*%
G36*
X447216Y231259D02*
X447216Y231259D01*
X446569Y231432D01*
X445990Y231767D01*
X445517Y232240D01*
X445182Y232819D01*
X445009Y233466D01*
X445009Y239777D01*
X452527Y239777D01*
X452527Y231259D01*
X447216Y231259D01*
G37*
%LPD*%
%LPC*%
G36*
X447216Y205859D02*
X447216Y205859D01*
X446569Y206032D01*
X445990Y206367D01*
X445517Y206840D01*
X445182Y207419D01*
X445009Y208066D01*
X445009Y214377D01*
X452527Y214377D01*
X452527Y205859D01*
X447216Y205859D01*
G37*
%LPD*%
%LPC*%
G36*
X407923Y141223D02*
X407923Y141223D01*
X407923Y149665D01*
X408761Y149533D01*
X410270Y149042D01*
X411683Y148322D01*
X412967Y147389D01*
X414089Y146267D01*
X415022Y144983D01*
X415742Y143570D01*
X416233Y142061D01*
X416365Y141223D01*
X407923Y141223D01*
G37*
%LPD*%
%LPC*%
G36*
X204723Y65023D02*
X204723Y65023D01*
X204723Y73465D01*
X205561Y73333D01*
X207070Y72842D01*
X208483Y72122D01*
X209767Y71189D01*
X210889Y70067D01*
X211822Y68783D01*
X212542Y67370D01*
X213033Y65861D01*
X213165Y65023D01*
X204723Y65023D01*
G37*
%LPD*%
%LPC*%
G36*
X153923Y217423D02*
X153923Y217423D01*
X153923Y225865D01*
X154761Y225733D01*
X156270Y225242D01*
X157683Y224522D01*
X158967Y223589D01*
X160089Y222467D01*
X161022Y221183D01*
X161742Y219770D01*
X162233Y218261D01*
X162365Y217423D01*
X153923Y217423D01*
G37*
%LPD*%
%LPC*%
G36*
X396435Y141223D02*
X396435Y141223D01*
X396567Y142061D01*
X397058Y143570D01*
X397778Y144983D01*
X398711Y146267D01*
X399833Y147389D01*
X401117Y148322D01*
X402530Y149042D01*
X404039Y149533D01*
X404877Y149665D01*
X404877Y141223D01*
X396435Y141223D01*
G37*
%LPD*%
%LPC*%
G36*
X193235Y65023D02*
X193235Y65023D01*
X193367Y65861D01*
X193858Y67370D01*
X194578Y68783D01*
X195511Y70067D01*
X196633Y71189D01*
X197917Y72122D01*
X199330Y72842D01*
X200839Y73333D01*
X201677Y73465D01*
X201677Y65023D01*
X193235Y65023D01*
G37*
%LPD*%
%LPC*%
G36*
X407923Y138177D02*
X407923Y138177D01*
X416365Y138177D01*
X416233Y137339D01*
X415742Y135830D01*
X415022Y134417D01*
X414089Y133133D01*
X412967Y132011D01*
X411683Y131078D01*
X410270Y130358D01*
X408761Y129867D01*
X407923Y129735D01*
X407923Y138177D01*
G37*
%LPD*%
%LPC*%
G36*
X142435Y217423D02*
X142435Y217423D01*
X142567Y218261D01*
X143058Y219770D01*
X143778Y221183D01*
X144711Y222467D01*
X145833Y223589D01*
X147117Y224522D01*
X148530Y225242D01*
X150039Y225733D01*
X150877Y225865D01*
X150877Y217423D01*
X142435Y217423D01*
G37*
%LPD*%
%LPC*%
G36*
X153923Y214377D02*
X153923Y214377D01*
X162365Y214377D01*
X162233Y213539D01*
X161742Y212030D01*
X161022Y210617D01*
X160089Y209333D01*
X158967Y208211D01*
X157683Y207278D01*
X156270Y206558D01*
X154761Y206067D01*
X153923Y205935D01*
X153923Y214377D01*
G37*
%LPD*%
%LPC*%
G36*
X204723Y61977D02*
X204723Y61977D01*
X213165Y61977D01*
X213033Y61139D01*
X212542Y59630D01*
X211822Y58217D01*
X210889Y56933D01*
X209767Y55811D01*
X208483Y54878D01*
X207070Y54158D01*
X205561Y53667D01*
X204723Y53535D01*
X204723Y61977D01*
G37*
%LPD*%
%LPC*%
G36*
X150039Y206067D02*
X150039Y206067D01*
X148530Y206558D01*
X147117Y207278D01*
X145833Y208211D01*
X144711Y209333D01*
X143778Y210617D01*
X143058Y212030D01*
X142567Y213539D01*
X142435Y214377D01*
X150877Y214377D01*
X150877Y205935D01*
X150039Y206067D01*
G37*
%LPD*%
%LPC*%
G36*
X404039Y129867D02*
X404039Y129867D01*
X402530Y130358D01*
X401117Y131078D01*
X399833Y132011D01*
X398711Y133133D01*
X397778Y134417D01*
X397058Y135830D01*
X396567Y137339D01*
X396435Y138177D01*
X404877Y138177D01*
X404877Y129735D01*
X404039Y129867D01*
G37*
%LPD*%
%LPC*%
G36*
X200839Y53667D02*
X200839Y53667D01*
X199330Y54158D01*
X197917Y54878D01*
X196633Y55811D01*
X195511Y56933D01*
X194578Y58217D01*
X193858Y59630D01*
X193367Y61139D01*
X193235Y61977D01*
X201677Y61977D01*
X201677Y53535D01*
X200839Y53667D01*
G37*
%LPD*%
%LPC*%
G36*
X640723Y217423D02*
X640723Y217423D01*
X640723Y223941D01*
X644534Y223941D01*
X645181Y223768D01*
X645760Y223433D01*
X646233Y222960D01*
X646568Y222381D01*
X646741Y221734D01*
X646741Y217423D01*
X640723Y217423D01*
G37*
%LPD*%
%LPC*%
G36*
X640723Y207859D02*
X640723Y207859D01*
X640723Y214377D01*
X646741Y214377D01*
X646741Y210066D01*
X646568Y209419D01*
X646233Y208840D01*
X645760Y208367D01*
X645181Y208032D01*
X644534Y207859D01*
X640723Y207859D01*
G37*
%LPD*%
%LPC*%
G36*
X631659Y217423D02*
X631659Y217423D01*
X631659Y221734D01*
X631832Y222381D01*
X632167Y222960D01*
X632640Y223433D01*
X633219Y223768D01*
X633866Y223941D01*
X637677Y223941D01*
X637677Y217423D01*
X631659Y217423D01*
G37*
%LPD*%
%LPC*%
G36*
X633866Y207859D02*
X633866Y207859D01*
X633219Y208032D01*
X632640Y208367D01*
X632167Y208840D01*
X631832Y209419D01*
X631659Y210066D01*
X631659Y214377D01*
X637677Y214377D01*
X637677Y207859D01*
X633866Y207859D01*
G37*
%LPD*%
%LPC*%
G36*
X519937Y212343D02*
X519937Y212343D01*
X519937Y212345D01*
X519939Y212345D01*
X519939Y212343D01*
X519937Y212343D01*
G37*
%LPD*%
%LPC*%
G36*
X584961Y212343D02*
X584961Y212343D01*
X584961Y212345D01*
X584963Y212345D01*
X584963Y212343D01*
X584961Y212343D01*
G37*
%LPD*%
%LPC*%
G36*
X406399Y139699D02*
X406399Y139699D01*
X406399Y139701D01*
X406401Y139701D01*
X406401Y139699D01*
X406399Y139699D01*
G37*
%LPD*%
%LPC*%
G36*
X152399Y215899D02*
X152399Y215899D01*
X152399Y215901D01*
X152401Y215901D01*
X152401Y215899D01*
X152399Y215899D01*
G37*
%LPD*%
%LPC*%
G36*
X203199Y63499D02*
X203199Y63499D01*
X203199Y63501D01*
X203201Y63501D01*
X203201Y63499D01*
X203199Y63499D01*
G37*
%LPD*%
%LPC*%
G36*
X639199Y215899D02*
X639199Y215899D01*
X639199Y215901D01*
X639201Y215901D01*
X639201Y215899D01*
X639199Y215899D01*
G37*
%LPD*%
%LPC*%
G36*
X454049Y215899D02*
X454049Y215899D01*
X454049Y215901D01*
X454051Y215901D01*
X454051Y215899D01*
X454049Y215899D01*
G37*
%LPD*%
%LPC*%
G36*
X454049Y241299D02*
X454049Y241299D01*
X454049Y241301D01*
X454051Y241301D01*
X454051Y241299D01*
X454049Y241299D01*
G37*
%LPD*%
D10*
X450850Y177800D03*
D11*
X476250Y101600D03*
X476250Y127000D03*
X476250Y152400D03*
X476250Y177800D03*
X450850Y152400D03*
X450850Y127000D03*
X450850Y101600D03*
D12*
X952500Y79375D03*
X800100Y79375D03*
X800100Y212725D03*
X952500Y212725D03*
D13*
X850900Y247650D03*
X876300Y247650D03*
X901700Y247650D03*
X977900Y146050D03*
X977900Y171450D03*
X977900Y120650D03*
X844550Y69850D03*
X908050Y69850D03*
X908050Y19050D03*
X844550Y19050D03*
D14*
X749300Y139700D03*
X29300Y139700D03*
D15*
X473050Y241300D03*
X454050Y241300D03*
X473050Y215900D03*
X454050Y215900D03*
D16*
X731400Y241300D03*
X716400Y241300D03*
X693300Y241300D03*
X678300Y241300D03*
X655200Y241300D03*
X640200Y241300D03*
D17*
X715400Y215900D03*
X732400Y215900D03*
X677300Y215900D03*
X694300Y215900D03*
X639200Y215900D03*
X656200Y215900D03*
D18*
X77470Y76200D02*
X62230Y76200D01*
X62230Y101600D02*
X77470Y101600D01*
X77470Y127000D02*
X62230Y127000D01*
X62230Y152400D02*
X77470Y152400D01*
X77470Y177800D02*
X62230Y177800D01*
X62230Y203200D02*
X77470Y203200D01*
D11*
X406400Y215900D03*
X381000Y215900D03*
X355600Y215900D03*
X330200Y215900D03*
X304800Y215900D03*
X279400Y215900D03*
X254000Y215900D03*
X228600Y215900D03*
X203200Y215900D03*
X177800Y215900D03*
X152400Y215900D03*
X127000Y215900D03*
X406400Y190500D03*
X406400Y165100D03*
X406400Y139700D03*
X101600Y203200D03*
X101600Y177800D03*
X101600Y152400D03*
X101600Y127000D03*
X101600Y101600D03*
X101600Y76200D03*
X215900Y190500D03*
X241300Y190500D03*
X406400Y63500D03*
X381000Y63500D03*
X355600Y63500D03*
X330200Y63500D03*
X304800Y63500D03*
X279400Y63500D03*
X228600Y63500D03*
X203200Y63500D03*
X152400Y63500D03*
X127000Y63500D03*
X177800Y63500D03*
X254000Y63500D03*
D19*
X31750Y205000D03*
X31750Y176000D03*
D18*
X512318Y257556D02*
X527558Y257556D01*
X527558Y212344D02*
X512318Y212344D01*
X577342Y257556D02*
X592582Y257556D01*
X592582Y212344D02*
X577342Y212344D01*
D20*
X749300Y190500D02*
X749300Y139700D01*
X749300Y190500D02*
X742950Y196850D01*
X736600Y203200D01*
X723900Y203200D01*
X715400Y211700D01*
X715400Y215900D01*
X742950Y196850D02*
X793750Y247650D01*
X850900Y247650D01*
X715400Y215900D02*
X702700Y203200D01*
X690000Y203200D02*
X677300Y215900D01*
X690000Y203200D02*
X702700Y203200D01*
X677300Y215900D02*
X664600Y203200D01*
X654050Y203200D01*
D21*
X260350Y31750D03*
X44450Y247650D03*
X152400Y247650D03*
X317500Y241300D03*
X152400Y31750D03*
X44450Y31750D03*
X463550Y63500D03*
X533400Y165100D03*
X641350Y184150D03*
X641350Y120650D03*
X577850Y63500D03*
X304800Y133350D03*
X196850Y133350D03*
D20*
X850900Y247650D02*
X927100Y171450D01*
X977900Y171450D01*
X908050Y152400D02*
X908050Y69850D01*
X908050Y152400D02*
X927100Y171450D01*
D22*
X450850Y152400D02*
X450850Y146050D01*
X463550Y133350D01*
X463550Y95250D02*
X457200Y88900D01*
X381000Y88900D01*
X355600Y63500D01*
X463550Y95250D02*
X463550Y133350D01*
X476250Y152400D02*
X495300Y133350D01*
X495300Y95250D02*
X482600Y82550D01*
X400050Y82550D02*
X381000Y63500D01*
X495300Y95250D02*
X495300Y133350D01*
X482600Y82550D02*
X400050Y82550D01*
X450850Y127000D02*
X419100Y158750D01*
X419100Y222250D02*
X412750Y228600D01*
X342900Y228600D01*
X330200Y215900D01*
X419100Y222250D02*
X419100Y158750D01*
X457200Y165100D02*
X463550Y158750D01*
X438150Y165100D02*
X431800Y171450D01*
X431800Y222250D02*
X412750Y241300D01*
X381000Y241300D01*
X438150Y165100D02*
X457200Y165100D01*
X431800Y171450D02*
X431800Y222250D01*
D21*
X381000Y241300D03*
D22*
X463550Y158750D02*
X463550Y146050D01*
X476250Y133350D01*
X476250Y127000D01*
X450850Y101600D02*
X419100Y101600D01*
X355600Y165100D01*
X355600Y215900D01*
D21*
X374650Y114300D03*
D22*
X304800Y184150D01*
X304800Y215900D01*
D21*
X406400Y101600D03*
D22*
X368300Y101600D01*
X279400Y190500D01*
X279400Y215900D01*
D20*
X253900Y266600D02*
X203200Y215900D01*
X253900Y266600D02*
X457200Y266600D01*
X473050Y241300D02*
X473050Y215900D01*
X473050Y241300D02*
X473050Y250750D01*
X457200Y266600D01*
X473050Y181000D02*
X476250Y177800D01*
X473050Y181000D02*
X473050Y215900D01*
X49000Y222250D02*
X31750Y205000D01*
X120650Y222250D02*
X127000Y215900D01*
X120650Y222250D02*
X49000Y222250D01*
X31750Y205000D02*
X44450Y192300D01*
X44450Y171450D01*
X63500Y152400D01*
X69850Y152400D01*
D22*
X697350Y260350D02*
X716400Y241300D01*
X697350Y260350D02*
X622300Y260350D01*
X609600Y247650D01*
X609600Y188947D02*
X465103Y44450D01*
X273050Y44450D02*
X254000Y63500D01*
X609600Y188947D02*
X609600Y247650D01*
X465103Y44450D02*
X273050Y44450D01*
X665600Y254000D02*
X678300Y241300D01*
X665600Y254000D02*
X628650Y254000D01*
X615950Y241300D01*
X615950Y174695D02*
X473005Y31750D01*
X304800Y31750D01*
X615950Y174695D02*
X615950Y241300D01*
D21*
X304800Y31750D03*
D22*
X622300Y223400D02*
X640200Y241300D01*
X622300Y160442D02*
X480908Y19050D01*
X330200Y19050D01*
X622300Y160442D02*
X622300Y223400D01*
D21*
X330200Y19050D03*
D22*
X655200Y241300D02*
X656200Y240300D01*
X656200Y215900D01*
X693300Y241300D02*
X694300Y240300D01*
X694300Y215900D01*
X731400Y241300D02*
X732400Y240300D01*
X732400Y215900D01*
X101600Y76200D02*
X69850Y76200D01*
X69850Y101600D02*
X101600Y101600D01*
X101600Y127000D02*
X69850Y127000D01*
X69850Y177800D02*
X101600Y177800D01*
X101600Y203200D02*
X69850Y203200D01*
X279400Y171450D02*
X279400Y63500D01*
X279400Y171450D02*
X241300Y209550D01*
X241300Y234950D01*
X260350Y254000D01*
X431800Y254000D01*
D21*
X431800Y254000D03*
D20*
X31750Y142150D02*
X29300Y139700D01*
X31750Y142150D02*
X31750Y176000D01*
M02*
