G04 EAGLE Gerber RS-274X export*
G75*
%MOMM*%
%FSLAX34Y34*%
%LPD*%
%INBottom Copper*%
%IPPOS*%
%AMOC8*
5,1,8,0,0,1.08239X$1,22.5*%
G01*
%ADD10R,1.508000X1.508000*%
%ADD11C,1.508000*%
%ADD12C,2.286000*%
%ADD13C,1.778000*%
%ADD14C,3.556000*%
%ADD15C,1.524000*%
%ADD16C,0.756400*%
%ADD17C,0.406400*%
%ADD18C,0.508000*%

G36*
X472119Y10045D02*
X472119Y10045D01*
X472191Y10047D01*
X472240Y10065D01*
X472291Y10073D01*
X472355Y10107D01*
X472422Y10132D01*
X472463Y10164D01*
X472509Y10189D01*
X472558Y10240D01*
X472614Y10285D01*
X472642Y10329D01*
X472678Y10367D01*
X472708Y10432D01*
X472747Y10492D01*
X472760Y10543D01*
X472782Y10590D01*
X472790Y10661D01*
X472807Y10731D01*
X472803Y10783D01*
X472809Y10834D01*
X472793Y10905D01*
X472788Y10976D01*
X472768Y11024D01*
X472756Y11075D01*
X472720Y11136D01*
X472692Y11202D01*
X472647Y11258D01*
X472630Y11286D01*
X472612Y11301D01*
X472587Y11333D01*
X472470Y11450D01*
X415942Y67978D01*
X415863Y68035D01*
X415788Y68097D01*
X415763Y68106D01*
X415742Y68122D01*
X415649Y68150D01*
X415558Y68185D01*
X415532Y68186D01*
X415507Y68194D01*
X415410Y68192D01*
X415312Y68196D01*
X415287Y68188D01*
X415261Y68188D01*
X415170Y68154D01*
X415076Y68127D01*
X415055Y68112D01*
X415030Y68103D01*
X414954Y68042D01*
X414874Y67987D01*
X414859Y67966D01*
X414838Y67950D01*
X414785Y67868D01*
X414727Y67789D01*
X414719Y67765D01*
X414705Y67743D01*
X414681Y67648D01*
X414651Y67556D01*
X414651Y67529D01*
X414645Y67504D01*
X414653Y67407D01*
X414654Y67310D01*
X414663Y67278D01*
X414664Y67259D01*
X414677Y67229D01*
X414700Y67149D01*
X415465Y65303D01*
X415465Y61697D01*
X414085Y58365D01*
X411535Y55815D01*
X408203Y54435D01*
X404597Y54435D01*
X401265Y55815D01*
X398715Y58365D01*
X397335Y61697D01*
X397335Y65303D01*
X398715Y68635D01*
X401265Y71185D01*
X404597Y72565D01*
X408203Y72565D01*
X410049Y71800D01*
X410143Y71778D01*
X410236Y71749D01*
X410263Y71750D01*
X410288Y71744D01*
X410385Y71753D01*
X410482Y71756D01*
X410507Y71765D01*
X410533Y71767D01*
X410622Y71807D01*
X410713Y71840D01*
X410734Y71857D01*
X410758Y71867D01*
X410829Y71933D01*
X410905Y71994D01*
X410919Y72016D01*
X410939Y72034D01*
X410986Y72119D01*
X411038Y72201D01*
X411045Y72226D01*
X411057Y72249D01*
X411075Y72345D01*
X411098Y72439D01*
X411096Y72465D01*
X411101Y72491D01*
X411087Y72588D01*
X411079Y72685D01*
X411069Y72709D01*
X411065Y72735D01*
X411021Y72822D01*
X410983Y72911D01*
X410963Y72936D01*
X410954Y72954D01*
X410930Y72977D01*
X410878Y73042D01*
X375150Y108770D01*
X375076Y108823D01*
X375006Y108883D01*
X374976Y108895D01*
X374950Y108914D01*
X374863Y108941D01*
X374778Y108975D01*
X374737Y108979D01*
X374715Y108986D01*
X374683Y108985D01*
X374611Y108993D01*
X372452Y108993D01*
X369343Y112102D01*
X369343Y116498D01*
X372452Y119607D01*
X376848Y119607D01*
X379957Y116498D01*
X379957Y114339D01*
X379971Y114248D01*
X379979Y114158D01*
X379991Y114128D01*
X379996Y114096D01*
X380039Y114015D01*
X380075Y113931D01*
X380101Y113899D01*
X380112Y113878D01*
X380135Y113856D01*
X380141Y113848D01*
X380150Y113834D01*
X380159Y113826D01*
X380180Y113800D01*
X477500Y16480D01*
X477574Y16427D01*
X477644Y16367D01*
X477674Y16355D01*
X477700Y16336D01*
X477787Y16309D01*
X477872Y16275D01*
X477913Y16271D01*
X477935Y16264D01*
X477967Y16265D01*
X478039Y16257D01*
X484875Y16257D01*
X484946Y16268D01*
X485018Y16270D01*
X485067Y16288D01*
X485118Y16296D01*
X485182Y16330D01*
X485249Y16355D01*
X485290Y16387D01*
X485336Y16412D01*
X485385Y16464D01*
X485441Y16508D01*
X485469Y16552D01*
X485505Y16590D01*
X485535Y16655D01*
X485574Y16715D01*
X485587Y16766D01*
X485609Y16813D01*
X485617Y16884D01*
X485634Y16954D01*
X485630Y17006D01*
X485636Y17057D01*
X485620Y17128D01*
X485615Y17199D01*
X485595Y17247D01*
X485583Y17298D01*
X485547Y17359D01*
X485519Y17425D01*
X485474Y17481D01*
X485457Y17509D01*
X485439Y17524D01*
X485414Y17556D01*
X406900Y96070D01*
X406826Y96123D01*
X406756Y96183D01*
X406726Y96195D01*
X406700Y96214D01*
X406613Y96241D01*
X406528Y96275D01*
X406487Y96279D01*
X406465Y96286D01*
X406433Y96285D01*
X406361Y96293D01*
X404202Y96293D01*
X401093Y99402D01*
X401093Y103798D01*
X404202Y106907D01*
X408598Y106907D01*
X411707Y103798D01*
X411707Y101639D01*
X411721Y101548D01*
X411729Y101458D01*
X411741Y101428D01*
X411746Y101396D01*
X411789Y101315D01*
X411825Y101231D01*
X411851Y101199D01*
X411862Y101178D01*
X411885Y101156D01*
X411930Y101100D01*
X490200Y22830D01*
X490274Y22777D01*
X490344Y22717D01*
X490374Y22705D01*
X490400Y22686D01*
X490487Y22659D01*
X490572Y22625D01*
X490613Y22621D01*
X490635Y22614D01*
X490667Y22615D01*
X490739Y22607D01*
X654050Y22607D01*
X654070Y22610D01*
X654089Y22608D01*
X654191Y22630D01*
X654293Y22646D01*
X654310Y22656D01*
X654330Y22660D01*
X654419Y22713D01*
X654510Y22762D01*
X654524Y22776D01*
X654541Y22786D01*
X654608Y22865D01*
X654680Y22940D01*
X654688Y22958D01*
X654701Y22973D01*
X654740Y23069D01*
X654783Y23163D01*
X654785Y23183D01*
X654793Y23201D01*
X654811Y23368D01*
X654811Y255778D01*
X654808Y255798D01*
X654810Y255817D01*
X654788Y255919D01*
X654772Y256021D01*
X654762Y256038D01*
X654758Y256058D01*
X654705Y256147D01*
X654656Y256238D01*
X654642Y256252D01*
X654632Y256269D01*
X654553Y256336D01*
X654478Y256408D01*
X654460Y256416D01*
X654445Y256429D01*
X654349Y256468D01*
X654255Y256511D01*
X654235Y256513D01*
X654217Y256521D01*
X654050Y256539D01*
X637253Y256539D01*
X637163Y256525D01*
X637072Y256517D01*
X637042Y256505D01*
X637010Y256500D01*
X636930Y256457D01*
X636846Y256421D01*
X636814Y256395D01*
X636793Y256384D01*
X636771Y256361D01*
X636715Y256316D01*
X611284Y230885D01*
X509999Y230885D01*
X509909Y230871D01*
X509818Y230863D01*
X509788Y230851D01*
X509756Y230846D01*
X509676Y230803D01*
X509592Y230767D01*
X509560Y230741D01*
X509539Y230730D01*
X509517Y230707D01*
X509461Y230662D01*
X480538Y201739D01*
X480485Y201665D01*
X480425Y201596D01*
X480413Y201566D01*
X480394Y201540D01*
X480367Y201453D01*
X480333Y201368D01*
X480329Y201327D01*
X480322Y201304D01*
X480323Y201272D01*
X480315Y201201D01*
X480315Y186437D01*
X480334Y186322D01*
X480351Y186206D01*
X480353Y186200D01*
X480354Y186194D01*
X480409Y186092D01*
X480462Y185986D01*
X480467Y185982D01*
X480470Y185976D01*
X480554Y185896D01*
X480638Y185814D01*
X480644Y185811D01*
X480648Y185807D01*
X480665Y185799D01*
X480785Y185733D01*
X481385Y185485D01*
X483935Y182935D01*
X485315Y179603D01*
X485315Y175997D01*
X483935Y172665D01*
X481385Y170115D01*
X478053Y168735D01*
X474447Y168735D01*
X471115Y170115D01*
X468565Y172665D01*
X467185Y175997D01*
X467185Y179603D01*
X468565Y182935D01*
X471115Y185485D01*
X471715Y185733D01*
X471815Y185795D01*
X471915Y185855D01*
X471919Y185860D01*
X471924Y185863D01*
X471999Y185953D01*
X472075Y186042D01*
X472077Y186048D01*
X472081Y186052D01*
X472123Y186161D01*
X472167Y186270D01*
X472168Y186277D01*
X472169Y186282D01*
X472170Y186300D01*
X472185Y186437D01*
X472185Y204884D01*
X503712Y236410D01*
X503745Y236443D01*
X503787Y236502D01*
X503837Y236554D01*
X503858Y236601D01*
X503889Y236643D01*
X503910Y236712D01*
X503940Y236777D01*
X503946Y236829D01*
X503961Y236878D01*
X503959Y236950D01*
X503967Y237021D01*
X503956Y237072D01*
X503955Y237124D01*
X503930Y237192D01*
X503915Y237262D01*
X503888Y237306D01*
X503871Y237355D01*
X503826Y237411D01*
X503789Y237473D01*
X503749Y237507D01*
X503717Y237547D01*
X503657Y237586D01*
X503602Y237633D01*
X503554Y237652D01*
X503510Y237680D01*
X503441Y237698D01*
X503374Y237725D01*
X503303Y237733D01*
X503272Y237741D01*
X503248Y237739D01*
X503207Y237743D01*
X423977Y237743D01*
X398800Y262920D01*
X398726Y262973D01*
X398656Y263033D01*
X398626Y263045D01*
X398600Y263064D01*
X398513Y263091D01*
X398428Y263125D01*
X398387Y263129D01*
X398365Y263136D01*
X398333Y263135D01*
X398261Y263143D01*
X306589Y263143D01*
X306498Y263129D01*
X306408Y263121D01*
X306378Y263109D01*
X306346Y263104D01*
X306265Y263061D01*
X306181Y263025D01*
X306149Y262999D01*
X306128Y262988D01*
X306106Y262965D01*
X306050Y262920D01*
X262771Y219641D01*
X262703Y219547D01*
X262633Y219452D01*
X262631Y219446D01*
X262627Y219441D01*
X262593Y219330D01*
X262557Y219218D01*
X262557Y219212D01*
X262555Y219206D01*
X262558Y219089D01*
X262559Y218972D01*
X262561Y218965D01*
X262561Y218960D01*
X262568Y218943D01*
X262606Y218811D01*
X263065Y217703D01*
X263065Y214097D01*
X261685Y210765D01*
X259135Y208215D01*
X255803Y206835D01*
X252197Y206835D01*
X248865Y208215D01*
X246315Y210765D01*
X244935Y214097D01*
X244935Y217703D01*
X246315Y221035D01*
X248865Y223585D01*
X252197Y224965D01*
X255803Y224965D01*
X256911Y224506D01*
X257025Y224479D01*
X257138Y224451D01*
X257145Y224451D01*
X257151Y224450D01*
X257267Y224461D01*
X257384Y224470D01*
X257389Y224472D01*
X257396Y224473D01*
X257503Y224521D01*
X257610Y224566D01*
X257616Y224571D01*
X257620Y224573D01*
X257634Y224585D01*
X257741Y224671D01*
X301137Y268067D01*
X301179Y268125D01*
X301228Y268177D01*
X301250Y268224D01*
X301280Y268266D01*
X301301Y268335D01*
X301332Y268400D01*
X301337Y268452D01*
X301353Y268502D01*
X301351Y268573D01*
X301359Y268644D01*
X301348Y268695D01*
X301346Y268747D01*
X301322Y268815D01*
X301306Y268885D01*
X301280Y268929D01*
X301262Y268978D01*
X301217Y269034D01*
X301180Y269096D01*
X301141Y269130D01*
X301108Y269170D01*
X301048Y269209D01*
X300993Y269256D01*
X300945Y269275D01*
X300901Y269303D01*
X300832Y269321D01*
X300765Y269348D01*
X300694Y269356D01*
X300663Y269364D01*
X300639Y269362D01*
X300598Y269366D01*
X28964Y269366D01*
X28900Y269356D01*
X28834Y269355D01*
X28754Y269332D01*
X28722Y269327D01*
X28705Y269317D01*
X28673Y269308D01*
X27550Y268843D01*
X22139Y268843D01*
X22122Y268840D01*
X22104Y268842D01*
X21939Y268816D01*
X19719Y268210D01*
X19705Y268203D01*
X19689Y268201D01*
X19536Y268133D01*
X16272Y266227D01*
X16260Y266217D01*
X16246Y266211D01*
X16115Y266105D01*
X13456Y263419D01*
X13447Y263406D01*
X13434Y263397D01*
X13336Y263261D01*
X11462Y259978D01*
X11457Y259964D01*
X11447Y259951D01*
X11387Y259794D01*
X10427Y256139D01*
X10425Y256115D01*
X10403Y255991D01*
X10289Y254103D01*
X10291Y254086D01*
X10288Y254057D01*
X10288Y254030D01*
X10288Y254029D01*
X10288Y254027D01*
X10298Y251925D01*
X10297Y251911D01*
X10289Y251879D01*
X10291Y251861D01*
X10288Y251831D01*
X10288Y148073D01*
X10303Y147977D01*
X10313Y147880D01*
X10323Y147856D01*
X10327Y147830D01*
X10373Y147744D01*
X10413Y147655D01*
X10430Y147636D01*
X10443Y147613D01*
X10513Y147546D01*
X10579Y147474D01*
X10602Y147462D01*
X10621Y147444D01*
X10709Y147403D01*
X10795Y147356D01*
X10820Y147351D01*
X10844Y147340D01*
X10941Y147329D01*
X11037Y147312D01*
X11063Y147316D01*
X11088Y147313D01*
X11184Y147333D01*
X11280Y147348D01*
X11303Y147359D01*
X11329Y147365D01*
X11412Y147415D01*
X11499Y147459D01*
X11518Y147478D01*
X11540Y147491D01*
X11603Y147565D01*
X11671Y147635D01*
X11687Y147663D01*
X11700Y147678D01*
X11712Y147709D01*
X11752Y147782D01*
X12934Y150635D01*
X18365Y156066D01*
X25460Y159005D01*
X33140Y159005D01*
X40235Y156066D01*
X45666Y150635D01*
X48605Y143540D01*
X48605Y135860D01*
X45666Y128765D01*
X40235Y123334D01*
X33140Y120395D01*
X25460Y120395D01*
X18365Y123334D01*
X12934Y128765D01*
X11752Y131618D01*
X11701Y131701D01*
X11655Y131787D01*
X11637Y131805D01*
X11623Y131827D01*
X11547Y131890D01*
X11477Y131956D01*
X11453Y131967D01*
X11433Y131984D01*
X11342Y132019D01*
X11254Y132060D01*
X11228Y132063D01*
X11204Y132072D01*
X11106Y132076D01*
X11010Y132087D01*
X10984Y132082D01*
X10958Y132083D01*
X10864Y132056D01*
X10769Y132035D01*
X10747Y132022D01*
X10722Y132014D01*
X10642Y131959D01*
X10558Y131909D01*
X10541Y131889D01*
X10520Y131874D01*
X10461Y131796D01*
X10398Y131722D01*
X10388Y131698D01*
X10373Y131677D01*
X10343Y131584D01*
X10306Y131494D01*
X10303Y131461D01*
X10297Y131443D01*
X10297Y131410D01*
X10288Y131327D01*
X10288Y28964D01*
X10298Y28900D01*
X10299Y28834D01*
X10322Y28754D01*
X10327Y28722D01*
X10337Y28705D01*
X10346Y28673D01*
X10811Y27550D01*
X10811Y21898D01*
X10813Y21885D01*
X10811Y21871D01*
X10836Y21705D01*
X11387Y19606D01*
X11393Y19591D01*
X11396Y19576D01*
X11462Y19422D01*
X13336Y16139D01*
X13346Y16127D01*
X13352Y16112D01*
X13456Y15981D01*
X16115Y13295D01*
X16128Y13286D01*
X16138Y13273D01*
X16272Y13173D01*
X19536Y11267D01*
X19551Y11261D01*
X19563Y11252D01*
X19719Y11190D01*
X21939Y10584D01*
X21956Y10582D01*
X21972Y10575D01*
X22139Y10557D01*
X27550Y10557D01*
X28673Y10092D01*
X28737Y10077D01*
X28798Y10052D01*
X28881Y10043D01*
X28913Y10036D01*
X28932Y10037D01*
X28964Y10034D01*
X472048Y10034D01*
X472119Y10045D01*
G37*
%LPC*%
G36*
X328002Y13743D02*
X328002Y13743D01*
X324893Y16852D01*
X324893Y21248D01*
X326420Y22775D01*
X326473Y22849D01*
X326533Y22919D01*
X326545Y22949D01*
X326564Y22975D01*
X326591Y23062D01*
X326625Y23147D01*
X326629Y23188D01*
X326636Y23210D01*
X326635Y23242D01*
X326643Y23313D01*
X326643Y54653D01*
X326624Y54768D01*
X326607Y54884D01*
X326605Y54890D01*
X326604Y54896D01*
X326549Y54998D01*
X326496Y55103D01*
X326491Y55108D01*
X326488Y55113D01*
X326404Y55193D01*
X326320Y55275D01*
X326314Y55279D01*
X326310Y55283D01*
X326293Y55290D01*
X326173Y55356D01*
X325065Y55815D01*
X322515Y58365D01*
X321135Y61697D01*
X321135Y65303D01*
X322515Y68635D01*
X325065Y71185D01*
X328397Y72565D01*
X332003Y72565D01*
X335335Y71185D01*
X337885Y68635D01*
X339265Y65303D01*
X339265Y61697D01*
X337885Y58365D01*
X335335Y55815D01*
X334227Y55356D01*
X334127Y55295D01*
X334027Y55235D01*
X334023Y55230D01*
X334018Y55227D01*
X333943Y55137D01*
X333867Y55048D01*
X333865Y55042D01*
X333861Y55037D01*
X333819Y54929D01*
X333775Y54820D01*
X333774Y54812D01*
X333773Y54808D01*
X333772Y54789D01*
X333757Y54653D01*
X333757Y23313D01*
X333771Y23223D01*
X333779Y23132D01*
X333791Y23103D01*
X333796Y23071D01*
X333839Y22990D01*
X333875Y22906D01*
X333901Y22874D01*
X333912Y22853D01*
X333935Y22831D01*
X333980Y22775D01*
X335507Y21248D01*
X335507Y16852D01*
X332398Y13743D01*
X328002Y13743D01*
G37*
%LPD*%
%LPC*%
G36*
X60411Y67055D02*
X60411Y67055D01*
X57050Y68447D01*
X54477Y71020D01*
X53085Y74381D01*
X53085Y78019D01*
X54477Y81380D01*
X57050Y83953D01*
X60411Y85345D01*
X79289Y85345D01*
X82650Y83953D01*
X85223Y81380D01*
X86615Y78019D01*
X86615Y74381D01*
X85223Y71020D01*
X82650Y68447D01*
X79289Y67055D01*
X60411Y67055D01*
G37*
%LPD*%
%LPC*%
G36*
X60411Y117855D02*
X60411Y117855D01*
X57050Y119247D01*
X54477Y121820D01*
X53085Y125181D01*
X53085Y128819D01*
X54477Y132180D01*
X57050Y134753D01*
X60411Y136145D01*
X79289Y136145D01*
X82650Y134753D01*
X85223Y132180D01*
X86615Y128819D01*
X86615Y125181D01*
X85223Y121820D01*
X82650Y119247D01*
X79289Y117855D01*
X60411Y117855D01*
G37*
%LPD*%
%LPC*%
G36*
X60411Y168655D02*
X60411Y168655D01*
X57050Y170047D01*
X54477Y172620D01*
X53085Y175981D01*
X53085Y179619D01*
X54477Y182980D01*
X57050Y185553D01*
X60411Y186945D01*
X79289Y186945D01*
X82650Y185553D01*
X85223Y182980D01*
X86615Y179619D01*
X86615Y175981D01*
X85223Y172620D01*
X82650Y170047D01*
X79289Y168655D01*
X60411Y168655D01*
G37*
%LPD*%
%LPC*%
G36*
X60411Y194055D02*
X60411Y194055D01*
X57050Y195447D01*
X54477Y198020D01*
X53085Y201381D01*
X53085Y205019D01*
X54477Y208380D01*
X57050Y210953D01*
X60411Y212345D01*
X79289Y212345D01*
X82650Y210953D01*
X85223Y208380D01*
X86615Y205019D01*
X86615Y201381D01*
X85223Y198020D01*
X82650Y195447D01*
X79289Y194055D01*
X60411Y194055D01*
G37*
%LPD*%
%LPC*%
G36*
X60411Y143255D02*
X60411Y143255D01*
X57050Y144647D01*
X54477Y147220D01*
X53085Y150581D01*
X53085Y154219D01*
X54477Y157580D01*
X57050Y160153D01*
X60411Y161545D01*
X79289Y161545D01*
X82650Y160153D01*
X85223Y157580D01*
X86615Y154219D01*
X86615Y150581D01*
X85223Y147220D01*
X82650Y144647D01*
X79289Y143255D01*
X60411Y143255D01*
G37*
%LPD*%
%LPC*%
G36*
X60411Y92455D02*
X60411Y92455D01*
X57050Y93847D01*
X54477Y96420D01*
X53085Y99781D01*
X53085Y103419D01*
X54477Y106780D01*
X57050Y109353D01*
X60411Y110745D01*
X79289Y110745D01*
X82650Y109353D01*
X85223Y106780D01*
X86615Y103419D01*
X86615Y99781D01*
X85223Y96420D01*
X82650Y93847D01*
X79289Y92455D01*
X60411Y92455D01*
G37*
%LPD*%
%LPC*%
G36*
X302602Y26443D02*
X302602Y26443D01*
X299493Y29552D01*
X299493Y33948D01*
X301020Y35475D01*
X301073Y35549D01*
X301133Y35619D01*
X301145Y35649D01*
X301164Y35675D01*
X301191Y35762D01*
X301225Y35847D01*
X301229Y35888D01*
X301236Y35910D01*
X301235Y35942D01*
X301243Y36013D01*
X301243Y54653D01*
X301224Y54768D01*
X301207Y54884D01*
X301205Y54890D01*
X301204Y54896D01*
X301149Y54998D01*
X301096Y55103D01*
X301091Y55108D01*
X301088Y55113D01*
X301004Y55193D01*
X300920Y55275D01*
X300914Y55279D01*
X300910Y55283D01*
X300893Y55290D01*
X300773Y55356D01*
X299665Y55815D01*
X297115Y58365D01*
X295735Y61697D01*
X295735Y65303D01*
X297115Y68635D01*
X299665Y71185D01*
X302997Y72565D01*
X306603Y72565D01*
X309935Y71185D01*
X312485Y68635D01*
X313865Y65303D01*
X313865Y61697D01*
X312485Y58365D01*
X309935Y55815D01*
X308827Y55356D01*
X308727Y55295D01*
X308627Y55235D01*
X308623Y55230D01*
X308618Y55227D01*
X308543Y55137D01*
X308467Y55048D01*
X308465Y55042D01*
X308461Y55037D01*
X308419Y54929D01*
X308375Y54820D01*
X308374Y54812D01*
X308373Y54808D01*
X308372Y54789D01*
X308357Y54653D01*
X308357Y36013D01*
X308371Y35923D01*
X308379Y35832D01*
X308391Y35803D01*
X308396Y35771D01*
X308439Y35690D01*
X308475Y35606D01*
X308501Y35574D01*
X308512Y35553D01*
X308535Y35531D01*
X308580Y35475D01*
X310107Y33948D01*
X310107Y29552D01*
X306998Y26443D01*
X302602Y26443D01*
G37*
%LPD*%
%LPC*%
G36*
X379197Y206835D02*
X379197Y206835D01*
X375865Y208215D01*
X373315Y210765D01*
X371935Y214097D01*
X371935Y217703D01*
X373315Y221035D01*
X375865Y223585D01*
X376973Y224044D01*
X377073Y224105D01*
X377173Y224165D01*
X377177Y224170D01*
X377182Y224173D01*
X377257Y224263D01*
X377333Y224352D01*
X377335Y224358D01*
X377339Y224363D01*
X377381Y224471D01*
X377425Y224580D01*
X377426Y224588D01*
X377427Y224592D01*
X377428Y224611D01*
X377443Y224747D01*
X377443Y237037D01*
X377429Y237127D01*
X377421Y237218D01*
X377409Y237247D01*
X377404Y237279D01*
X377361Y237360D01*
X377325Y237444D01*
X377299Y237476D01*
X377288Y237497D01*
X377265Y237519D01*
X377220Y237575D01*
X375693Y239102D01*
X375693Y243498D01*
X378802Y246607D01*
X383198Y246607D01*
X386307Y243498D01*
X386307Y239102D01*
X384780Y237575D01*
X384727Y237501D01*
X384667Y237431D01*
X384655Y237401D01*
X384636Y237375D01*
X384609Y237288D01*
X384575Y237203D01*
X384571Y237162D01*
X384564Y237140D01*
X384565Y237108D01*
X384557Y237037D01*
X384557Y224747D01*
X384576Y224632D01*
X384593Y224516D01*
X384595Y224510D01*
X384596Y224504D01*
X384651Y224402D01*
X384704Y224297D01*
X384709Y224292D01*
X384712Y224287D01*
X384796Y224207D01*
X384880Y224125D01*
X384886Y224121D01*
X384890Y224118D01*
X384907Y224110D01*
X385027Y224044D01*
X386135Y223585D01*
X388685Y221035D01*
X390065Y217703D01*
X390065Y214097D01*
X388685Y210765D01*
X386135Y208215D01*
X382803Y206835D01*
X379197Y206835D01*
G37*
%LPD*%
%LPC*%
G36*
X99797Y117935D02*
X99797Y117935D01*
X96465Y119315D01*
X93915Y121865D01*
X92535Y125197D01*
X92535Y128803D01*
X93915Y132135D01*
X96465Y134685D01*
X99797Y136065D01*
X103403Y136065D01*
X106735Y134685D01*
X109285Y132135D01*
X110665Y128803D01*
X110665Y125197D01*
X109285Y121865D01*
X106735Y119315D01*
X103403Y117935D01*
X99797Y117935D01*
G37*
%LPD*%
%LPC*%
G36*
X474447Y92535D02*
X474447Y92535D01*
X471115Y93915D01*
X468565Y96465D01*
X467185Y99797D01*
X467185Y103403D01*
X468565Y106735D01*
X471115Y109285D01*
X474447Y110665D01*
X478053Y110665D01*
X481385Y109285D01*
X483935Y106735D01*
X485315Y103403D01*
X485315Y99797D01*
X483935Y96465D01*
X481385Y93915D01*
X478053Y92535D01*
X474447Y92535D01*
G37*
%LPD*%
%LPC*%
G36*
X404597Y206835D02*
X404597Y206835D01*
X401265Y208215D01*
X398715Y210765D01*
X397335Y214097D01*
X397335Y217703D01*
X398715Y221035D01*
X401265Y223585D01*
X404597Y224965D01*
X408203Y224965D01*
X411535Y223585D01*
X414085Y221035D01*
X415465Y217703D01*
X415465Y214097D01*
X414085Y210765D01*
X411535Y208215D01*
X408203Y206835D01*
X404597Y206835D01*
G37*
%LPD*%
%LPC*%
G36*
X353797Y206835D02*
X353797Y206835D01*
X350465Y208215D01*
X347915Y210765D01*
X346535Y214097D01*
X346535Y217703D01*
X347915Y221035D01*
X350465Y223585D01*
X353797Y224965D01*
X357403Y224965D01*
X360735Y223585D01*
X363285Y221035D01*
X364665Y217703D01*
X364665Y214097D01*
X363285Y210765D01*
X360735Y208215D01*
X357403Y206835D01*
X353797Y206835D01*
G37*
%LPD*%
%LPC*%
G36*
X328397Y206835D02*
X328397Y206835D01*
X325065Y208215D01*
X322515Y210765D01*
X321135Y214097D01*
X321135Y217703D01*
X322515Y221035D01*
X325065Y223585D01*
X328397Y224965D01*
X332003Y224965D01*
X335335Y223585D01*
X337885Y221035D01*
X339265Y217703D01*
X339265Y214097D01*
X337885Y210765D01*
X335335Y208215D01*
X332003Y206835D01*
X328397Y206835D01*
G37*
%LPD*%
%LPC*%
G36*
X302997Y206835D02*
X302997Y206835D01*
X299665Y208215D01*
X297115Y210765D01*
X295735Y214097D01*
X295735Y217703D01*
X297115Y221035D01*
X299665Y223585D01*
X302997Y224965D01*
X306603Y224965D01*
X309935Y223585D01*
X312485Y221035D01*
X313865Y217703D01*
X313865Y214097D01*
X312485Y210765D01*
X309935Y208215D01*
X306603Y206835D01*
X302997Y206835D01*
G37*
%LPD*%
%LPC*%
G36*
X277597Y206835D02*
X277597Y206835D01*
X274265Y208215D01*
X271715Y210765D01*
X270335Y214097D01*
X270335Y217703D01*
X271715Y221035D01*
X274265Y223585D01*
X277597Y224965D01*
X281203Y224965D01*
X284535Y223585D01*
X287085Y221035D01*
X288465Y217703D01*
X288465Y214097D01*
X287085Y210765D01*
X284535Y208215D01*
X281203Y206835D01*
X277597Y206835D01*
G37*
%LPD*%
%LPC*%
G36*
X226797Y206835D02*
X226797Y206835D01*
X223465Y208215D01*
X220915Y210765D01*
X219535Y214097D01*
X219535Y217703D01*
X220915Y221035D01*
X223465Y223585D01*
X226797Y224965D01*
X230403Y224965D01*
X233735Y223585D01*
X236285Y221035D01*
X237665Y217703D01*
X237665Y214097D01*
X236285Y210765D01*
X233735Y208215D01*
X230403Y206835D01*
X226797Y206835D01*
G37*
%LPD*%
%LPC*%
G36*
X201397Y206835D02*
X201397Y206835D01*
X198065Y208215D01*
X195515Y210765D01*
X194135Y214097D01*
X194135Y217703D01*
X195515Y221035D01*
X198065Y223585D01*
X201397Y224965D01*
X205003Y224965D01*
X208335Y223585D01*
X210885Y221035D01*
X212265Y217703D01*
X212265Y214097D01*
X210885Y210765D01*
X208335Y208215D01*
X205003Y206835D01*
X201397Y206835D01*
G37*
%LPD*%
%LPC*%
G36*
X175997Y206835D02*
X175997Y206835D01*
X172665Y208215D01*
X170115Y210765D01*
X168735Y214097D01*
X168735Y217703D01*
X170115Y221035D01*
X172665Y223585D01*
X175997Y224965D01*
X179603Y224965D01*
X182935Y223585D01*
X185485Y221035D01*
X186865Y217703D01*
X186865Y214097D01*
X185485Y210765D01*
X182935Y208215D01*
X179603Y206835D01*
X175997Y206835D01*
G37*
%LPD*%
%LPC*%
G36*
X125197Y206835D02*
X125197Y206835D01*
X121865Y208215D01*
X119315Y210765D01*
X117935Y214097D01*
X117935Y217703D01*
X119315Y221035D01*
X121865Y223585D01*
X125197Y224965D01*
X128803Y224965D01*
X132135Y223585D01*
X134685Y221035D01*
X136065Y217703D01*
X136065Y214097D01*
X134685Y210765D01*
X132135Y208215D01*
X128803Y206835D01*
X125197Y206835D01*
G37*
%LPD*%
%LPC*%
G36*
X99797Y92535D02*
X99797Y92535D01*
X96465Y93915D01*
X93915Y96465D01*
X92535Y99797D01*
X92535Y103403D01*
X93915Y106735D01*
X96465Y109285D01*
X99797Y110665D01*
X103403Y110665D01*
X106735Y109285D01*
X109285Y106735D01*
X110665Y103403D01*
X110665Y99797D01*
X109285Y96465D01*
X106735Y93915D01*
X103403Y92535D01*
X99797Y92535D01*
G37*
%LPD*%
%LPC*%
G36*
X99797Y67135D02*
X99797Y67135D01*
X96465Y68515D01*
X93915Y71065D01*
X92535Y74397D01*
X92535Y78003D01*
X93915Y81335D01*
X96465Y83885D01*
X99797Y85265D01*
X103403Y85265D01*
X106735Y83885D01*
X109285Y81335D01*
X110665Y78003D01*
X110665Y74397D01*
X109285Y71065D01*
X106735Y68515D01*
X103403Y67135D01*
X99797Y67135D01*
G37*
%LPD*%
%LPC*%
G36*
X252197Y54435D02*
X252197Y54435D01*
X248865Y55815D01*
X246315Y58365D01*
X244935Y61697D01*
X244935Y65303D01*
X246315Y68635D01*
X248865Y71185D01*
X252197Y72565D01*
X255803Y72565D01*
X259135Y71185D01*
X261685Y68635D01*
X263065Y65303D01*
X263065Y61697D01*
X261685Y58365D01*
X259135Y55815D01*
X255803Y54435D01*
X252197Y54435D01*
G37*
%LPD*%
%LPC*%
G36*
X379197Y54435D02*
X379197Y54435D01*
X375865Y55815D01*
X373315Y58365D01*
X371935Y61697D01*
X371935Y65303D01*
X373315Y68635D01*
X375865Y71185D01*
X379197Y72565D01*
X382803Y72565D01*
X386135Y71185D01*
X388685Y68635D01*
X390065Y65303D01*
X390065Y61697D01*
X388685Y58365D01*
X386135Y55815D01*
X382803Y54435D01*
X379197Y54435D01*
G37*
%LPD*%
%LPC*%
G36*
X353797Y54435D02*
X353797Y54435D01*
X350465Y55815D01*
X347915Y58365D01*
X346535Y61697D01*
X346535Y65303D01*
X347915Y68635D01*
X350465Y71185D01*
X353797Y72565D01*
X357403Y72565D01*
X360735Y71185D01*
X363285Y68635D01*
X364665Y65303D01*
X364665Y61697D01*
X363285Y58365D01*
X360735Y55815D01*
X357403Y54435D01*
X353797Y54435D01*
G37*
%LPD*%
%LPC*%
G36*
X277597Y54435D02*
X277597Y54435D01*
X274265Y55815D01*
X271715Y58365D01*
X270335Y61697D01*
X270335Y65303D01*
X271715Y68635D01*
X274265Y71185D01*
X277597Y72565D01*
X281203Y72565D01*
X284535Y71185D01*
X287085Y68635D01*
X288465Y65303D01*
X288465Y61697D01*
X287085Y58365D01*
X284535Y55815D01*
X281203Y54435D01*
X277597Y54435D01*
G37*
%LPD*%
%LPC*%
G36*
X226797Y54435D02*
X226797Y54435D01*
X223465Y55815D01*
X220915Y58365D01*
X219535Y61697D01*
X219535Y65303D01*
X220915Y68635D01*
X223465Y71185D01*
X226797Y72565D01*
X230403Y72565D01*
X233735Y71185D01*
X236285Y68635D01*
X237665Y65303D01*
X237665Y61697D01*
X236285Y58365D01*
X233735Y55815D01*
X230403Y54435D01*
X226797Y54435D01*
G37*
%LPD*%
%LPC*%
G36*
X175997Y54435D02*
X175997Y54435D01*
X172665Y55815D01*
X170115Y58365D01*
X168735Y61697D01*
X168735Y65303D01*
X170115Y68635D01*
X172665Y71185D01*
X175997Y72565D01*
X179603Y72565D01*
X182935Y71185D01*
X185485Y68635D01*
X186865Y65303D01*
X186865Y61697D01*
X185485Y58365D01*
X182935Y55815D01*
X179603Y54435D01*
X175997Y54435D01*
G37*
%LPD*%
%LPC*%
G36*
X150597Y54435D02*
X150597Y54435D01*
X147265Y55815D01*
X144715Y58365D01*
X143335Y61697D01*
X143335Y65303D01*
X144715Y68635D01*
X147265Y71185D01*
X150597Y72565D01*
X154203Y72565D01*
X157535Y71185D01*
X160085Y68635D01*
X161465Y65303D01*
X161465Y61697D01*
X160085Y58365D01*
X157535Y55815D01*
X154203Y54435D01*
X150597Y54435D01*
G37*
%LPD*%
%LPC*%
G36*
X99797Y194135D02*
X99797Y194135D01*
X96465Y195515D01*
X93915Y198065D01*
X92535Y201397D01*
X92535Y205003D01*
X93915Y208335D01*
X96465Y210885D01*
X99797Y212265D01*
X103403Y212265D01*
X106735Y210885D01*
X109285Y208335D01*
X110665Y205003D01*
X110665Y201397D01*
X109285Y198065D01*
X106735Y195515D01*
X103403Y194135D01*
X99797Y194135D01*
G37*
%LPD*%
%LPC*%
G36*
X125197Y54435D02*
X125197Y54435D01*
X121865Y55815D01*
X119315Y58365D01*
X117935Y61697D01*
X117935Y65303D01*
X119315Y68635D01*
X121865Y71185D01*
X125197Y72565D01*
X128803Y72565D01*
X132135Y71185D01*
X134685Y68635D01*
X136065Y65303D01*
X136065Y61697D01*
X134685Y58365D01*
X132135Y55815D01*
X128803Y54435D01*
X125197Y54435D01*
G37*
%LPD*%
%LPC*%
G36*
X239497Y181435D02*
X239497Y181435D01*
X236165Y182815D01*
X233615Y185365D01*
X232235Y188697D01*
X232235Y192303D01*
X233615Y195635D01*
X236165Y198185D01*
X239497Y199565D01*
X243103Y199565D01*
X246435Y198185D01*
X248985Y195635D01*
X250365Y192303D01*
X250365Y188697D01*
X248985Y185365D01*
X246435Y182815D01*
X243103Y181435D01*
X239497Y181435D01*
G37*
%LPD*%
%LPC*%
G36*
X404597Y181435D02*
X404597Y181435D01*
X401265Y182815D01*
X398715Y185365D01*
X397335Y188697D01*
X397335Y192303D01*
X398715Y195635D01*
X401265Y198185D01*
X404597Y199565D01*
X408203Y199565D01*
X411535Y198185D01*
X414085Y195635D01*
X415465Y192303D01*
X415465Y188697D01*
X414085Y185365D01*
X411535Y182815D01*
X408203Y181435D01*
X404597Y181435D01*
G37*
%LPD*%
%LPC*%
G36*
X214097Y181435D02*
X214097Y181435D01*
X210765Y182815D01*
X208215Y185365D01*
X206835Y188697D01*
X206835Y192303D01*
X208215Y195635D01*
X210765Y198185D01*
X214097Y199565D01*
X217703Y199565D01*
X221035Y198185D01*
X223585Y195635D01*
X224965Y192303D01*
X224965Y188697D01*
X223585Y185365D01*
X221035Y182815D01*
X217703Y181435D01*
X214097Y181435D01*
G37*
%LPD*%
%LPC*%
G36*
X99797Y168735D02*
X99797Y168735D01*
X96465Y170115D01*
X93915Y172665D01*
X92535Y175997D01*
X92535Y179603D01*
X93915Y182935D01*
X96465Y185485D01*
X99797Y186865D01*
X103403Y186865D01*
X106735Y185485D01*
X109285Y182935D01*
X110665Y179603D01*
X110665Y175997D01*
X109285Y172665D01*
X106735Y170115D01*
X103403Y168735D01*
X99797Y168735D01*
G37*
%LPD*%
%LPC*%
G36*
X449047Y92535D02*
X449047Y92535D01*
X445715Y93915D01*
X443165Y96465D01*
X441785Y99797D01*
X441785Y103403D01*
X443165Y106735D01*
X445715Y109285D01*
X449047Y110665D01*
X452653Y110665D01*
X455985Y109285D01*
X458535Y106735D01*
X459915Y103403D01*
X459915Y99797D01*
X458535Y96465D01*
X455985Y93915D01*
X452653Y92535D01*
X449047Y92535D01*
G37*
%LPD*%
%LPC*%
G36*
X404597Y156035D02*
X404597Y156035D01*
X401265Y157415D01*
X398715Y159965D01*
X397335Y163297D01*
X397335Y166903D01*
X398715Y170235D01*
X401265Y172785D01*
X404597Y174165D01*
X408203Y174165D01*
X411535Y172785D01*
X414085Y170235D01*
X415465Y166903D01*
X415465Y163297D01*
X414085Y159965D01*
X411535Y157415D01*
X408203Y156035D01*
X404597Y156035D01*
G37*
%LPD*%
%LPC*%
G36*
X449047Y143335D02*
X449047Y143335D01*
X445715Y144715D01*
X443165Y147265D01*
X441785Y150597D01*
X441785Y154203D01*
X443165Y157535D01*
X445715Y160085D01*
X449047Y161465D01*
X452653Y161465D01*
X455985Y160085D01*
X458535Y157535D01*
X459915Y154203D01*
X459915Y150597D01*
X458535Y147265D01*
X455985Y144715D01*
X452653Y143335D01*
X449047Y143335D01*
G37*
%LPD*%
%LPC*%
G36*
X474447Y143335D02*
X474447Y143335D01*
X471115Y144715D01*
X468565Y147265D01*
X467185Y150597D01*
X467185Y154203D01*
X468565Y157535D01*
X471115Y160085D01*
X474447Y161465D01*
X478053Y161465D01*
X481385Y160085D01*
X483935Y157535D01*
X485315Y154203D01*
X485315Y150597D01*
X483935Y147265D01*
X481385Y144715D01*
X478053Y143335D01*
X474447Y143335D01*
G37*
%LPD*%
%LPC*%
G36*
X99797Y143335D02*
X99797Y143335D01*
X96465Y144715D01*
X93915Y147265D01*
X92535Y150597D01*
X92535Y154203D01*
X93915Y157535D01*
X96465Y160085D01*
X99797Y161465D01*
X103403Y161465D01*
X106735Y160085D01*
X109285Y157535D01*
X110665Y154203D01*
X110665Y150597D01*
X109285Y147265D01*
X106735Y144715D01*
X103403Y143335D01*
X99797Y143335D01*
G37*
%LPD*%
%LPC*%
G36*
X474447Y117935D02*
X474447Y117935D01*
X471115Y119315D01*
X468565Y121865D01*
X467185Y125197D01*
X467185Y128803D01*
X468565Y132135D01*
X471115Y134685D01*
X474447Y136065D01*
X478053Y136065D01*
X481385Y134685D01*
X483935Y132135D01*
X485315Y128803D01*
X485315Y125197D01*
X483935Y121865D01*
X481385Y119315D01*
X478053Y117935D01*
X474447Y117935D01*
G37*
%LPD*%
%LPC*%
G36*
X449047Y117935D02*
X449047Y117935D01*
X445715Y119315D01*
X443165Y121865D01*
X441785Y125197D01*
X441785Y128803D01*
X443165Y132135D01*
X445715Y134685D01*
X449047Y136065D01*
X452653Y136065D01*
X455985Y134685D01*
X458535Y132135D01*
X459915Y128803D01*
X459915Y125197D01*
X458535Y121865D01*
X455985Y119315D01*
X452653Y117935D01*
X449047Y117935D01*
G37*
%LPD*%
%LPC*%
G36*
X521461Y213867D02*
X521461Y213867D01*
X521461Y222505D01*
X528358Y222505D01*
X529937Y222255D01*
X531458Y221760D01*
X532883Y221034D01*
X534177Y220094D01*
X535308Y218963D01*
X536248Y217669D01*
X536974Y216244D01*
X537469Y214723D01*
X537604Y213867D01*
X521461Y213867D01*
G37*
%LPD*%
%LPC*%
G36*
X586485Y213867D02*
X586485Y213867D01*
X586485Y222505D01*
X593382Y222505D01*
X594961Y222255D01*
X596482Y221760D01*
X597907Y221034D01*
X599201Y220094D01*
X600332Y218963D01*
X601272Y217669D01*
X601998Y216244D01*
X602493Y214723D01*
X602628Y213867D01*
X586485Y213867D01*
G37*
%LPD*%
%LPC*%
G36*
X567296Y213867D02*
X567296Y213867D01*
X567431Y214723D01*
X567926Y216244D01*
X568652Y217669D01*
X569592Y218963D01*
X570723Y220094D01*
X572017Y221034D01*
X573442Y221760D01*
X574963Y222255D01*
X576542Y222505D01*
X583439Y222505D01*
X583439Y213867D01*
X567296Y213867D01*
G37*
%LPD*%
%LPC*%
G36*
X502272Y213867D02*
X502272Y213867D01*
X502407Y214723D01*
X502902Y216244D01*
X503628Y217669D01*
X504568Y218963D01*
X505699Y220094D01*
X506993Y221034D01*
X508418Y221760D01*
X509939Y222255D01*
X511518Y222505D01*
X518415Y222505D01*
X518415Y213867D01*
X502272Y213867D01*
G37*
%LPD*%
%LPC*%
G36*
X521461Y202183D02*
X521461Y202183D01*
X521461Y210821D01*
X537604Y210821D01*
X537469Y209965D01*
X536974Y208444D01*
X536248Y207019D01*
X535308Y205725D01*
X534177Y204594D01*
X532883Y203654D01*
X531458Y202928D01*
X529937Y202433D01*
X528358Y202183D01*
X521461Y202183D01*
G37*
%LPD*%
%LPC*%
G36*
X586485Y202183D02*
X586485Y202183D01*
X586485Y210821D01*
X602628Y210821D01*
X602493Y209965D01*
X601998Y208444D01*
X601272Y207019D01*
X600332Y205725D01*
X599201Y204594D01*
X597907Y203654D01*
X596482Y202928D01*
X594961Y202433D01*
X593382Y202183D01*
X586485Y202183D01*
G37*
%LPD*%
%LPC*%
G36*
X511518Y202183D02*
X511518Y202183D01*
X509939Y202433D01*
X508418Y202928D01*
X506993Y203654D01*
X505699Y204594D01*
X504568Y205725D01*
X503628Y207019D01*
X502902Y208444D01*
X502407Y209965D01*
X502272Y210821D01*
X518415Y210821D01*
X518415Y202183D01*
X511518Y202183D01*
G37*
%LPD*%
%LPC*%
G36*
X576542Y202183D02*
X576542Y202183D01*
X574963Y202433D01*
X573442Y202928D01*
X572017Y203654D01*
X570723Y204594D01*
X569592Y205725D01*
X568652Y207019D01*
X567926Y208444D01*
X567431Y209965D01*
X567296Y210821D01*
X583439Y210821D01*
X583439Y202183D01*
X576542Y202183D01*
G37*
%LPD*%
%LPC*%
G36*
X452373Y179323D02*
X452373Y179323D01*
X452373Y187881D01*
X458724Y187881D01*
X459371Y187708D01*
X459950Y187373D01*
X460423Y186900D01*
X460758Y186321D01*
X460931Y185674D01*
X460931Y179323D01*
X452373Y179323D01*
G37*
%LPD*%
%LPC*%
G36*
X440769Y179323D02*
X440769Y179323D01*
X440769Y185674D01*
X440942Y186321D01*
X441277Y186900D01*
X441750Y187373D01*
X442329Y187708D01*
X442976Y187881D01*
X449327Y187881D01*
X449327Y179323D01*
X440769Y179323D01*
G37*
%LPD*%
%LPC*%
G36*
X452373Y167719D02*
X452373Y167719D01*
X452373Y176277D01*
X460931Y176277D01*
X460931Y169926D01*
X460758Y169279D01*
X460423Y168700D01*
X459950Y168227D01*
X459371Y167892D01*
X458724Y167719D01*
X452373Y167719D01*
G37*
%LPD*%
%LPC*%
G36*
X442976Y167719D02*
X442976Y167719D01*
X442329Y167892D01*
X441750Y168227D01*
X441277Y168700D01*
X440942Y169279D01*
X440769Y169926D01*
X440769Y176277D01*
X449327Y176277D01*
X449327Y167719D01*
X442976Y167719D01*
G37*
%LPD*%
%LPC*%
G36*
X153923Y217423D02*
X153923Y217423D01*
X153923Y225865D01*
X154761Y225733D01*
X156270Y225242D01*
X157683Y224522D01*
X158967Y223589D01*
X160089Y222467D01*
X161022Y221183D01*
X161742Y219770D01*
X162233Y218261D01*
X162365Y217423D01*
X153923Y217423D01*
G37*
%LPD*%
%LPC*%
G36*
X204723Y65023D02*
X204723Y65023D01*
X204723Y73465D01*
X205561Y73333D01*
X207070Y72842D01*
X208483Y72122D01*
X209767Y71189D01*
X210889Y70067D01*
X211822Y68783D01*
X212542Y67370D01*
X213033Y65861D01*
X213165Y65023D01*
X204723Y65023D01*
G37*
%LPD*%
%LPC*%
G36*
X407923Y141223D02*
X407923Y141223D01*
X407923Y149665D01*
X408761Y149533D01*
X410270Y149042D01*
X411683Y148322D01*
X412967Y147389D01*
X414089Y146267D01*
X415022Y144983D01*
X415742Y143570D01*
X416233Y142061D01*
X416365Y141223D01*
X407923Y141223D01*
G37*
%LPD*%
%LPC*%
G36*
X142435Y217423D02*
X142435Y217423D01*
X142567Y218261D01*
X143058Y219770D01*
X143778Y221183D01*
X144711Y222467D01*
X145833Y223589D01*
X147117Y224522D01*
X148530Y225242D01*
X150039Y225733D01*
X150877Y225865D01*
X150877Y217423D01*
X142435Y217423D01*
G37*
%LPD*%
%LPC*%
G36*
X153923Y214377D02*
X153923Y214377D01*
X162365Y214377D01*
X162233Y213539D01*
X161742Y212030D01*
X161022Y210617D01*
X160089Y209333D01*
X158967Y208211D01*
X157683Y207278D01*
X156270Y206558D01*
X154761Y206067D01*
X153923Y205935D01*
X153923Y214377D01*
G37*
%LPD*%
%LPC*%
G36*
X407923Y138177D02*
X407923Y138177D01*
X416365Y138177D01*
X416233Y137339D01*
X415742Y135830D01*
X415022Y134417D01*
X414089Y133133D01*
X412967Y132011D01*
X411683Y131078D01*
X410270Y130358D01*
X408761Y129867D01*
X407923Y129735D01*
X407923Y138177D01*
G37*
%LPD*%
%LPC*%
G36*
X193235Y65023D02*
X193235Y65023D01*
X193367Y65861D01*
X193858Y67370D01*
X194578Y68783D01*
X195511Y70067D01*
X196633Y71189D01*
X197917Y72122D01*
X199330Y72842D01*
X200839Y73333D01*
X201677Y73465D01*
X201677Y65023D01*
X193235Y65023D01*
G37*
%LPD*%
%LPC*%
G36*
X396435Y141223D02*
X396435Y141223D01*
X396567Y142061D01*
X397058Y143570D01*
X397778Y144983D01*
X398711Y146267D01*
X399833Y147389D01*
X401117Y148322D01*
X402530Y149042D01*
X404039Y149533D01*
X404877Y149665D01*
X404877Y141223D01*
X396435Y141223D01*
G37*
%LPD*%
%LPC*%
G36*
X204723Y61977D02*
X204723Y61977D01*
X213165Y61977D01*
X213033Y61139D01*
X212542Y59630D01*
X211822Y58217D01*
X210889Y56933D01*
X209767Y55811D01*
X208483Y54878D01*
X207070Y54158D01*
X205561Y53667D01*
X204723Y53535D01*
X204723Y61977D01*
G37*
%LPD*%
%LPC*%
G36*
X150039Y206067D02*
X150039Y206067D01*
X148530Y206558D01*
X147117Y207278D01*
X145833Y208211D01*
X144711Y209333D01*
X143778Y210617D01*
X143058Y212030D01*
X142567Y213539D01*
X142435Y214377D01*
X150877Y214377D01*
X150877Y205935D01*
X150039Y206067D01*
G37*
%LPD*%
%LPC*%
G36*
X404039Y129867D02*
X404039Y129867D01*
X402530Y130358D01*
X401117Y131078D01*
X399833Y132011D01*
X398711Y133133D01*
X397778Y134417D01*
X397058Y135830D01*
X396567Y137339D01*
X396435Y138177D01*
X404877Y138177D01*
X404877Y129735D01*
X404039Y129867D01*
G37*
%LPD*%
%LPC*%
G36*
X200839Y53667D02*
X200839Y53667D01*
X199330Y54158D01*
X197917Y54878D01*
X196633Y55811D01*
X195511Y56933D01*
X194578Y58217D01*
X193858Y59630D01*
X193367Y61139D01*
X193235Y61977D01*
X201677Y61977D01*
X201677Y53535D01*
X200839Y53667D01*
G37*
%LPD*%
%LPC*%
G36*
X152399Y215899D02*
X152399Y215899D01*
X152399Y215901D01*
X152401Y215901D01*
X152401Y215899D01*
X152399Y215899D01*
G37*
%LPD*%
%LPC*%
G36*
X584961Y212343D02*
X584961Y212343D01*
X584961Y212345D01*
X584963Y212345D01*
X584963Y212343D01*
X584961Y212343D01*
G37*
%LPD*%
%LPC*%
G36*
X519937Y212343D02*
X519937Y212343D01*
X519937Y212345D01*
X519939Y212345D01*
X519939Y212343D01*
X519937Y212343D01*
G37*
%LPD*%
%LPC*%
G36*
X406399Y139699D02*
X406399Y139699D01*
X406399Y139701D01*
X406401Y139701D01*
X406401Y139699D01*
X406399Y139699D01*
G37*
%LPD*%
%LPC*%
G36*
X450849Y177799D02*
X450849Y177799D01*
X450849Y177801D01*
X450851Y177801D01*
X450851Y177799D01*
X450849Y177799D01*
G37*
%LPD*%
%LPC*%
G36*
X203199Y63499D02*
X203199Y63499D01*
X203199Y63501D01*
X203201Y63501D01*
X203201Y63499D01*
X203199Y63499D01*
G37*
%LPD*%
D10*
X450850Y177800D03*
D11*
X476250Y101600D03*
X476250Y127000D03*
X476250Y152400D03*
X476250Y177800D03*
X450850Y152400D03*
X450850Y127000D03*
X450850Y101600D03*
D12*
X952500Y79375D03*
X800100Y79375D03*
X800100Y212725D03*
X952500Y212725D03*
D13*
X850900Y247650D03*
X876300Y247650D03*
X901700Y247650D03*
X977900Y146050D03*
X977900Y171450D03*
X977900Y120650D03*
X844550Y69850D03*
X908050Y69850D03*
X908050Y19050D03*
X844550Y19050D03*
D14*
X749300Y139700D03*
X29300Y139700D03*
D15*
X62230Y76200D02*
X77470Y76200D01*
X77470Y101600D02*
X62230Y101600D01*
X62230Y127000D02*
X77470Y127000D01*
X77470Y152400D02*
X62230Y152400D01*
X62230Y177800D02*
X77470Y177800D01*
X77470Y203200D02*
X62230Y203200D01*
D11*
X406400Y215900D03*
X381000Y215900D03*
X355600Y215900D03*
X330200Y215900D03*
X304800Y215900D03*
X279400Y215900D03*
X254000Y215900D03*
X228600Y215900D03*
X203200Y215900D03*
X177800Y215900D03*
X152400Y215900D03*
X127000Y215900D03*
X406400Y190500D03*
X406400Y165100D03*
X406400Y139700D03*
X101600Y203200D03*
X101600Y177800D03*
X101600Y152400D03*
X101600Y127000D03*
X101600Y101600D03*
X101600Y76200D03*
X215900Y190500D03*
X241300Y190500D03*
X406400Y63500D03*
X381000Y63500D03*
X355600Y63500D03*
X330200Y63500D03*
X304800Y63500D03*
X279400Y63500D03*
X228600Y63500D03*
X203200Y63500D03*
X152400Y63500D03*
X127000Y63500D03*
X177800Y63500D03*
X254000Y63500D03*
D15*
X512318Y257556D02*
X527558Y257556D01*
X527558Y212344D02*
X512318Y212344D01*
X577342Y257556D02*
X592582Y257556D01*
X592582Y212344D02*
X577342Y212344D01*
D16*
X260350Y31750D03*
X44450Y247650D03*
X152400Y247650D03*
X317500Y241300D03*
X152400Y31750D03*
X44450Y31750D03*
X463550Y63500D03*
X533400Y165100D03*
X641350Y184150D03*
X641350Y120650D03*
X577850Y63500D03*
X304800Y133350D03*
X196850Y133350D03*
X381000Y241300D03*
D17*
X381000Y215900D01*
X374650Y114300D02*
X476250Y12700D01*
D16*
X374650Y114300D03*
D17*
X476250Y12700D02*
X819150Y12700D01*
X844550Y38100D01*
X889000Y38100D01*
X908050Y19050D01*
X876300Y215900D02*
X876300Y247650D01*
X876300Y215900D02*
X869950Y209550D01*
X869950Y71403D01*
X817597Y19050D01*
X488950Y19050D01*
X406400Y101600D01*
D16*
X406400Y101600D03*
D17*
X603250Y241300D02*
X628650Y266700D01*
X425450Y241300D02*
X400050Y266700D01*
X304800Y266700D01*
X254000Y215900D01*
X425450Y241300D02*
X603250Y241300D01*
X628650Y266700D02*
X906601Y266700D01*
X920496Y252805D01*
X920496Y203454D02*
X977900Y146050D01*
X920496Y203454D02*
X920496Y252805D01*
D18*
X476250Y203200D02*
X476250Y177800D01*
X476250Y203200D02*
X508000Y234950D01*
X609600Y234950D01*
X635254Y260604D01*
X888746Y260604D01*
X901700Y247650D01*
X901700Y196850D01*
X977900Y120650D01*
D16*
X304800Y31750D03*
D17*
X304800Y63500D01*
D16*
X330200Y19050D03*
D17*
X330200Y63500D01*
D16*
X431800Y254000D03*
D17*
X444500Y266700D01*
X510794Y266700D02*
X519938Y257556D01*
X510794Y266700D02*
X444500Y266700D01*
X519938Y257556D02*
X529082Y266700D01*
X575818Y266700D02*
X584962Y257556D01*
X575818Y266700D02*
X529082Y266700D01*
M02*
