G04 EAGLE Gerber RS-274X export*
G75*
%MOMM*%
%FSLAX34Y34*%
%LPD*%
%IN*%
%IPPOS*%
%AMOC8*
5,1,8,0,0,1.08239X$1,22.5*%
G01*
%ADD10C,0.254000*%


D10*
X0Y25400D02*
X86Y23175D01*
X366Y20965D01*
X837Y18789D01*
X1496Y16662D01*
X2338Y14600D01*
X3357Y12619D01*
X4544Y10735D01*
X5891Y8962D01*
X7387Y7312D01*
X9021Y5800D01*
X10781Y4435D01*
X12654Y3229D01*
X14624Y2191D01*
X16677Y1329D01*
X18797Y649D01*
X20969Y156D01*
X23176Y-146D01*
X25400Y-254D01*
X977900Y-254D01*
X979893Y66D01*
X981851Y558D01*
X983759Y1220D01*
X985601Y2044D01*
X987365Y3027D01*
X989036Y4159D01*
X990602Y5433D01*
X992052Y6838D01*
X993373Y8365D01*
X994556Y10000D01*
X995593Y11733D01*
X996474Y13549D01*
X997193Y15435D01*
X997746Y17377D01*
X998127Y19360D01*
X998334Y21368D01*
X998365Y23386D01*
X998220Y25400D01*
X998220Y254000D01*
X998365Y256014D01*
X998334Y258032D01*
X998127Y260040D01*
X997746Y262023D01*
X997193Y263965D01*
X996474Y265851D01*
X995593Y267667D01*
X994556Y269400D01*
X993373Y271035D01*
X992052Y272562D01*
X990602Y273967D01*
X989036Y275241D01*
X987365Y276373D01*
X985601Y277356D01*
X983759Y278180D01*
X981851Y278842D01*
X979893Y279334D01*
X977900Y279654D01*
X25400Y279654D01*
X23176Y279546D01*
X20969Y279244D01*
X18797Y278751D01*
X16677Y278071D01*
X14624Y277209D01*
X12654Y276171D01*
X10781Y274965D01*
X9021Y273600D01*
X7387Y272088D01*
X5891Y270438D01*
X4544Y268665D01*
X3356Y266781D01*
X2338Y264800D01*
X1496Y262738D01*
X837Y260611D01*
X366Y258435D01*
X86Y256225D01*
X0Y254000D01*
X0Y25400D01*
M02*
