G04 EAGLE Gerber RS-274X export*
G75*
%MOMM*%
%FSLAX34Y34*%
%LPD*%
%INSilkscreen Top*%
%IPPOS*%
%AMOC8*
5,1,8,0,0,1.08239X$1,22.5*%
G01*
%ADD10C,0.076200*%
%ADD11C,0.152400*%
%ADD12C,0.127000*%
%ADD13C,0.101600*%
%ADD14C,0.203200*%
%ADD15R,0.300000X0.150000*%
%ADD16R,0.300000X0.300000*%
%ADD17C,0.050800*%


D10*
X717931Y257429D02*
X717931Y248031D01*
X722108Y248031D01*
X725140Y248031D02*
X725140Y248553D01*
X725662Y248553D01*
X725662Y248031D01*
X725140Y248031D01*
X729496Y250642D02*
X729496Y257429D01*
X729495Y250642D02*
X729497Y250541D01*
X729503Y250440D01*
X729513Y250339D01*
X729526Y250239D01*
X729544Y250139D01*
X729565Y250040D01*
X729591Y249942D01*
X729620Y249845D01*
X729652Y249749D01*
X729689Y249655D01*
X729729Y249562D01*
X729773Y249470D01*
X729820Y249381D01*
X729871Y249293D01*
X729925Y249207D01*
X729982Y249124D01*
X730042Y249042D01*
X730106Y248964D01*
X730172Y248887D01*
X730242Y248814D01*
X730314Y248743D01*
X730389Y248675D01*
X730467Y248610D01*
X730547Y248548D01*
X730629Y248489D01*
X730714Y248433D01*
X730801Y248381D01*
X730889Y248332D01*
X730980Y248286D01*
X731072Y248245D01*
X731166Y248206D01*
X731261Y248172D01*
X731357Y248141D01*
X731455Y248114D01*
X731553Y248090D01*
X731653Y248071D01*
X731753Y248055D01*
X731853Y248043D01*
X731954Y248035D01*
X732055Y248031D01*
X732157Y248031D01*
X732258Y248035D01*
X732359Y248043D01*
X732459Y248055D01*
X732559Y248071D01*
X732659Y248090D01*
X732757Y248114D01*
X732855Y248141D01*
X732951Y248172D01*
X733046Y248206D01*
X733140Y248245D01*
X733232Y248286D01*
X733323Y248332D01*
X733412Y248381D01*
X733498Y248433D01*
X733583Y248489D01*
X733665Y248548D01*
X733745Y248610D01*
X733823Y248675D01*
X733898Y248743D01*
X733970Y248814D01*
X734040Y248887D01*
X734106Y248964D01*
X734170Y249042D01*
X734230Y249124D01*
X734287Y249207D01*
X734341Y249293D01*
X734392Y249381D01*
X734439Y249470D01*
X734483Y249562D01*
X734523Y249655D01*
X734560Y249749D01*
X734592Y249845D01*
X734621Y249942D01*
X734647Y250040D01*
X734668Y250139D01*
X734686Y250239D01*
X734699Y250339D01*
X734709Y250440D01*
X734715Y250541D01*
X734717Y250642D01*
X734717Y257429D01*
X739381Y257429D02*
X739381Y248031D01*
X739381Y257429D02*
X741991Y257429D01*
X742092Y257427D01*
X742193Y257421D01*
X742294Y257411D01*
X742394Y257398D01*
X742494Y257380D01*
X742593Y257359D01*
X742691Y257333D01*
X742788Y257304D01*
X742884Y257272D01*
X742978Y257235D01*
X743071Y257195D01*
X743163Y257151D01*
X743252Y257104D01*
X743340Y257053D01*
X743426Y256999D01*
X743509Y256942D01*
X743591Y256882D01*
X743669Y256818D01*
X743746Y256752D01*
X743819Y256682D01*
X743890Y256610D01*
X743958Y256535D01*
X744023Y256457D01*
X744085Y256377D01*
X744144Y256295D01*
X744200Y256210D01*
X744252Y256123D01*
X744301Y256035D01*
X744347Y255944D01*
X744388Y255852D01*
X744427Y255758D01*
X744461Y255663D01*
X744492Y255567D01*
X744519Y255469D01*
X744543Y255371D01*
X744562Y255271D01*
X744578Y255171D01*
X744590Y255071D01*
X744598Y254970D01*
X744602Y254869D01*
X744602Y254767D01*
X744598Y254666D01*
X744590Y254565D01*
X744578Y254465D01*
X744562Y254365D01*
X744543Y254265D01*
X744519Y254167D01*
X744492Y254069D01*
X744461Y253973D01*
X744427Y253878D01*
X744388Y253784D01*
X744347Y253692D01*
X744301Y253601D01*
X744252Y253512D01*
X744200Y253426D01*
X744144Y253341D01*
X744085Y253259D01*
X744023Y253179D01*
X743958Y253101D01*
X743890Y253026D01*
X743819Y252954D01*
X743746Y252884D01*
X743669Y252818D01*
X743591Y252754D01*
X743509Y252694D01*
X743426Y252637D01*
X743340Y252583D01*
X743252Y252532D01*
X743163Y252485D01*
X743071Y252441D01*
X742978Y252401D01*
X742884Y252364D01*
X742788Y252332D01*
X742691Y252303D01*
X742593Y252277D01*
X742494Y252256D01*
X742394Y252238D01*
X742294Y252225D01*
X742193Y252215D01*
X742092Y252209D01*
X741991Y252207D01*
X741991Y252208D02*
X739381Y252208D01*
X676092Y253252D02*
X673481Y253252D01*
X676092Y253253D02*
X676193Y253251D01*
X676294Y253245D01*
X676395Y253235D01*
X676495Y253222D01*
X676595Y253204D01*
X676694Y253183D01*
X676792Y253157D01*
X676889Y253128D01*
X676985Y253096D01*
X677079Y253059D01*
X677172Y253019D01*
X677264Y252975D01*
X677353Y252928D01*
X677441Y252877D01*
X677527Y252823D01*
X677610Y252766D01*
X677692Y252706D01*
X677770Y252642D01*
X677847Y252576D01*
X677920Y252506D01*
X677991Y252434D01*
X678059Y252359D01*
X678124Y252281D01*
X678186Y252201D01*
X678245Y252119D01*
X678301Y252034D01*
X678353Y251947D01*
X678402Y251859D01*
X678448Y251768D01*
X678489Y251676D01*
X678528Y251582D01*
X678562Y251487D01*
X678593Y251391D01*
X678620Y251293D01*
X678644Y251195D01*
X678663Y251095D01*
X678679Y250995D01*
X678691Y250895D01*
X678699Y250794D01*
X678703Y250693D01*
X678703Y250591D01*
X678699Y250490D01*
X678691Y250389D01*
X678679Y250289D01*
X678663Y250189D01*
X678644Y250089D01*
X678620Y249991D01*
X678593Y249893D01*
X678562Y249797D01*
X678528Y249702D01*
X678489Y249608D01*
X678448Y249516D01*
X678402Y249425D01*
X678353Y249336D01*
X678301Y249250D01*
X678245Y249165D01*
X678186Y249083D01*
X678124Y249003D01*
X678059Y248925D01*
X677991Y248850D01*
X677920Y248778D01*
X677847Y248708D01*
X677770Y248642D01*
X677692Y248578D01*
X677610Y248518D01*
X677527Y248461D01*
X677441Y248407D01*
X677353Y248356D01*
X677264Y248309D01*
X677172Y248265D01*
X677079Y248225D01*
X676985Y248188D01*
X676889Y248156D01*
X676792Y248127D01*
X676694Y248101D01*
X676595Y248080D01*
X676495Y248062D01*
X676395Y248049D01*
X676294Y248039D01*
X676193Y248033D01*
X676092Y248031D01*
X673481Y248031D01*
X673481Y257429D01*
X676092Y257429D01*
X676182Y257427D01*
X676271Y257421D01*
X676361Y257412D01*
X676450Y257398D01*
X676538Y257381D01*
X676625Y257360D01*
X676712Y257335D01*
X676797Y257306D01*
X676881Y257274D01*
X676963Y257239D01*
X677044Y257199D01*
X677123Y257157D01*
X677200Y257111D01*
X677275Y257061D01*
X677348Y257009D01*
X677419Y256953D01*
X677487Y256895D01*
X677552Y256833D01*
X677615Y256769D01*
X677675Y256702D01*
X677732Y256633D01*
X677786Y256561D01*
X677837Y256487D01*
X677885Y256411D01*
X677929Y256333D01*
X677970Y256253D01*
X678008Y256171D01*
X678042Y256088D01*
X678072Y256003D01*
X678099Y255917D01*
X678122Y255831D01*
X678141Y255743D01*
X678156Y255654D01*
X678168Y255565D01*
X678176Y255476D01*
X678180Y255386D01*
X678180Y255296D01*
X678176Y255206D01*
X678168Y255117D01*
X678156Y255028D01*
X678141Y254939D01*
X678122Y254851D01*
X678099Y254765D01*
X678072Y254679D01*
X678042Y254594D01*
X678008Y254511D01*
X677970Y254429D01*
X677929Y254349D01*
X677885Y254271D01*
X677837Y254195D01*
X677786Y254121D01*
X677732Y254049D01*
X677675Y253980D01*
X677615Y253913D01*
X677552Y253849D01*
X677487Y253787D01*
X677419Y253729D01*
X677348Y253673D01*
X677275Y253621D01*
X677200Y253571D01*
X677123Y253525D01*
X677044Y253483D01*
X676963Y253443D01*
X676881Y253408D01*
X676797Y253376D01*
X676712Y253347D01*
X676625Y253322D01*
X676538Y253301D01*
X676450Y253284D01*
X676361Y253270D01*
X676271Y253261D01*
X676182Y253255D01*
X676092Y253253D01*
X681667Y248031D02*
X684799Y257429D01*
X687932Y248031D01*
X687149Y250381D02*
X682450Y250381D01*
X693334Y248031D02*
X693334Y257429D01*
X695944Y257429D02*
X690723Y257429D01*
X701259Y257429D02*
X701259Y248031D01*
X698648Y257429D02*
X703869Y257429D01*
X620508Y248031D02*
X618419Y248031D01*
X618330Y248033D01*
X618242Y248039D01*
X618154Y248048D01*
X618066Y248061D01*
X617979Y248078D01*
X617893Y248098D01*
X617808Y248123D01*
X617723Y248150D01*
X617640Y248182D01*
X617559Y248216D01*
X617479Y248255D01*
X617401Y248296D01*
X617324Y248341D01*
X617250Y248389D01*
X617177Y248440D01*
X617107Y248494D01*
X617040Y248552D01*
X616974Y248612D01*
X616912Y248674D01*
X616852Y248740D01*
X616794Y248807D01*
X616740Y248877D01*
X616689Y248950D01*
X616641Y249024D01*
X616596Y249101D01*
X616555Y249179D01*
X616516Y249259D01*
X616482Y249340D01*
X616450Y249423D01*
X616423Y249508D01*
X616398Y249593D01*
X616378Y249679D01*
X616361Y249766D01*
X616348Y249854D01*
X616339Y249942D01*
X616333Y250030D01*
X616331Y250119D01*
X616331Y255341D01*
X616333Y255432D01*
X616339Y255523D01*
X616349Y255614D01*
X616363Y255704D01*
X616380Y255793D01*
X616402Y255881D01*
X616428Y255969D01*
X616457Y256055D01*
X616490Y256140D01*
X616527Y256223D01*
X616567Y256305D01*
X616611Y256385D01*
X616658Y256463D01*
X616709Y256539D01*
X616762Y256612D01*
X616819Y256683D01*
X616880Y256752D01*
X616943Y256817D01*
X617008Y256880D01*
X617077Y256940D01*
X617148Y256998D01*
X617221Y257051D01*
X617297Y257102D01*
X617375Y257149D01*
X617455Y257193D01*
X617537Y257233D01*
X617620Y257270D01*
X617705Y257303D01*
X617791Y257332D01*
X617879Y257358D01*
X617967Y257380D01*
X618056Y257397D01*
X618146Y257411D01*
X618237Y257421D01*
X618328Y257427D01*
X618419Y257429D01*
X620508Y257429D01*
X623977Y254818D02*
X623977Y250642D01*
X623976Y254818D02*
X623978Y254919D01*
X623984Y255020D01*
X623994Y255121D01*
X624007Y255221D01*
X624025Y255321D01*
X624046Y255420D01*
X624072Y255518D01*
X624101Y255615D01*
X624133Y255711D01*
X624170Y255805D01*
X624210Y255898D01*
X624254Y255990D01*
X624301Y256079D01*
X624352Y256167D01*
X624406Y256253D01*
X624463Y256336D01*
X624523Y256418D01*
X624587Y256496D01*
X624653Y256573D01*
X624723Y256646D01*
X624795Y256717D01*
X624870Y256785D01*
X624948Y256850D01*
X625028Y256912D01*
X625110Y256971D01*
X625195Y257027D01*
X625282Y257079D01*
X625370Y257128D01*
X625461Y257174D01*
X625553Y257215D01*
X625647Y257254D01*
X625742Y257288D01*
X625838Y257319D01*
X625936Y257346D01*
X626034Y257370D01*
X626134Y257389D01*
X626234Y257405D01*
X626334Y257417D01*
X626435Y257425D01*
X626536Y257429D01*
X626638Y257429D01*
X626739Y257425D01*
X626840Y257417D01*
X626940Y257405D01*
X627040Y257389D01*
X627140Y257370D01*
X627238Y257346D01*
X627336Y257319D01*
X627432Y257288D01*
X627527Y257254D01*
X627621Y257215D01*
X627713Y257174D01*
X627804Y257128D01*
X627893Y257079D01*
X627979Y257027D01*
X628064Y256971D01*
X628146Y256912D01*
X628226Y256850D01*
X628304Y256785D01*
X628379Y256717D01*
X628451Y256646D01*
X628521Y256573D01*
X628587Y256496D01*
X628651Y256418D01*
X628711Y256336D01*
X628768Y256253D01*
X628822Y256167D01*
X628873Y256079D01*
X628920Y255990D01*
X628964Y255898D01*
X629004Y255805D01*
X629041Y255711D01*
X629073Y255615D01*
X629102Y255518D01*
X629128Y255420D01*
X629149Y255321D01*
X629167Y255221D01*
X629180Y255121D01*
X629190Y255020D01*
X629196Y254919D01*
X629198Y254818D01*
X629198Y250642D01*
X629196Y250541D01*
X629190Y250440D01*
X629180Y250339D01*
X629167Y250239D01*
X629149Y250139D01*
X629128Y250040D01*
X629102Y249942D01*
X629073Y249845D01*
X629041Y249749D01*
X629004Y249655D01*
X628964Y249562D01*
X628920Y249470D01*
X628873Y249381D01*
X628822Y249293D01*
X628768Y249207D01*
X628711Y249124D01*
X628651Y249042D01*
X628587Y248964D01*
X628521Y248887D01*
X628451Y248814D01*
X628379Y248743D01*
X628304Y248675D01*
X628226Y248610D01*
X628146Y248548D01*
X628064Y248489D01*
X627979Y248433D01*
X627893Y248381D01*
X627804Y248332D01*
X627713Y248286D01*
X627621Y248245D01*
X627527Y248206D01*
X627432Y248172D01*
X627336Y248141D01*
X627238Y248114D01*
X627140Y248090D01*
X627040Y248071D01*
X626940Y248055D01*
X626840Y248043D01*
X626739Y248035D01*
X626638Y248031D01*
X626536Y248031D01*
X626435Y248035D01*
X626334Y248043D01*
X626234Y248055D01*
X626134Y248071D01*
X626034Y248090D01*
X625936Y248114D01*
X625838Y248141D01*
X625742Y248172D01*
X625647Y248206D01*
X625553Y248245D01*
X625461Y248286D01*
X625370Y248332D01*
X625282Y248381D01*
X625195Y248433D01*
X625110Y248489D01*
X625028Y248548D01*
X624948Y248610D01*
X624870Y248675D01*
X624795Y248743D01*
X624723Y248814D01*
X624653Y248887D01*
X624587Y248964D01*
X624523Y249042D01*
X624463Y249124D01*
X624406Y249207D01*
X624352Y249293D01*
X624301Y249381D01*
X624254Y249470D01*
X624210Y249562D01*
X624170Y249655D01*
X624133Y249749D01*
X624101Y249845D01*
X624072Y249942D01*
X624046Y250040D01*
X624025Y250139D01*
X624007Y250239D01*
X623994Y250339D01*
X623984Y250440D01*
X623978Y250541D01*
X623976Y250642D01*
X633513Y248031D02*
X633513Y257429D01*
X636646Y252208D01*
X639778Y257429D01*
X639778Y248031D01*
X644486Y248031D02*
X644486Y257429D01*
X647618Y252208D01*
X650751Y257429D01*
X650751Y248031D01*
D11*
X182146Y255609D02*
X179437Y255609D01*
X179437Y255608D02*
X179333Y255606D01*
X179230Y255600D01*
X179126Y255590D01*
X179023Y255576D01*
X178921Y255558D01*
X178820Y255537D01*
X178719Y255511D01*
X178620Y255482D01*
X178521Y255449D01*
X178424Y255412D01*
X178329Y255371D01*
X178235Y255327D01*
X178143Y255279D01*
X178053Y255228D01*
X177964Y255173D01*
X177878Y255115D01*
X177795Y255053D01*
X177713Y254989D01*
X177635Y254921D01*
X177559Y254851D01*
X177485Y254778D01*
X177415Y254701D01*
X177347Y254623D01*
X177283Y254541D01*
X177221Y254458D01*
X177163Y254372D01*
X177108Y254283D01*
X177057Y254193D01*
X177009Y254101D01*
X176965Y254007D01*
X176924Y253912D01*
X176887Y253815D01*
X176854Y253716D01*
X176825Y253617D01*
X176799Y253516D01*
X176778Y253415D01*
X176760Y253313D01*
X176746Y253210D01*
X176736Y253106D01*
X176730Y253003D01*
X176728Y252899D01*
X176728Y247481D01*
X176730Y247378D01*
X176736Y247276D01*
X176745Y247174D01*
X176759Y247072D01*
X176776Y246971D01*
X176798Y246871D01*
X176823Y246772D01*
X176851Y246673D01*
X176884Y246576D01*
X176920Y246480D01*
X176959Y246385D01*
X177003Y246292D01*
X177049Y246201D01*
X177100Y246112D01*
X177153Y246024D01*
X177210Y245939D01*
X177270Y245856D01*
X177333Y245775D01*
X177399Y245696D01*
X177468Y245621D01*
X177540Y245547D01*
X177614Y245477D01*
X177691Y245409D01*
X177771Y245345D01*
X177853Y245283D01*
X177937Y245225D01*
X178024Y245170D01*
X178112Y245118D01*
X178203Y245070D01*
X178295Y245025D01*
X178388Y244983D01*
X178484Y244945D01*
X178580Y244911D01*
X178678Y244880D01*
X178777Y244854D01*
X178877Y244830D01*
X178978Y244811D01*
X179079Y244796D01*
X179181Y244784D01*
X179283Y244776D01*
X179386Y244772D01*
X179488Y244772D01*
X179591Y244776D01*
X179693Y244784D01*
X179795Y244796D01*
X179896Y244811D01*
X179997Y244830D01*
X180097Y244854D01*
X180196Y244880D01*
X180294Y244911D01*
X180390Y244945D01*
X180486Y244983D01*
X180579Y245025D01*
X180671Y245070D01*
X180762Y245118D01*
X180850Y245170D01*
X180937Y245225D01*
X181021Y245283D01*
X181103Y245345D01*
X181183Y245409D01*
X181260Y245477D01*
X181334Y245547D01*
X181406Y245621D01*
X181475Y245696D01*
X181541Y245775D01*
X181604Y245856D01*
X181664Y245939D01*
X181721Y246024D01*
X181774Y246112D01*
X181825Y246201D01*
X181871Y246292D01*
X181915Y246385D01*
X181954Y246480D01*
X181990Y246576D01*
X182023Y246673D01*
X182051Y246772D01*
X182076Y246871D01*
X182098Y246971D01*
X182115Y247072D01*
X182129Y247174D01*
X182138Y247276D01*
X182144Y247378D01*
X182146Y247481D01*
X182146Y247029D02*
X182146Y255609D01*
X182146Y247029D02*
X182148Y246936D01*
X182154Y246843D01*
X182163Y246750D01*
X182177Y246657D01*
X182194Y246566D01*
X182215Y246475D01*
X182240Y246385D01*
X182268Y246296D01*
X182300Y246208D01*
X182336Y246122D01*
X182375Y246037D01*
X182418Y245954D01*
X182464Y245873D01*
X182514Y245794D01*
X182566Y245717D01*
X182622Y245642D01*
X182681Y245570D01*
X182743Y245500D01*
X182807Y245432D01*
X182875Y245368D01*
X182945Y245306D01*
X183017Y245247D01*
X183092Y245191D01*
X183169Y245139D01*
X183248Y245089D01*
X183329Y245043D01*
X183412Y245000D01*
X183497Y244961D01*
X183583Y244925D01*
X183671Y244893D01*
X183760Y244865D01*
X183850Y244840D01*
X183941Y244819D01*
X184032Y244802D01*
X184125Y244788D01*
X184218Y244779D01*
X184311Y244773D01*
X184404Y244771D01*
X184497Y244773D01*
X184590Y244779D01*
X184683Y244788D01*
X184776Y244802D01*
X184867Y244819D01*
X184958Y244840D01*
X185048Y244865D01*
X185137Y244893D01*
X185225Y244925D01*
X185311Y244961D01*
X185396Y245000D01*
X185479Y245043D01*
X185560Y245089D01*
X185639Y245139D01*
X185716Y245191D01*
X185791Y245247D01*
X185863Y245306D01*
X185933Y245368D01*
X186001Y245432D01*
X186065Y245500D01*
X186127Y245570D01*
X186186Y245642D01*
X186242Y245717D01*
X186294Y245794D01*
X186344Y245873D01*
X186390Y245954D01*
X186433Y246037D01*
X186472Y246122D01*
X186508Y246208D01*
X186540Y246296D01*
X186568Y246385D01*
X186593Y246475D01*
X186614Y246566D01*
X186631Y246657D01*
X186645Y246750D01*
X186654Y246843D01*
X186660Y246936D01*
X186662Y247029D01*
X186662Y253802D01*
X186660Y253978D01*
X186653Y254154D01*
X186643Y254329D01*
X186628Y254505D01*
X186609Y254680D01*
X186585Y254854D01*
X186557Y255028D01*
X186525Y255201D01*
X186489Y255373D01*
X186449Y255544D01*
X186404Y255714D01*
X186356Y255884D01*
X186303Y256051D01*
X186246Y256218D01*
X186185Y256383D01*
X186120Y256547D01*
X186052Y256708D01*
X185979Y256869D01*
X185902Y257027D01*
X185822Y257184D01*
X185738Y257338D01*
X185650Y257490D01*
X185558Y257641D01*
X185463Y257789D01*
X185364Y257934D01*
X185261Y258077D01*
X185156Y258218D01*
X185046Y258356D01*
X184934Y258491D01*
X184818Y258623D01*
X184699Y258753D01*
X184577Y258880D01*
X184452Y259003D01*
X184324Y259124D01*
X184192Y259241D01*
X184059Y259355D01*
X183922Y259466D01*
X183783Y259574D01*
X183641Y259678D01*
X183497Y259779D01*
X183350Y259876D01*
X183201Y259969D01*
X183050Y260059D01*
X182896Y260145D01*
X182741Y260227D01*
X182583Y260306D01*
X182424Y260381D01*
X182263Y260452D01*
X182100Y260518D01*
X181936Y260581D01*
X181770Y260640D01*
X181603Y260695D01*
X181434Y260745D01*
X181264Y260792D01*
X181094Y260834D01*
X180922Y260873D01*
X180749Y260907D01*
X180576Y260937D01*
X180402Y260962D01*
X180227Y260984D01*
X180052Y261001D01*
X179877Y261014D01*
X179701Y261022D01*
X179525Y261026D01*
X179349Y261026D01*
X179173Y261022D01*
X178997Y261014D01*
X178822Y261001D01*
X178647Y260984D01*
X178472Y260962D01*
X178298Y260937D01*
X178125Y260907D01*
X177952Y260873D01*
X177780Y260834D01*
X177610Y260792D01*
X177440Y260745D01*
X177271Y260695D01*
X177104Y260640D01*
X176938Y260581D01*
X176774Y260518D01*
X176611Y260452D01*
X176450Y260381D01*
X176291Y260306D01*
X176133Y260227D01*
X175978Y260145D01*
X175825Y260059D01*
X175673Y259969D01*
X175524Y259876D01*
X175377Y259779D01*
X175233Y259678D01*
X175091Y259574D01*
X174952Y259466D01*
X174815Y259355D01*
X174682Y259241D01*
X174550Y259124D01*
X174422Y259003D01*
X174297Y258880D01*
X174175Y258753D01*
X174056Y258623D01*
X173940Y258491D01*
X173828Y258356D01*
X173718Y258218D01*
X173613Y258077D01*
X173510Y257934D01*
X173411Y257789D01*
X173316Y257641D01*
X173224Y257490D01*
X173136Y257338D01*
X173052Y257184D01*
X172972Y257027D01*
X172895Y256869D01*
X172822Y256708D01*
X172754Y256547D01*
X172689Y256383D01*
X172628Y256218D01*
X172571Y256051D01*
X172518Y255884D01*
X172470Y255714D01*
X172425Y255544D01*
X172385Y255373D01*
X172349Y255201D01*
X172317Y255028D01*
X172289Y254854D01*
X172265Y254680D01*
X172246Y254505D01*
X172231Y254329D01*
X172221Y254154D01*
X172214Y253978D01*
X172212Y253802D01*
X172212Y246126D01*
X172214Y245962D01*
X172220Y245797D01*
X172230Y245633D01*
X172244Y245469D01*
X172262Y245306D01*
X172284Y245143D01*
X172309Y244980D01*
X172339Y244819D01*
X172373Y244658D01*
X172410Y244498D01*
X172452Y244338D01*
X172497Y244180D01*
X172546Y244023D01*
X172599Y243868D01*
X172655Y243713D01*
X172716Y243560D01*
X172780Y243409D01*
X172847Y243259D01*
X172918Y243111D01*
X172993Y242964D01*
X173072Y242820D01*
X173153Y242677D01*
X173239Y242536D01*
X173327Y242398D01*
X173419Y242261D01*
X173515Y242127D01*
X173613Y241996D01*
X173715Y241866D01*
X173819Y241740D01*
X173927Y241615D01*
X174038Y241494D01*
X174152Y241375D01*
X174268Y241259D01*
X174387Y241146D01*
X174509Y241035D01*
X174634Y240928D01*
X174761Y240824D01*
X174891Y240723D01*
X175023Y240625D01*
X175157Y240530D01*
X175294Y240438D01*
X175433Y240350D01*
X175574Y240266D01*
X175717Y240184D01*
X175862Y240107D01*
X176008Y240032D01*
X176157Y239962D01*
X176307Y239894D01*
X176459Y239831D01*
X176612Y239771D01*
X176766Y239715D01*
X176922Y239663D01*
X177080Y239615D01*
X177238Y239570D01*
X177397Y239529D01*
X177557Y239492D01*
X177718Y239459D01*
X177880Y239430D01*
X178043Y239405D01*
X178206Y239384D01*
X178369Y239366D01*
X178533Y239353D01*
X192764Y252899D02*
X198182Y252899D01*
X194570Y258318D02*
X194570Y244771D01*
X194572Y244670D01*
X194578Y244569D01*
X194587Y244468D01*
X194600Y244367D01*
X194617Y244267D01*
X194638Y244168D01*
X194662Y244070D01*
X194690Y243973D01*
X194722Y243876D01*
X194757Y243781D01*
X194796Y243688D01*
X194838Y243596D01*
X194884Y243505D01*
X194933Y243417D01*
X194985Y243330D01*
X195041Y243245D01*
X195099Y243162D01*
X195161Y243082D01*
X195226Y243004D01*
X195293Y242928D01*
X195363Y242855D01*
X195436Y242785D01*
X195512Y242718D01*
X195590Y242653D01*
X195670Y242591D01*
X195753Y242533D01*
X195838Y242477D01*
X195925Y242425D01*
X196013Y242376D01*
X196104Y242330D01*
X196196Y242288D01*
X196289Y242249D01*
X196384Y242214D01*
X196481Y242182D01*
X196578Y242154D01*
X196676Y242130D01*
X196775Y242109D01*
X196875Y242092D01*
X196976Y242079D01*
X197077Y242070D01*
X197178Y242064D01*
X197279Y242062D01*
X198182Y242062D01*
X204760Y242062D02*
X204760Y252899D01*
X212888Y252899D01*
X212989Y252897D01*
X213090Y252891D01*
X213191Y252882D01*
X213292Y252869D01*
X213392Y252852D01*
X213491Y252831D01*
X213589Y252807D01*
X213686Y252779D01*
X213783Y252747D01*
X213878Y252712D01*
X213971Y252673D01*
X214063Y252631D01*
X214154Y252585D01*
X214243Y252536D01*
X214329Y252484D01*
X214414Y252428D01*
X214497Y252370D01*
X214577Y252308D01*
X214655Y252243D01*
X214731Y252176D01*
X214804Y252106D01*
X214874Y252033D01*
X214941Y251957D01*
X215006Y251879D01*
X215068Y251799D01*
X215126Y251716D01*
X215182Y251631D01*
X215234Y251545D01*
X215283Y251456D01*
X215329Y251365D01*
X215371Y251273D01*
X215410Y251180D01*
X215445Y251085D01*
X215477Y250988D01*
X215505Y250891D01*
X215529Y250793D01*
X215550Y250694D01*
X215567Y250594D01*
X215580Y250493D01*
X215589Y250392D01*
X215595Y250291D01*
X215597Y250190D01*
X215597Y242062D01*
X210178Y242062D02*
X210178Y252899D01*
X223312Y252899D02*
X223312Y236643D01*
X223312Y252899D02*
X227828Y252899D01*
X227932Y252897D01*
X228035Y252891D01*
X228139Y252881D01*
X228242Y252867D01*
X228344Y252849D01*
X228445Y252828D01*
X228546Y252802D01*
X228645Y252773D01*
X228744Y252740D01*
X228841Y252703D01*
X228936Y252662D01*
X229030Y252618D01*
X229122Y252570D01*
X229212Y252519D01*
X229301Y252464D01*
X229387Y252406D01*
X229470Y252344D01*
X229552Y252280D01*
X229630Y252212D01*
X229706Y252142D01*
X229780Y252069D01*
X229850Y251992D01*
X229918Y251914D01*
X229982Y251832D01*
X230044Y251749D01*
X230102Y251663D01*
X230157Y251574D01*
X230208Y251484D01*
X230256Y251392D01*
X230300Y251298D01*
X230341Y251203D01*
X230378Y251106D01*
X230411Y251007D01*
X230440Y250908D01*
X230466Y250807D01*
X230487Y250706D01*
X230505Y250604D01*
X230519Y250501D01*
X230529Y250397D01*
X230535Y250294D01*
X230537Y250190D01*
X230537Y244771D01*
X230535Y244670D01*
X230529Y244569D01*
X230520Y244468D01*
X230507Y244367D01*
X230490Y244267D01*
X230469Y244168D01*
X230445Y244070D01*
X230417Y243973D01*
X230385Y243876D01*
X230350Y243781D01*
X230311Y243688D01*
X230269Y243596D01*
X230223Y243505D01*
X230174Y243416D01*
X230122Y243330D01*
X230066Y243245D01*
X230008Y243162D01*
X229946Y243082D01*
X229881Y243004D01*
X229814Y242928D01*
X229744Y242855D01*
X229671Y242785D01*
X229595Y242718D01*
X229517Y242653D01*
X229437Y242591D01*
X229354Y242533D01*
X229269Y242477D01*
X229183Y242425D01*
X229094Y242376D01*
X229003Y242330D01*
X228911Y242288D01*
X228818Y242249D01*
X228723Y242214D01*
X228626Y242182D01*
X228529Y242154D01*
X228431Y242130D01*
X228332Y242109D01*
X228232Y242092D01*
X228131Y242079D01*
X228030Y242070D01*
X227929Y242064D01*
X227828Y242062D01*
X223312Y242062D01*
X235489Y252899D02*
X240908Y252899D01*
X237295Y258318D02*
X237295Y244771D01*
X237297Y244670D01*
X237303Y244569D01*
X237312Y244468D01*
X237325Y244367D01*
X237342Y244267D01*
X237363Y244168D01*
X237387Y244070D01*
X237415Y243973D01*
X237447Y243876D01*
X237482Y243781D01*
X237521Y243688D01*
X237563Y243596D01*
X237609Y243505D01*
X237658Y243417D01*
X237710Y243330D01*
X237766Y243245D01*
X237824Y243162D01*
X237886Y243082D01*
X237951Y243004D01*
X238018Y242928D01*
X238088Y242855D01*
X238161Y242785D01*
X238237Y242718D01*
X238315Y242653D01*
X238395Y242591D01*
X238478Y242533D01*
X238563Y242477D01*
X238650Y242425D01*
X238738Y242376D01*
X238829Y242330D01*
X238921Y242288D01*
X239014Y242249D01*
X239109Y242214D01*
X239206Y242182D01*
X239303Y242154D01*
X239401Y242130D01*
X239500Y242109D01*
X239600Y242092D01*
X239701Y242079D01*
X239802Y242070D01*
X239903Y242064D01*
X240004Y242062D01*
X240908Y242062D01*
X246686Y245674D02*
X246686Y249287D01*
X246688Y249406D01*
X246694Y249526D01*
X246704Y249645D01*
X246718Y249763D01*
X246735Y249882D01*
X246757Y249999D01*
X246782Y250116D01*
X246812Y250231D01*
X246845Y250346D01*
X246882Y250460D01*
X246922Y250572D01*
X246967Y250683D01*
X247015Y250792D01*
X247066Y250900D01*
X247121Y251006D01*
X247180Y251110D01*
X247242Y251212D01*
X247307Y251312D01*
X247376Y251410D01*
X247448Y251506D01*
X247523Y251599D01*
X247600Y251689D01*
X247681Y251777D01*
X247765Y251862D01*
X247852Y251944D01*
X247941Y252024D01*
X248033Y252100D01*
X248127Y252174D01*
X248224Y252244D01*
X248322Y252311D01*
X248423Y252375D01*
X248527Y252435D01*
X248632Y252492D01*
X248739Y252545D01*
X248847Y252595D01*
X248957Y252641D01*
X249069Y252683D01*
X249182Y252722D01*
X249296Y252757D01*
X249411Y252788D01*
X249528Y252816D01*
X249645Y252839D01*
X249762Y252859D01*
X249881Y252875D01*
X250000Y252887D01*
X250119Y252895D01*
X250238Y252899D01*
X250358Y252899D01*
X250477Y252895D01*
X250596Y252887D01*
X250715Y252875D01*
X250834Y252859D01*
X250951Y252839D01*
X251068Y252816D01*
X251185Y252788D01*
X251300Y252757D01*
X251414Y252722D01*
X251527Y252683D01*
X251639Y252641D01*
X251749Y252595D01*
X251857Y252545D01*
X251964Y252492D01*
X252069Y252435D01*
X252173Y252375D01*
X252274Y252311D01*
X252372Y252244D01*
X252469Y252174D01*
X252563Y252100D01*
X252655Y252024D01*
X252744Y251944D01*
X252831Y251862D01*
X252915Y251777D01*
X252996Y251689D01*
X253073Y251599D01*
X253148Y251506D01*
X253220Y251410D01*
X253289Y251312D01*
X253354Y251212D01*
X253416Y251110D01*
X253475Y251006D01*
X253530Y250900D01*
X253581Y250792D01*
X253629Y250683D01*
X253674Y250572D01*
X253714Y250460D01*
X253751Y250346D01*
X253784Y250231D01*
X253814Y250116D01*
X253839Y249999D01*
X253861Y249882D01*
X253878Y249763D01*
X253892Y249645D01*
X253902Y249526D01*
X253908Y249406D01*
X253910Y249287D01*
X253911Y249287D02*
X253911Y245674D01*
X253910Y245674D02*
X253908Y245555D01*
X253902Y245435D01*
X253892Y245316D01*
X253878Y245198D01*
X253861Y245079D01*
X253839Y244962D01*
X253814Y244845D01*
X253784Y244730D01*
X253751Y244615D01*
X253714Y244501D01*
X253674Y244389D01*
X253629Y244278D01*
X253581Y244169D01*
X253530Y244061D01*
X253475Y243955D01*
X253416Y243851D01*
X253354Y243749D01*
X253289Y243649D01*
X253220Y243551D01*
X253148Y243455D01*
X253073Y243362D01*
X252996Y243272D01*
X252915Y243184D01*
X252831Y243099D01*
X252744Y243017D01*
X252655Y242937D01*
X252563Y242861D01*
X252469Y242787D01*
X252372Y242717D01*
X252274Y242650D01*
X252173Y242586D01*
X252069Y242526D01*
X251964Y242469D01*
X251857Y242416D01*
X251749Y242366D01*
X251639Y242320D01*
X251527Y242278D01*
X251414Y242239D01*
X251300Y242204D01*
X251185Y242173D01*
X251068Y242145D01*
X250951Y242122D01*
X250834Y242102D01*
X250715Y242086D01*
X250596Y242074D01*
X250477Y242066D01*
X250358Y242062D01*
X250238Y242062D01*
X250119Y242066D01*
X250000Y242074D01*
X249881Y242086D01*
X249762Y242102D01*
X249645Y242122D01*
X249528Y242145D01*
X249411Y242173D01*
X249296Y242204D01*
X249182Y242239D01*
X249069Y242278D01*
X248957Y242320D01*
X248847Y242366D01*
X248739Y242416D01*
X248632Y242469D01*
X248527Y242526D01*
X248423Y242586D01*
X248322Y242650D01*
X248224Y242717D01*
X248127Y242787D01*
X248033Y242861D01*
X247941Y242937D01*
X247852Y243017D01*
X247765Y243099D01*
X247681Y243184D01*
X247600Y243272D01*
X247523Y243362D01*
X247448Y243455D01*
X247376Y243551D01*
X247307Y243649D01*
X247242Y243749D01*
X247180Y243851D01*
X247121Y243955D01*
X247066Y244061D01*
X247015Y244169D01*
X246967Y244278D01*
X246922Y244389D01*
X246882Y244501D01*
X246845Y244615D01*
X246812Y244730D01*
X246782Y244845D01*
X246757Y244962D01*
X246735Y245079D01*
X246718Y245198D01*
X246704Y245316D01*
X246694Y245435D01*
X246688Y245555D01*
X246686Y245674D01*
X260839Y242062D02*
X260839Y252899D01*
X266258Y252899D01*
X266258Y251093D01*
X271781Y252899D02*
X271781Y242062D01*
X271781Y252899D02*
X277199Y252899D01*
X277199Y251093D01*
X284826Y242062D02*
X289342Y242062D01*
X284826Y242062D02*
X284725Y242064D01*
X284624Y242070D01*
X284523Y242079D01*
X284422Y242092D01*
X284322Y242109D01*
X284223Y242130D01*
X284125Y242154D01*
X284028Y242182D01*
X283931Y242214D01*
X283836Y242249D01*
X283743Y242288D01*
X283651Y242330D01*
X283560Y242376D01*
X283472Y242425D01*
X283385Y242477D01*
X283300Y242533D01*
X283217Y242591D01*
X283137Y242653D01*
X283059Y242718D01*
X282983Y242785D01*
X282910Y242855D01*
X282840Y242928D01*
X282773Y243004D01*
X282708Y243082D01*
X282646Y243162D01*
X282588Y243245D01*
X282532Y243330D01*
X282480Y243417D01*
X282431Y243505D01*
X282385Y243596D01*
X282343Y243688D01*
X282304Y243781D01*
X282269Y243876D01*
X282237Y243973D01*
X282209Y244070D01*
X282185Y244168D01*
X282164Y244267D01*
X282147Y244367D01*
X282134Y244468D01*
X282125Y244569D01*
X282119Y244670D01*
X282117Y244771D01*
X282117Y249287D01*
X282119Y249406D01*
X282125Y249526D01*
X282135Y249645D01*
X282149Y249763D01*
X282166Y249882D01*
X282188Y249999D01*
X282213Y250116D01*
X282243Y250231D01*
X282276Y250346D01*
X282313Y250460D01*
X282353Y250572D01*
X282398Y250683D01*
X282446Y250792D01*
X282497Y250900D01*
X282552Y251006D01*
X282611Y251110D01*
X282673Y251212D01*
X282738Y251312D01*
X282807Y251410D01*
X282879Y251506D01*
X282954Y251599D01*
X283031Y251689D01*
X283112Y251777D01*
X283196Y251862D01*
X283283Y251944D01*
X283372Y252024D01*
X283464Y252100D01*
X283558Y252174D01*
X283655Y252244D01*
X283753Y252311D01*
X283854Y252375D01*
X283958Y252435D01*
X284063Y252492D01*
X284170Y252545D01*
X284278Y252595D01*
X284388Y252641D01*
X284500Y252683D01*
X284613Y252722D01*
X284727Y252757D01*
X284842Y252788D01*
X284959Y252816D01*
X285076Y252839D01*
X285193Y252859D01*
X285312Y252875D01*
X285431Y252887D01*
X285550Y252895D01*
X285669Y252899D01*
X285789Y252899D01*
X285908Y252895D01*
X286027Y252887D01*
X286146Y252875D01*
X286265Y252859D01*
X286382Y252839D01*
X286499Y252816D01*
X286616Y252788D01*
X286731Y252757D01*
X286845Y252722D01*
X286958Y252683D01*
X287070Y252641D01*
X287180Y252595D01*
X287288Y252545D01*
X287395Y252492D01*
X287500Y252435D01*
X287604Y252375D01*
X287705Y252311D01*
X287803Y252244D01*
X287900Y252174D01*
X287994Y252100D01*
X288086Y252024D01*
X288175Y251944D01*
X288262Y251862D01*
X288346Y251777D01*
X288427Y251689D01*
X288504Y251599D01*
X288579Y251506D01*
X288651Y251410D01*
X288720Y251312D01*
X288785Y251212D01*
X288847Y251110D01*
X288906Y251006D01*
X288961Y250900D01*
X289012Y250792D01*
X289060Y250683D01*
X289105Y250572D01*
X289145Y250460D01*
X289182Y250346D01*
X289215Y250231D01*
X289245Y250116D01*
X289270Y249999D01*
X289292Y249882D01*
X289309Y249763D01*
X289323Y249645D01*
X289333Y249526D01*
X289339Y249406D01*
X289341Y249287D01*
X289342Y249287D02*
X289342Y247481D01*
X282117Y247481D01*
X297018Y248384D02*
X301534Y246578D01*
X297018Y248384D02*
X296930Y248421D01*
X296844Y248462D01*
X296759Y248506D01*
X296676Y248554D01*
X296596Y248605D01*
X296517Y248659D01*
X296441Y248717D01*
X296367Y248777D01*
X296295Y248841D01*
X296227Y248907D01*
X296161Y248977D01*
X296098Y249048D01*
X296037Y249123D01*
X295980Y249199D01*
X295927Y249278D01*
X295876Y249359D01*
X295829Y249442D01*
X295785Y249527D01*
X295745Y249614D01*
X295708Y249702D01*
X295675Y249792D01*
X295645Y249883D01*
X295620Y249975D01*
X295598Y250068D01*
X295580Y250162D01*
X295565Y250256D01*
X295555Y250351D01*
X295549Y250447D01*
X295546Y250542D01*
X295547Y250638D01*
X295553Y250733D01*
X295562Y250829D01*
X295575Y250923D01*
X295591Y251017D01*
X295612Y251111D01*
X295637Y251203D01*
X295665Y251294D01*
X295697Y251384D01*
X295732Y251473D01*
X295771Y251560D01*
X295814Y251646D01*
X295860Y251730D01*
X295910Y251811D01*
X295962Y251891D01*
X296018Y251969D01*
X296078Y252044D01*
X296140Y252116D01*
X296205Y252186D01*
X296273Y252254D01*
X296343Y252318D01*
X296416Y252380D01*
X296492Y252438D01*
X296570Y252494D01*
X296650Y252546D01*
X296732Y252595D01*
X296816Y252640D01*
X296902Y252682D01*
X296989Y252721D01*
X297078Y252756D01*
X297169Y252787D01*
X297260Y252814D01*
X297353Y252838D01*
X297446Y252858D01*
X297540Y252874D01*
X297635Y252886D01*
X297730Y252895D01*
X297826Y252899D01*
X297921Y252900D01*
X298168Y252893D01*
X298414Y252881D01*
X298660Y252863D01*
X298906Y252838D01*
X299150Y252808D01*
X299394Y252772D01*
X299637Y252731D01*
X299879Y252683D01*
X300120Y252629D01*
X300359Y252570D01*
X300597Y252505D01*
X300833Y252434D01*
X301068Y252358D01*
X301301Y252276D01*
X301531Y252188D01*
X301759Y252095D01*
X301986Y251997D01*
X301534Y246577D02*
X301622Y246540D01*
X301708Y246499D01*
X301793Y246455D01*
X301876Y246407D01*
X301956Y246356D01*
X302035Y246302D01*
X302111Y246244D01*
X302185Y246184D01*
X302257Y246120D01*
X302325Y246054D01*
X302391Y245984D01*
X302454Y245913D01*
X302515Y245838D01*
X302572Y245762D01*
X302625Y245683D01*
X302676Y245602D01*
X302723Y245519D01*
X302767Y245434D01*
X302807Y245347D01*
X302844Y245259D01*
X302877Y245169D01*
X302907Y245078D01*
X302932Y244986D01*
X302954Y244893D01*
X302972Y244799D01*
X302987Y244705D01*
X302997Y244610D01*
X303003Y244514D01*
X303006Y244419D01*
X303005Y244323D01*
X302999Y244228D01*
X302990Y244132D01*
X302977Y244038D01*
X302961Y243944D01*
X302940Y243850D01*
X302915Y243758D01*
X302887Y243667D01*
X302855Y243577D01*
X302820Y243488D01*
X302781Y243401D01*
X302738Y243315D01*
X302692Y243231D01*
X302642Y243150D01*
X302590Y243070D01*
X302534Y242992D01*
X302474Y242917D01*
X302412Y242845D01*
X302347Y242775D01*
X302279Y242707D01*
X302209Y242643D01*
X302136Y242581D01*
X302060Y242523D01*
X301982Y242467D01*
X301902Y242415D01*
X301820Y242366D01*
X301736Y242321D01*
X301650Y242279D01*
X301563Y242240D01*
X301474Y242205D01*
X301383Y242174D01*
X301292Y242147D01*
X301199Y242123D01*
X301106Y242103D01*
X301012Y242087D01*
X300917Y242075D01*
X300822Y242066D01*
X300726Y242062D01*
X300631Y242061D01*
X300631Y242062D02*
X300269Y242071D01*
X299907Y242089D01*
X299546Y242116D01*
X299186Y242151D01*
X298826Y242194D01*
X298467Y242246D01*
X298110Y242307D01*
X297755Y242376D01*
X297401Y242453D01*
X297049Y242539D01*
X296699Y242633D01*
X296351Y242736D01*
X296006Y242846D01*
X295664Y242965D01*
D12*
X434086Y194310D02*
X659130Y194310D01*
X724154Y194310D01*
X724154Y44450D01*
X659130Y44450D01*
X434086Y44450D01*
X434086Y194310D01*
X438150Y184150D02*
X444500Y190500D01*
X482600Y190500D01*
X488950Y184150D01*
X488950Y171450D01*
X482600Y165100D01*
X488950Y158750D01*
X488950Y146050D01*
X482600Y139700D01*
X488950Y133350D01*
X488950Y120650D01*
X482600Y114300D01*
X488950Y107950D01*
X488950Y95250D01*
X482600Y88900D01*
X469900Y88900D01*
X463550Y95250D01*
X457200Y88900D01*
X444500Y88900D01*
X438150Y95250D01*
X438150Y107950D01*
X444500Y114300D01*
X438150Y120650D01*
X438150Y133350D01*
X444500Y139700D01*
X438150Y146050D01*
X438150Y158750D01*
X444500Y165100D01*
X438150Y171450D01*
X438150Y184150D01*
X659130Y194310D02*
X659130Y44450D01*
D11*
X682752Y73007D02*
X699008Y67589D01*
X699008Y78426D02*
X682752Y73007D01*
X694944Y77071D02*
X694944Y68943D01*
X699008Y84644D02*
X682752Y84644D01*
X699008Y93675D01*
X682752Y93675D01*
X682752Y104270D02*
X699008Y104270D01*
X682752Y99754D02*
X682752Y108785D01*
X699008Y114894D02*
X699008Y122119D01*
X699008Y114894D02*
X682752Y114894D01*
X682752Y122119D01*
X689977Y120313D02*
X689977Y114894D01*
X682752Y128412D02*
X699008Y128412D01*
X699008Y137443D02*
X682752Y128412D01*
X682752Y137443D02*
X699008Y137443D01*
X699008Y145085D02*
X682752Y145085D01*
X699008Y154116D01*
X682752Y154116D01*
X682752Y165753D02*
X699008Y160334D01*
X699008Y171171D02*
X682752Y165753D01*
X694944Y169817D02*
X694944Y161689D01*
D13*
X523043Y126492D02*
X523043Y114808D01*
X529534Y114808D02*
X523043Y126492D01*
X529534Y126492D02*
X529534Y114808D01*
X535308Y114808D02*
X535308Y126492D01*
X538554Y126492D01*
X538667Y126490D01*
X538780Y126484D01*
X538893Y126474D01*
X539006Y126460D01*
X539118Y126443D01*
X539229Y126421D01*
X539339Y126396D01*
X539449Y126366D01*
X539557Y126333D01*
X539664Y126296D01*
X539770Y126256D01*
X539874Y126211D01*
X539977Y126163D01*
X540078Y126112D01*
X540177Y126057D01*
X540274Y125999D01*
X540369Y125937D01*
X540462Y125872D01*
X540552Y125804D01*
X540640Y125733D01*
X540726Y125658D01*
X540809Y125581D01*
X540889Y125501D01*
X540966Y125418D01*
X541041Y125332D01*
X541112Y125244D01*
X541180Y125154D01*
X541245Y125061D01*
X541307Y124966D01*
X541365Y124869D01*
X541420Y124770D01*
X541471Y124669D01*
X541519Y124566D01*
X541564Y124462D01*
X541604Y124356D01*
X541641Y124249D01*
X541674Y124141D01*
X541704Y124031D01*
X541729Y123921D01*
X541751Y123810D01*
X541768Y123698D01*
X541782Y123585D01*
X541792Y123472D01*
X541798Y123359D01*
X541800Y123246D01*
X541798Y123133D01*
X541792Y123020D01*
X541782Y122907D01*
X541768Y122794D01*
X541751Y122682D01*
X541729Y122571D01*
X541704Y122461D01*
X541674Y122351D01*
X541641Y122243D01*
X541604Y122136D01*
X541564Y122030D01*
X541519Y121926D01*
X541471Y121823D01*
X541420Y121722D01*
X541365Y121623D01*
X541307Y121526D01*
X541245Y121431D01*
X541180Y121338D01*
X541112Y121248D01*
X541041Y121160D01*
X540966Y121074D01*
X540889Y120991D01*
X540809Y120911D01*
X540726Y120834D01*
X540640Y120759D01*
X540552Y120688D01*
X540462Y120620D01*
X540369Y120555D01*
X540274Y120493D01*
X540177Y120435D01*
X540078Y120380D01*
X539977Y120329D01*
X539874Y120281D01*
X539770Y120236D01*
X539664Y120196D01*
X539557Y120159D01*
X539449Y120126D01*
X539339Y120096D01*
X539229Y120071D01*
X539118Y120049D01*
X539006Y120032D01*
X538893Y120018D01*
X538780Y120008D01*
X538667Y120002D01*
X538554Y120000D01*
X538554Y120001D02*
X535308Y120001D01*
X539203Y120001D02*
X541799Y114808D01*
X547068Y114808D02*
X547068Y126492D01*
X552261Y126492D01*
X552261Y121299D02*
X547068Y121299D01*
X560141Y126492D02*
X560248Y126490D01*
X560354Y126484D01*
X560460Y126474D01*
X560566Y126461D01*
X560672Y126443D01*
X560776Y126422D01*
X560880Y126397D01*
X560983Y126368D01*
X561084Y126336D01*
X561184Y126299D01*
X561283Y126259D01*
X561381Y126216D01*
X561477Y126169D01*
X561571Y126118D01*
X561663Y126064D01*
X561753Y126007D01*
X561841Y125947D01*
X561926Y125883D01*
X562009Y125816D01*
X562090Y125746D01*
X562168Y125674D01*
X562244Y125598D01*
X562316Y125520D01*
X562386Y125439D01*
X562453Y125356D01*
X562517Y125271D01*
X562577Y125183D01*
X562634Y125093D01*
X562688Y125001D01*
X562739Y124907D01*
X562786Y124811D01*
X562829Y124713D01*
X562869Y124614D01*
X562906Y124514D01*
X562938Y124413D01*
X562967Y124310D01*
X562992Y124206D01*
X563013Y124102D01*
X563031Y123996D01*
X563044Y123890D01*
X563054Y123784D01*
X563060Y123678D01*
X563062Y123571D01*
X560141Y126492D02*
X560020Y126490D01*
X559899Y126484D01*
X559779Y126474D01*
X559658Y126461D01*
X559539Y126443D01*
X559419Y126422D01*
X559301Y126397D01*
X559184Y126368D01*
X559067Y126335D01*
X558952Y126299D01*
X558838Y126258D01*
X558725Y126215D01*
X558613Y126167D01*
X558504Y126116D01*
X558396Y126061D01*
X558289Y126003D01*
X558185Y125942D01*
X558083Y125877D01*
X557983Y125809D01*
X557885Y125738D01*
X557789Y125664D01*
X557696Y125587D01*
X557606Y125506D01*
X557518Y125423D01*
X557433Y125337D01*
X557350Y125248D01*
X557271Y125157D01*
X557194Y125063D01*
X557121Y124967D01*
X557051Y124869D01*
X556984Y124768D01*
X556920Y124665D01*
X556860Y124560D01*
X556803Y124453D01*
X556749Y124345D01*
X556699Y124235D01*
X556653Y124123D01*
X556610Y124010D01*
X556571Y123895D01*
X562088Y121299D02*
X562167Y121376D01*
X562243Y121457D01*
X562316Y121540D01*
X562386Y121625D01*
X562453Y121713D01*
X562517Y121803D01*
X562577Y121895D01*
X562634Y121990D01*
X562688Y122086D01*
X562739Y122184D01*
X562786Y122284D01*
X562830Y122386D01*
X562870Y122489D01*
X562906Y122593D01*
X562938Y122699D01*
X562967Y122805D01*
X562992Y122913D01*
X563014Y123021D01*
X563031Y123131D01*
X563045Y123240D01*
X563054Y123350D01*
X563060Y123461D01*
X563062Y123571D01*
X562088Y121299D02*
X556570Y114808D01*
X563062Y114808D01*
X568000Y117404D02*
X570597Y126492D01*
X568000Y117404D02*
X574492Y117404D01*
X572544Y114808D02*
X572544Y120001D01*
X579834Y114808D02*
X579834Y126492D01*
X579834Y114808D02*
X585027Y114808D01*
X589337Y120650D02*
X589340Y120880D01*
X589348Y121110D01*
X589362Y121339D01*
X589381Y121568D01*
X589406Y121797D01*
X589436Y122024D01*
X589471Y122252D01*
X589512Y122478D01*
X589558Y122703D01*
X589610Y122927D01*
X589667Y123149D01*
X589729Y123371D01*
X589797Y123590D01*
X589870Y123808D01*
X589948Y124025D01*
X590031Y124239D01*
X590119Y124451D01*
X590212Y124661D01*
X590311Y124869D01*
X590310Y124869D02*
X590343Y124959D01*
X590379Y125048D01*
X590419Y125136D01*
X590463Y125221D01*
X590510Y125305D01*
X590560Y125387D01*
X590614Y125467D01*
X590670Y125544D01*
X590730Y125620D01*
X590793Y125693D01*
X590858Y125763D01*
X590927Y125831D01*
X590998Y125895D01*
X591071Y125957D01*
X591147Y126016D01*
X591225Y126072D01*
X591306Y126125D01*
X591388Y126174D01*
X591472Y126220D01*
X591559Y126263D01*
X591646Y126302D01*
X591736Y126338D01*
X591826Y126370D01*
X591918Y126398D01*
X592011Y126423D01*
X592105Y126444D01*
X592199Y126461D01*
X592294Y126475D01*
X592390Y126484D01*
X592486Y126490D01*
X592582Y126492D01*
X592678Y126490D01*
X592774Y126484D01*
X592870Y126475D01*
X592965Y126461D01*
X593059Y126444D01*
X593153Y126423D01*
X593246Y126398D01*
X593338Y126370D01*
X593428Y126338D01*
X593518Y126302D01*
X593605Y126263D01*
X593692Y126220D01*
X593776Y126174D01*
X593858Y126125D01*
X593939Y126072D01*
X594017Y126016D01*
X594093Y125957D01*
X594166Y125895D01*
X594237Y125831D01*
X594306Y125763D01*
X594371Y125693D01*
X594434Y125620D01*
X594494Y125544D01*
X594550Y125467D01*
X594604Y125387D01*
X594654Y125305D01*
X594701Y125221D01*
X594745Y125136D01*
X594785Y125048D01*
X594821Y124959D01*
X594854Y124869D01*
X594953Y124662D01*
X595046Y124452D01*
X595134Y124239D01*
X595217Y124025D01*
X595295Y123809D01*
X595368Y123591D01*
X595436Y123371D01*
X595498Y123150D01*
X595555Y122927D01*
X595607Y122703D01*
X595653Y122478D01*
X595694Y122252D01*
X595729Y122025D01*
X595759Y121797D01*
X595784Y121568D01*
X595803Y121339D01*
X595817Y121110D01*
X595825Y120880D01*
X595828Y120650D01*
X589336Y120650D02*
X589339Y120420D01*
X589347Y120190D01*
X589361Y119961D01*
X589380Y119732D01*
X589405Y119503D01*
X589435Y119275D01*
X589470Y119048D01*
X589511Y118822D01*
X589557Y118597D01*
X589609Y118373D01*
X589666Y118150D01*
X589728Y117929D01*
X589796Y117709D01*
X589869Y117491D01*
X589947Y117275D01*
X590030Y117061D01*
X590118Y116849D01*
X590211Y116638D01*
X590310Y116431D01*
X590343Y116341D01*
X590379Y116252D01*
X590420Y116164D01*
X590463Y116079D01*
X590510Y115995D01*
X590560Y115913D01*
X590614Y115833D01*
X590670Y115756D01*
X590730Y115680D01*
X590793Y115607D01*
X590858Y115537D01*
X590927Y115469D01*
X590998Y115405D01*
X591071Y115343D01*
X591147Y115284D01*
X591225Y115228D01*
X591306Y115175D01*
X591388Y115126D01*
X591472Y115080D01*
X591559Y115037D01*
X591646Y114998D01*
X591736Y114962D01*
X591826Y114930D01*
X591918Y114902D01*
X592011Y114877D01*
X592105Y114856D01*
X592199Y114839D01*
X592294Y114825D01*
X592390Y114816D01*
X592486Y114810D01*
X592582Y114808D01*
X594854Y116431D02*
X594953Y116638D01*
X595046Y116849D01*
X595134Y117061D01*
X595217Y117275D01*
X595295Y117491D01*
X595368Y117709D01*
X595436Y117929D01*
X595498Y118150D01*
X595555Y118373D01*
X595607Y118597D01*
X595653Y118822D01*
X595694Y119048D01*
X595729Y119275D01*
X595759Y119503D01*
X595784Y119732D01*
X595803Y119961D01*
X595817Y120190D01*
X595825Y120420D01*
X595828Y120650D01*
X594854Y116431D02*
X594821Y116341D01*
X594785Y116252D01*
X594745Y116164D01*
X594701Y116079D01*
X594654Y115995D01*
X594604Y115913D01*
X594550Y115833D01*
X594494Y115756D01*
X594434Y115680D01*
X594371Y115607D01*
X594306Y115537D01*
X594237Y115469D01*
X594166Y115405D01*
X594093Y115343D01*
X594017Y115284D01*
X593939Y115228D01*
X593858Y115175D01*
X593776Y115126D01*
X593692Y115080D01*
X593605Y115037D01*
X593518Y114998D01*
X593428Y114962D01*
X593338Y114930D01*
X593246Y114902D01*
X593153Y114877D01*
X593059Y114856D01*
X592965Y114839D01*
X592870Y114825D01*
X592774Y114816D01*
X592678Y114810D01*
X592582Y114808D01*
X589986Y117404D02*
X595178Y123896D01*
X600766Y123896D02*
X604012Y126492D01*
X604012Y114808D01*
X607257Y114808D02*
X600766Y114808D01*
D14*
X820420Y6350D02*
X932180Y6350D01*
X924560Y260350D02*
X828040Y260350D01*
X828040Y234950D01*
X924560Y234950D02*
X924560Y260350D01*
X828040Y234950D02*
X800100Y234950D01*
X924560Y234950D02*
X952500Y234950D01*
X781050Y186690D02*
X781050Y105410D01*
X800100Y105410D02*
X800100Y76200D01*
X800100Y186690D02*
X800100Y234950D01*
X800100Y105410D02*
X781050Y105410D01*
X781050Y186690D02*
X800100Y186690D01*
X800100Y76200D02*
X820420Y76200D01*
X932180Y76200D02*
X952500Y76200D01*
X820420Y76200D02*
X820420Y6350D01*
X932180Y6350D02*
X932180Y76200D01*
X952500Y97790D02*
X988060Y97790D01*
X988060Y194310D02*
X952500Y194310D01*
X988060Y194310D02*
X988060Y97790D01*
X952500Y97790D02*
X952500Y76200D01*
X952500Y194310D02*
X952500Y234950D01*
X869950Y146050D02*
X869952Y146209D01*
X869958Y146368D01*
X869968Y146526D01*
X869982Y146685D01*
X870000Y146843D01*
X870021Y147000D01*
X870047Y147157D01*
X870077Y147313D01*
X870110Y147469D01*
X870148Y147623D01*
X870189Y147777D01*
X870234Y147929D01*
X870283Y148080D01*
X870336Y148230D01*
X870392Y148379D01*
X870453Y148526D01*
X870516Y148671D01*
X870584Y148815D01*
X870655Y148958D01*
X870729Y149098D01*
X870807Y149236D01*
X870889Y149373D01*
X870974Y149507D01*
X871062Y149640D01*
X871153Y149770D01*
X871248Y149897D01*
X871346Y150022D01*
X871447Y150145D01*
X871551Y150265D01*
X871658Y150383D01*
X871768Y150498D01*
X871881Y150610D01*
X871996Y150719D01*
X872114Y150825D01*
X872235Y150929D01*
X872359Y151029D01*
X872484Y151126D01*
X872613Y151220D01*
X872743Y151310D01*
X872876Y151398D01*
X873011Y151482D01*
X873148Y151562D01*
X873287Y151640D01*
X873428Y151713D01*
X873570Y151783D01*
X873715Y151850D01*
X873861Y151913D01*
X874008Y151972D01*
X874157Y152028D01*
X874308Y152079D01*
X874459Y152127D01*
X874612Y152171D01*
X874766Y152212D01*
X874920Y152248D01*
X875076Y152281D01*
X875232Y152310D01*
X875389Y152334D01*
X875547Y152355D01*
X875705Y152372D01*
X875863Y152385D01*
X876022Y152394D01*
X876181Y152399D01*
X876340Y152400D01*
X876499Y152397D01*
X876657Y152390D01*
X876816Y152379D01*
X876974Y152364D01*
X877132Y152345D01*
X877289Y152322D01*
X877446Y152296D01*
X877602Y152265D01*
X877757Y152231D01*
X877911Y152192D01*
X878065Y152150D01*
X878217Y152104D01*
X878368Y152054D01*
X878517Y152000D01*
X878666Y151943D01*
X878812Y151882D01*
X878958Y151817D01*
X879101Y151749D01*
X879243Y151677D01*
X879383Y151601D01*
X879521Y151523D01*
X879657Y151440D01*
X879791Y151355D01*
X879922Y151266D01*
X880052Y151173D01*
X880179Y151078D01*
X880303Y150979D01*
X880426Y150877D01*
X880545Y150773D01*
X880662Y150665D01*
X880776Y150554D01*
X880887Y150441D01*
X880996Y150325D01*
X881101Y150206D01*
X881204Y150084D01*
X881303Y149960D01*
X881400Y149834D01*
X881493Y149705D01*
X881583Y149574D01*
X881669Y149440D01*
X881752Y149305D01*
X881832Y149167D01*
X881908Y149028D01*
X881981Y148887D01*
X882050Y148744D01*
X882116Y148599D01*
X882178Y148452D01*
X882236Y148305D01*
X882291Y148155D01*
X882342Y148005D01*
X882389Y147853D01*
X882432Y147700D01*
X882471Y147546D01*
X882507Y147391D01*
X882538Y147235D01*
X882566Y147079D01*
X882590Y146922D01*
X882610Y146764D01*
X882626Y146606D01*
X882638Y146447D01*
X882646Y146288D01*
X882650Y146129D01*
X882650Y145971D01*
X882646Y145812D01*
X882638Y145653D01*
X882626Y145494D01*
X882610Y145336D01*
X882590Y145178D01*
X882566Y145021D01*
X882538Y144865D01*
X882507Y144709D01*
X882471Y144554D01*
X882432Y144400D01*
X882389Y144247D01*
X882342Y144095D01*
X882291Y143945D01*
X882236Y143795D01*
X882178Y143648D01*
X882116Y143501D01*
X882050Y143356D01*
X881981Y143213D01*
X881908Y143072D01*
X881832Y142933D01*
X881752Y142795D01*
X881669Y142660D01*
X881583Y142526D01*
X881493Y142395D01*
X881400Y142266D01*
X881303Y142140D01*
X881204Y142016D01*
X881101Y141894D01*
X880996Y141775D01*
X880887Y141659D01*
X880776Y141546D01*
X880662Y141435D01*
X880545Y141327D01*
X880426Y141223D01*
X880303Y141121D01*
X880179Y141022D01*
X880052Y140927D01*
X879922Y140834D01*
X879791Y140745D01*
X879657Y140660D01*
X879521Y140577D01*
X879383Y140499D01*
X879243Y140423D01*
X879101Y140351D01*
X878958Y140283D01*
X878812Y140218D01*
X878666Y140157D01*
X878517Y140100D01*
X878368Y140046D01*
X878217Y139996D01*
X878065Y139950D01*
X877911Y139908D01*
X877757Y139869D01*
X877602Y139835D01*
X877446Y139804D01*
X877289Y139778D01*
X877132Y139755D01*
X876974Y139736D01*
X876816Y139721D01*
X876657Y139710D01*
X876499Y139703D01*
X876340Y139700D01*
X876181Y139701D01*
X876022Y139706D01*
X875863Y139715D01*
X875705Y139728D01*
X875547Y139745D01*
X875389Y139766D01*
X875232Y139790D01*
X875076Y139819D01*
X874920Y139852D01*
X874766Y139888D01*
X874612Y139929D01*
X874459Y139973D01*
X874308Y140021D01*
X874157Y140072D01*
X874008Y140128D01*
X873861Y140187D01*
X873715Y140250D01*
X873570Y140317D01*
X873428Y140387D01*
X873287Y140460D01*
X873148Y140538D01*
X873011Y140618D01*
X872876Y140702D01*
X872743Y140790D01*
X872613Y140880D01*
X872484Y140974D01*
X872359Y141071D01*
X872235Y141171D01*
X872114Y141275D01*
X871996Y141381D01*
X871881Y141490D01*
X871768Y141602D01*
X871658Y141717D01*
X871551Y141835D01*
X871447Y141955D01*
X871346Y142078D01*
X871248Y142203D01*
X871153Y142330D01*
X871062Y142460D01*
X870974Y142593D01*
X870889Y142727D01*
X870807Y142864D01*
X870729Y143002D01*
X870655Y143142D01*
X870584Y143285D01*
X870516Y143429D01*
X870453Y143574D01*
X870392Y143721D01*
X870336Y143870D01*
X870283Y144020D01*
X870234Y144171D01*
X870189Y144323D01*
X870148Y144477D01*
X870110Y144631D01*
X870077Y144787D01*
X870047Y144943D01*
X870021Y145100D01*
X870000Y145257D01*
X869982Y145415D01*
X869968Y145574D01*
X869958Y145732D01*
X869952Y145891D01*
X869950Y146050D01*
D12*
X890905Y141163D02*
X894659Y141163D01*
X894659Y141162D02*
X894724Y141160D01*
X894788Y141154D01*
X894852Y141144D01*
X894916Y141131D01*
X894978Y141113D01*
X895039Y141092D01*
X895099Y141068D01*
X895157Y141039D01*
X895214Y141007D01*
X895268Y140972D01*
X895320Y140934D01*
X895370Y140892D01*
X895417Y140848D01*
X895461Y140801D01*
X895503Y140751D01*
X895541Y140699D01*
X895576Y140645D01*
X895608Y140588D01*
X895637Y140530D01*
X895661Y140470D01*
X895682Y140409D01*
X895700Y140347D01*
X895713Y140283D01*
X895723Y140219D01*
X895729Y140155D01*
X895731Y140090D01*
X895731Y139554D01*
X894390Y144111D02*
X892246Y144111D01*
X892246Y144110D02*
X892175Y144112D01*
X892103Y144118D01*
X892033Y144127D01*
X891963Y144140D01*
X891893Y144157D01*
X891825Y144178D01*
X891758Y144202D01*
X891692Y144230D01*
X891628Y144261D01*
X891565Y144296D01*
X891505Y144334D01*
X891446Y144375D01*
X891390Y144419D01*
X891336Y144466D01*
X891285Y144515D01*
X891237Y144568D01*
X891191Y144623D01*
X891149Y144680D01*
X891109Y144740D01*
X891073Y144801D01*
X891040Y144865D01*
X891011Y144930D01*
X890985Y144996D01*
X890962Y145064D01*
X890943Y145133D01*
X890928Y145203D01*
X890917Y145273D01*
X890909Y145344D01*
X890905Y145415D01*
X890905Y145487D01*
X890909Y145558D01*
X890917Y145629D01*
X890928Y145699D01*
X890943Y145769D01*
X890962Y145838D01*
X890985Y145906D01*
X891011Y145972D01*
X891040Y146037D01*
X891073Y146101D01*
X891109Y146162D01*
X891149Y146222D01*
X891191Y146279D01*
X891237Y146334D01*
X891285Y146387D01*
X891336Y146436D01*
X891390Y146483D01*
X891446Y146527D01*
X891505Y146568D01*
X891565Y146606D01*
X891628Y146641D01*
X891692Y146672D01*
X891758Y146700D01*
X891825Y146724D01*
X891893Y146745D01*
X891963Y146762D01*
X892033Y146775D01*
X892103Y146784D01*
X892175Y146790D01*
X892246Y146792D01*
X894390Y146792D01*
X894461Y146790D01*
X894533Y146784D01*
X894603Y146775D01*
X894673Y146762D01*
X894743Y146745D01*
X894811Y146724D01*
X894878Y146700D01*
X894944Y146672D01*
X895008Y146641D01*
X895071Y146606D01*
X895131Y146568D01*
X895190Y146527D01*
X895246Y146483D01*
X895300Y146436D01*
X895351Y146387D01*
X895399Y146334D01*
X895445Y146279D01*
X895487Y146222D01*
X895527Y146162D01*
X895563Y146101D01*
X895596Y146037D01*
X895625Y145972D01*
X895651Y145906D01*
X895674Y145838D01*
X895693Y145769D01*
X895708Y145699D01*
X895719Y145629D01*
X895727Y145558D01*
X895731Y145487D01*
X895731Y145415D01*
X895727Y145344D01*
X895719Y145273D01*
X895708Y145203D01*
X895693Y145133D01*
X895674Y145064D01*
X895651Y144996D01*
X895625Y144930D01*
X895596Y144865D01*
X895563Y144801D01*
X895527Y144740D01*
X895487Y144680D01*
X895445Y144623D01*
X895399Y144568D01*
X895351Y144515D01*
X895300Y144466D01*
X895246Y144419D01*
X895190Y144375D01*
X895131Y144334D01*
X895071Y144296D01*
X895008Y144261D01*
X894944Y144230D01*
X894878Y144202D01*
X894811Y144178D01*
X894743Y144157D01*
X894673Y144140D01*
X894603Y144127D01*
X894533Y144118D01*
X894461Y144112D01*
X894390Y144110D01*
X890905Y149329D02*
X893184Y150937D01*
X890905Y152546D01*
X893184Y150937D02*
X895731Y150937D01*
D10*
X437181Y239903D02*
X435545Y239903D01*
X435467Y239905D01*
X435389Y239910D01*
X435312Y239920D01*
X435235Y239933D01*
X435159Y239949D01*
X435084Y239969D01*
X435010Y239993D01*
X434937Y240020D01*
X434865Y240051D01*
X434795Y240085D01*
X434727Y240122D01*
X434660Y240163D01*
X434595Y240207D01*
X434533Y240253D01*
X434473Y240303D01*
X434415Y240355D01*
X434360Y240410D01*
X434308Y240468D01*
X434258Y240528D01*
X434212Y240590D01*
X434168Y240655D01*
X434127Y240722D01*
X434090Y240790D01*
X434056Y240860D01*
X434025Y240932D01*
X433998Y241005D01*
X433974Y241079D01*
X433954Y241154D01*
X433938Y241230D01*
X433925Y241307D01*
X433915Y241384D01*
X433910Y241462D01*
X433908Y241540D01*
X433908Y245632D01*
X433910Y245712D01*
X433916Y245792D01*
X433926Y245872D01*
X433939Y245951D01*
X433957Y246030D01*
X433978Y246107D01*
X434004Y246183D01*
X434033Y246258D01*
X434065Y246332D01*
X434101Y246404D01*
X434141Y246474D01*
X434184Y246541D01*
X434230Y246607D01*
X434280Y246670D01*
X434332Y246731D01*
X434387Y246790D01*
X434446Y246845D01*
X434506Y246897D01*
X434570Y246947D01*
X434636Y246993D01*
X434703Y247036D01*
X434773Y247076D01*
X434845Y247112D01*
X434919Y247144D01*
X434993Y247173D01*
X435070Y247199D01*
X435147Y247220D01*
X435226Y247238D01*
X435305Y247251D01*
X435385Y247261D01*
X435465Y247267D01*
X435545Y247269D01*
X437181Y247269D01*
X440027Y245632D02*
X442073Y247269D01*
X442073Y239903D01*
X440027Y239903D02*
X444119Y239903D01*
X437181Y214503D02*
X435545Y214503D01*
X435467Y214505D01*
X435389Y214510D01*
X435312Y214520D01*
X435235Y214533D01*
X435159Y214549D01*
X435084Y214569D01*
X435010Y214593D01*
X434937Y214620D01*
X434865Y214651D01*
X434795Y214685D01*
X434727Y214722D01*
X434660Y214763D01*
X434595Y214807D01*
X434533Y214853D01*
X434473Y214903D01*
X434415Y214955D01*
X434360Y215010D01*
X434308Y215068D01*
X434258Y215128D01*
X434212Y215190D01*
X434168Y215255D01*
X434127Y215322D01*
X434090Y215390D01*
X434056Y215460D01*
X434025Y215532D01*
X433998Y215605D01*
X433974Y215679D01*
X433954Y215754D01*
X433938Y215830D01*
X433925Y215907D01*
X433915Y215984D01*
X433910Y216062D01*
X433908Y216140D01*
X433908Y220232D01*
X433910Y220312D01*
X433916Y220392D01*
X433926Y220472D01*
X433939Y220551D01*
X433957Y220630D01*
X433978Y220707D01*
X434004Y220783D01*
X434033Y220858D01*
X434065Y220932D01*
X434101Y221004D01*
X434141Y221074D01*
X434184Y221141D01*
X434230Y221207D01*
X434280Y221270D01*
X434332Y221331D01*
X434387Y221390D01*
X434446Y221445D01*
X434506Y221497D01*
X434570Y221547D01*
X434636Y221593D01*
X434703Y221636D01*
X434773Y221676D01*
X434845Y221712D01*
X434919Y221744D01*
X434993Y221773D01*
X435070Y221799D01*
X435147Y221820D01*
X435226Y221838D01*
X435305Y221851D01*
X435385Y221861D01*
X435465Y221867D01*
X435545Y221869D01*
X437181Y221869D01*
X442278Y221870D02*
X442363Y221868D01*
X442448Y221862D01*
X442532Y221852D01*
X442616Y221839D01*
X442700Y221821D01*
X442782Y221800D01*
X442863Y221775D01*
X442943Y221746D01*
X443022Y221713D01*
X443099Y221677D01*
X443174Y221637D01*
X443248Y221594D01*
X443319Y221548D01*
X443388Y221498D01*
X443455Y221445D01*
X443519Y221389D01*
X443580Y221330D01*
X443639Y221269D01*
X443695Y221205D01*
X443748Y221138D01*
X443798Y221069D01*
X443844Y220998D01*
X443887Y220924D01*
X443927Y220849D01*
X443963Y220772D01*
X443996Y220693D01*
X444025Y220613D01*
X444050Y220532D01*
X444071Y220450D01*
X444089Y220366D01*
X444102Y220282D01*
X444112Y220198D01*
X444118Y220113D01*
X444120Y220028D01*
X442278Y221869D02*
X442182Y221867D01*
X442086Y221861D01*
X441991Y221851D01*
X441896Y221838D01*
X441801Y221820D01*
X441708Y221799D01*
X441615Y221774D01*
X441524Y221745D01*
X441433Y221713D01*
X441344Y221677D01*
X441257Y221637D01*
X441171Y221594D01*
X441087Y221548D01*
X441005Y221498D01*
X440925Y221444D01*
X440848Y221388D01*
X440773Y221328D01*
X440700Y221266D01*
X440630Y221200D01*
X440562Y221132D01*
X440497Y221061D01*
X440436Y220988D01*
X440377Y220912D01*
X440321Y220833D01*
X440269Y220753D01*
X440220Y220670D01*
X440174Y220586D01*
X440132Y220500D01*
X440094Y220412D01*
X440059Y220323D01*
X440027Y220232D01*
X443505Y218596D02*
X443565Y218655D01*
X443622Y218717D01*
X443677Y218781D01*
X443728Y218848D01*
X443777Y218917D01*
X443823Y218987D01*
X443866Y219060D01*
X443906Y219134D01*
X443942Y219210D01*
X443975Y219288D01*
X444005Y219367D01*
X444032Y219447D01*
X444055Y219528D01*
X444074Y219610D01*
X444090Y219692D01*
X444103Y219776D01*
X444112Y219860D01*
X444117Y219944D01*
X444119Y220028D01*
X443505Y218595D02*
X440027Y214503D01*
X444119Y214503D01*
D15*
X725400Y245050D03*
X725400Y237550D03*
D16*
X725400Y241300D03*
D10*
X736981Y236347D02*
X736981Y228981D01*
X740255Y228981D01*
X743061Y234710D02*
X745107Y236347D01*
X745107Y228981D01*
X743061Y228981D02*
X747154Y228981D01*
D15*
X687300Y245050D03*
X687300Y237550D03*
D16*
X687300Y241300D03*
D10*
X698881Y236347D02*
X698881Y228981D01*
X702155Y228981D01*
X709054Y234506D02*
X709052Y234591D01*
X709046Y234676D01*
X709036Y234760D01*
X709023Y234844D01*
X709005Y234928D01*
X708984Y235010D01*
X708959Y235091D01*
X708930Y235171D01*
X708897Y235250D01*
X708861Y235327D01*
X708821Y235402D01*
X708778Y235476D01*
X708732Y235547D01*
X708682Y235616D01*
X708629Y235683D01*
X708573Y235747D01*
X708514Y235808D01*
X708453Y235867D01*
X708389Y235923D01*
X708322Y235976D01*
X708253Y236026D01*
X708182Y236072D01*
X708108Y236115D01*
X708033Y236155D01*
X707956Y236191D01*
X707877Y236224D01*
X707797Y236253D01*
X707716Y236278D01*
X707634Y236299D01*
X707550Y236317D01*
X707466Y236330D01*
X707382Y236340D01*
X707297Y236346D01*
X707212Y236348D01*
X707212Y236347D02*
X707116Y236345D01*
X707020Y236339D01*
X706925Y236329D01*
X706830Y236316D01*
X706735Y236298D01*
X706642Y236277D01*
X706549Y236252D01*
X706458Y236223D01*
X706367Y236191D01*
X706278Y236155D01*
X706191Y236115D01*
X706105Y236072D01*
X706021Y236026D01*
X705939Y235976D01*
X705859Y235922D01*
X705782Y235866D01*
X705707Y235806D01*
X705634Y235744D01*
X705564Y235678D01*
X705496Y235610D01*
X705431Y235539D01*
X705370Y235466D01*
X705311Y235390D01*
X705255Y235311D01*
X705203Y235231D01*
X705154Y235148D01*
X705108Y235064D01*
X705066Y234978D01*
X705028Y234890D01*
X704993Y234801D01*
X704961Y234710D01*
X708440Y233074D02*
X708500Y233133D01*
X708557Y233195D01*
X708612Y233259D01*
X708663Y233326D01*
X708712Y233395D01*
X708758Y233465D01*
X708801Y233538D01*
X708841Y233612D01*
X708877Y233688D01*
X708910Y233766D01*
X708940Y233845D01*
X708967Y233925D01*
X708990Y234006D01*
X709009Y234088D01*
X709025Y234170D01*
X709038Y234254D01*
X709047Y234338D01*
X709052Y234422D01*
X709054Y234506D01*
X708440Y233073D02*
X704961Y228981D01*
X709054Y228981D01*
D15*
X649200Y245050D03*
X649200Y237550D03*
D16*
X649200Y241300D03*
D10*
X660781Y236347D02*
X660781Y228981D01*
X664055Y228981D01*
X666861Y228981D02*
X668907Y228981D01*
X668996Y228983D01*
X669085Y228989D01*
X669174Y228999D01*
X669262Y229012D01*
X669350Y229029D01*
X669437Y229051D01*
X669522Y229076D01*
X669607Y229104D01*
X669690Y229137D01*
X669772Y229173D01*
X669852Y229212D01*
X669930Y229255D01*
X670006Y229301D01*
X670081Y229351D01*
X670153Y229404D01*
X670222Y229460D01*
X670289Y229519D01*
X670354Y229580D01*
X670415Y229645D01*
X670474Y229712D01*
X670530Y229781D01*
X670583Y229853D01*
X670633Y229928D01*
X670679Y230004D01*
X670722Y230082D01*
X670761Y230162D01*
X670797Y230244D01*
X670830Y230327D01*
X670858Y230412D01*
X670883Y230497D01*
X670905Y230584D01*
X670922Y230672D01*
X670935Y230760D01*
X670945Y230849D01*
X670951Y230938D01*
X670953Y231027D01*
X670951Y231116D01*
X670945Y231205D01*
X670935Y231294D01*
X670922Y231382D01*
X670905Y231470D01*
X670883Y231557D01*
X670858Y231642D01*
X670830Y231727D01*
X670797Y231810D01*
X670761Y231892D01*
X670722Y231972D01*
X670679Y232050D01*
X670633Y232126D01*
X670583Y232201D01*
X670530Y232273D01*
X670474Y232342D01*
X670415Y232409D01*
X670354Y232474D01*
X670289Y232535D01*
X670222Y232594D01*
X670153Y232650D01*
X670081Y232703D01*
X670006Y232753D01*
X669930Y232799D01*
X669852Y232842D01*
X669772Y232881D01*
X669690Y232917D01*
X669607Y232950D01*
X669522Y232978D01*
X669437Y233003D01*
X669350Y233025D01*
X669262Y233042D01*
X669174Y233055D01*
X669085Y233065D01*
X668996Y233071D01*
X668907Y233073D01*
X669317Y236347D02*
X666861Y236347D01*
X669317Y236347D02*
X669396Y236345D01*
X669475Y236339D01*
X669554Y236330D01*
X669632Y236317D01*
X669709Y236299D01*
X669785Y236279D01*
X669860Y236254D01*
X669934Y236226D01*
X670007Y236195D01*
X670078Y236159D01*
X670147Y236121D01*
X670214Y236079D01*
X670279Y236034D01*
X670342Y235986D01*
X670403Y235935D01*
X670460Y235881D01*
X670516Y235825D01*
X670568Y235766D01*
X670618Y235704D01*
X670664Y235640D01*
X670708Y235574D01*
X670748Y235506D01*
X670784Y235436D01*
X670818Y235364D01*
X670848Y235290D01*
X670874Y235216D01*
X670897Y235140D01*
X670915Y235063D01*
X670931Y234986D01*
X670942Y234907D01*
X670950Y234829D01*
X670954Y234750D01*
X670954Y234670D01*
X670950Y234591D01*
X670942Y234513D01*
X670931Y234434D01*
X670915Y234357D01*
X670897Y234280D01*
X670874Y234204D01*
X670848Y234130D01*
X670818Y234056D01*
X670784Y233984D01*
X670748Y233914D01*
X670708Y233846D01*
X670664Y233780D01*
X670618Y233716D01*
X670568Y233654D01*
X670516Y233595D01*
X670460Y233539D01*
X670403Y233485D01*
X670342Y233434D01*
X670279Y233386D01*
X670214Y233341D01*
X670147Y233299D01*
X670078Y233261D01*
X670007Y233225D01*
X669934Y233194D01*
X669860Y233166D01*
X669785Y233141D01*
X669709Y233121D01*
X669632Y233103D01*
X669554Y233090D01*
X669475Y233081D01*
X669396Y233075D01*
X669317Y233073D01*
X667680Y233073D01*
X736981Y204597D02*
X736981Y197231D01*
X736981Y204597D02*
X739027Y204597D01*
X739116Y204595D01*
X739205Y204589D01*
X739294Y204579D01*
X739382Y204566D01*
X739470Y204549D01*
X739557Y204527D01*
X739642Y204502D01*
X739727Y204474D01*
X739810Y204441D01*
X739892Y204405D01*
X739972Y204366D01*
X740050Y204323D01*
X740126Y204277D01*
X740201Y204227D01*
X740273Y204174D01*
X740342Y204118D01*
X740409Y204059D01*
X740474Y203998D01*
X740535Y203933D01*
X740594Y203866D01*
X740650Y203797D01*
X740703Y203725D01*
X740753Y203650D01*
X740799Y203574D01*
X740842Y203496D01*
X740881Y203416D01*
X740917Y203334D01*
X740950Y203251D01*
X740978Y203166D01*
X741003Y203081D01*
X741025Y202994D01*
X741042Y202906D01*
X741055Y202818D01*
X741065Y202729D01*
X741071Y202640D01*
X741073Y202551D01*
X741071Y202462D01*
X741065Y202373D01*
X741055Y202284D01*
X741042Y202196D01*
X741025Y202108D01*
X741003Y202021D01*
X740978Y201936D01*
X740950Y201851D01*
X740917Y201768D01*
X740881Y201686D01*
X740842Y201606D01*
X740799Y201528D01*
X740753Y201452D01*
X740703Y201377D01*
X740650Y201305D01*
X740594Y201236D01*
X740535Y201169D01*
X740474Y201104D01*
X740409Y201043D01*
X740342Y200984D01*
X740273Y200928D01*
X740201Y200875D01*
X740126Y200825D01*
X740050Y200779D01*
X739972Y200736D01*
X739892Y200697D01*
X739810Y200661D01*
X739727Y200628D01*
X739642Y200600D01*
X739557Y200575D01*
X739470Y200553D01*
X739382Y200536D01*
X739294Y200523D01*
X739205Y200513D01*
X739116Y200507D01*
X739027Y200505D01*
X736981Y200505D01*
X739436Y200505D02*
X741073Y197231D01*
X744245Y202960D02*
X746291Y204597D01*
X746291Y197231D01*
X744245Y197231D02*
X748337Y197231D01*
X698881Y197231D02*
X698881Y204597D01*
X700927Y204597D01*
X701016Y204595D01*
X701105Y204589D01*
X701194Y204579D01*
X701282Y204566D01*
X701370Y204549D01*
X701457Y204527D01*
X701542Y204502D01*
X701627Y204474D01*
X701710Y204441D01*
X701792Y204405D01*
X701872Y204366D01*
X701950Y204323D01*
X702026Y204277D01*
X702101Y204227D01*
X702173Y204174D01*
X702242Y204118D01*
X702309Y204059D01*
X702374Y203998D01*
X702435Y203933D01*
X702494Y203866D01*
X702550Y203797D01*
X702603Y203725D01*
X702653Y203650D01*
X702699Y203574D01*
X702742Y203496D01*
X702781Y203416D01*
X702817Y203334D01*
X702850Y203251D01*
X702878Y203166D01*
X702903Y203081D01*
X702925Y202994D01*
X702942Y202906D01*
X702955Y202818D01*
X702965Y202729D01*
X702971Y202640D01*
X702973Y202551D01*
X702971Y202462D01*
X702965Y202373D01*
X702955Y202284D01*
X702942Y202196D01*
X702925Y202108D01*
X702903Y202021D01*
X702878Y201936D01*
X702850Y201851D01*
X702817Y201768D01*
X702781Y201686D01*
X702742Y201606D01*
X702699Y201528D01*
X702653Y201452D01*
X702603Y201377D01*
X702550Y201305D01*
X702494Y201236D01*
X702435Y201169D01*
X702374Y201104D01*
X702309Y201043D01*
X702242Y200984D01*
X702173Y200928D01*
X702101Y200875D01*
X702026Y200825D01*
X701950Y200779D01*
X701872Y200736D01*
X701792Y200697D01*
X701710Y200661D01*
X701627Y200628D01*
X701542Y200600D01*
X701457Y200575D01*
X701370Y200553D01*
X701282Y200536D01*
X701194Y200523D01*
X701105Y200513D01*
X701016Y200507D01*
X700927Y200505D01*
X698881Y200505D01*
X701336Y200505D02*
X702973Y197231D01*
X710238Y202756D02*
X710236Y202841D01*
X710230Y202926D01*
X710220Y203010D01*
X710207Y203094D01*
X710189Y203178D01*
X710168Y203260D01*
X710143Y203341D01*
X710114Y203421D01*
X710081Y203500D01*
X710045Y203577D01*
X710005Y203652D01*
X709962Y203726D01*
X709916Y203797D01*
X709866Y203866D01*
X709813Y203933D01*
X709757Y203997D01*
X709698Y204058D01*
X709637Y204117D01*
X709573Y204173D01*
X709506Y204226D01*
X709437Y204276D01*
X709366Y204322D01*
X709292Y204365D01*
X709217Y204405D01*
X709140Y204441D01*
X709061Y204474D01*
X708981Y204503D01*
X708900Y204528D01*
X708818Y204549D01*
X708734Y204567D01*
X708650Y204580D01*
X708566Y204590D01*
X708481Y204596D01*
X708396Y204598D01*
X708396Y204597D02*
X708300Y204595D01*
X708204Y204589D01*
X708109Y204579D01*
X708014Y204566D01*
X707919Y204548D01*
X707826Y204527D01*
X707733Y204502D01*
X707642Y204473D01*
X707551Y204441D01*
X707462Y204405D01*
X707375Y204365D01*
X707289Y204322D01*
X707205Y204276D01*
X707123Y204226D01*
X707043Y204172D01*
X706966Y204116D01*
X706891Y204056D01*
X706818Y203994D01*
X706748Y203928D01*
X706680Y203860D01*
X706615Y203789D01*
X706554Y203716D01*
X706495Y203640D01*
X706439Y203561D01*
X706387Y203481D01*
X706338Y203398D01*
X706292Y203314D01*
X706250Y203228D01*
X706212Y203140D01*
X706177Y203051D01*
X706145Y202960D01*
X709623Y201324D02*
X709683Y201383D01*
X709740Y201445D01*
X709795Y201509D01*
X709846Y201576D01*
X709895Y201645D01*
X709941Y201715D01*
X709984Y201788D01*
X710024Y201862D01*
X710060Y201938D01*
X710093Y202016D01*
X710123Y202095D01*
X710150Y202175D01*
X710173Y202256D01*
X710192Y202338D01*
X710208Y202420D01*
X710221Y202504D01*
X710230Y202588D01*
X710235Y202672D01*
X710237Y202756D01*
X709623Y201323D02*
X706145Y197231D01*
X710237Y197231D01*
X660781Y197231D02*
X660781Y204597D01*
X662827Y204597D01*
X662916Y204595D01*
X663005Y204589D01*
X663094Y204579D01*
X663182Y204566D01*
X663270Y204549D01*
X663357Y204527D01*
X663442Y204502D01*
X663527Y204474D01*
X663610Y204441D01*
X663692Y204405D01*
X663772Y204366D01*
X663850Y204323D01*
X663926Y204277D01*
X664001Y204227D01*
X664073Y204174D01*
X664142Y204118D01*
X664209Y204059D01*
X664274Y203998D01*
X664335Y203933D01*
X664394Y203866D01*
X664450Y203797D01*
X664503Y203725D01*
X664553Y203650D01*
X664599Y203574D01*
X664642Y203496D01*
X664681Y203416D01*
X664717Y203334D01*
X664750Y203251D01*
X664778Y203166D01*
X664803Y203081D01*
X664825Y202994D01*
X664842Y202906D01*
X664855Y202818D01*
X664865Y202729D01*
X664871Y202640D01*
X664873Y202551D01*
X664871Y202462D01*
X664865Y202373D01*
X664855Y202284D01*
X664842Y202196D01*
X664825Y202108D01*
X664803Y202021D01*
X664778Y201936D01*
X664750Y201851D01*
X664717Y201768D01*
X664681Y201686D01*
X664642Y201606D01*
X664599Y201528D01*
X664553Y201452D01*
X664503Y201377D01*
X664450Y201305D01*
X664394Y201236D01*
X664335Y201169D01*
X664274Y201104D01*
X664209Y201043D01*
X664142Y200984D01*
X664073Y200928D01*
X664001Y200875D01*
X663926Y200825D01*
X663850Y200779D01*
X663772Y200736D01*
X663692Y200697D01*
X663610Y200661D01*
X663527Y200628D01*
X663442Y200600D01*
X663357Y200575D01*
X663270Y200553D01*
X663182Y200536D01*
X663094Y200523D01*
X663005Y200513D01*
X662916Y200507D01*
X662827Y200505D01*
X660781Y200505D01*
X663236Y200505D02*
X664873Y197231D01*
X668045Y197231D02*
X670091Y197231D01*
X670180Y197233D01*
X670269Y197239D01*
X670358Y197249D01*
X670446Y197262D01*
X670534Y197279D01*
X670621Y197301D01*
X670706Y197326D01*
X670791Y197354D01*
X670874Y197387D01*
X670956Y197423D01*
X671036Y197462D01*
X671114Y197505D01*
X671190Y197551D01*
X671265Y197601D01*
X671337Y197654D01*
X671406Y197710D01*
X671473Y197769D01*
X671538Y197830D01*
X671599Y197895D01*
X671658Y197962D01*
X671714Y198031D01*
X671767Y198103D01*
X671817Y198178D01*
X671863Y198254D01*
X671906Y198332D01*
X671945Y198412D01*
X671981Y198494D01*
X672014Y198577D01*
X672042Y198662D01*
X672067Y198747D01*
X672089Y198834D01*
X672106Y198922D01*
X672119Y199010D01*
X672129Y199099D01*
X672135Y199188D01*
X672137Y199277D01*
X672135Y199366D01*
X672129Y199455D01*
X672119Y199544D01*
X672106Y199632D01*
X672089Y199720D01*
X672067Y199807D01*
X672042Y199892D01*
X672014Y199977D01*
X671981Y200060D01*
X671945Y200142D01*
X671906Y200222D01*
X671863Y200300D01*
X671817Y200376D01*
X671767Y200451D01*
X671714Y200523D01*
X671658Y200592D01*
X671599Y200659D01*
X671538Y200724D01*
X671473Y200785D01*
X671406Y200844D01*
X671337Y200900D01*
X671265Y200953D01*
X671190Y201003D01*
X671114Y201049D01*
X671036Y201092D01*
X670956Y201131D01*
X670874Y201167D01*
X670791Y201200D01*
X670706Y201228D01*
X670621Y201253D01*
X670534Y201275D01*
X670446Y201292D01*
X670358Y201305D01*
X670269Y201315D01*
X670180Y201321D01*
X670091Y201323D01*
X670500Y204597D02*
X668045Y204597D01*
X670500Y204597D02*
X670579Y204595D01*
X670658Y204589D01*
X670737Y204580D01*
X670815Y204567D01*
X670892Y204549D01*
X670968Y204529D01*
X671043Y204504D01*
X671117Y204476D01*
X671190Y204445D01*
X671261Y204409D01*
X671330Y204371D01*
X671397Y204329D01*
X671462Y204284D01*
X671525Y204236D01*
X671586Y204185D01*
X671643Y204131D01*
X671699Y204075D01*
X671751Y204016D01*
X671801Y203954D01*
X671847Y203890D01*
X671891Y203824D01*
X671931Y203756D01*
X671967Y203686D01*
X672001Y203614D01*
X672031Y203540D01*
X672057Y203466D01*
X672080Y203390D01*
X672098Y203313D01*
X672114Y203236D01*
X672125Y203157D01*
X672133Y203079D01*
X672137Y203000D01*
X672137Y202920D01*
X672133Y202841D01*
X672125Y202763D01*
X672114Y202684D01*
X672098Y202607D01*
X672080Y202530D01*
X672057Y202454D01*
X672031Y202380D01*
X672001Y202306D01*
X671967Y202234D01*
X671931Y202164D01*
X671891Y202096D01*
X671847Y202030D01*
X671801Y201966D01*
X671751Y201904D01*
X671699Y201845D01*
X671643Y201789D01*
X671586Y201735D01*
X671525Y201684D01*
X671462Y201636D01*
X671397Y201591D01*
X671330Y201549D01*
X671261Y201511D01*
X671190Y201475D01*
X671117Y201444D01*
X671043Y201416D01*
X670968Y201391D01*
X670892Y201371D01*
X670815Y201353D01*
X670737Y201340D01*
X670658Y201331D01*
X670579Y201325D01*
X670500Y201323D01*
X668863Y201323D01*
D11*
X57150Y158750D02*
X57150Y146050D01*
X57150Y158750D02*
X63500Y165100D01*
X76200Y165100D01*
X82550Y158750D01*
X63500Y165100D02*
X57150Y171450D01*
X57150Y184150D01*
X63500Y190500D01*
X76200Y190500D01*
X82550Y184150D01*
X82550Y171450D01*
X76200Y165100D01*
X57150Y120650D02*
X63500Y114300D01*
X57150Y120650D02*
X57150Y133350D01*
X63500Y139700D01*
X76200Y139700D01*
X82550Y133350D01*
X82550Y120650D01*
X76200Y114300D01*
X63500Y139700D02*
X57150Y146050D01*
X76200Y139700D02*
X82550Y146050D01*
X82550Y158750D01*
X57150Y82550D02*
X57150Y69850D01*
X57150Y82550D02*
X63500Y88900D01*
X76200Y88900D01*
X82550Y82550D01*
X63500Y88900D02*
X57150Y95250D01*
X57150Y107950D01*
X63500Y114300D01*
X76200Y114300D01*
X82550Y107950D01*
X82550Y95250D01*
X76200Y88900D01*
X76200Y63500D02*
X63500Y63500D01*
X57150Y69850D01*
X76200Y63500D02*
X82550Y69850D01*
X82550Y82550D01*
X57150Y196850D02*
X57150Y209550D01*
X63500Y215900D01*
X76200Y215900D01*
X82550Y209550D01*
X63500Y190500D02*
X57150Y196850D01*
X76200Y190500D02*
X82550Y196850D01*
X82550Y209550D01*
D10*
X49544Y65574D02*
X43815Y65574D01*
X49544Y65574D02*
X49622Y65572D01*
X49700Y65567D01*
X49777Y65557D01*
X49854Y65544D01*
X49930Y65528D01*
X50005Y65508D01*
X50079Y65484D01*
X50152Y65457D01*
X50224Y65426D01*
X50294Y65392D01*
X50363Y65355D01*
X50429Y65314D01*
X50494Y65270D01*
X50556Y65224D01*
X50616Y65174D01*
X50674Y65122D01*
X50729Y65067D01*
X50781Y65009D01*
X50831Y64949D01*
X50877Y64887D01*
X50921Y64822D01*
X50962Y64756D01*
X50999Y64687D01*
X51033Y64617D01*
X51064Y64545D01*
X51091Y64472D01*
X51115Y64398D01*
X51135Y64323D01*
X51151Y64247D01*
X51164Y64170D01*
X51174Y64093D01*
X51179Y64015D01*
X51181Y63937D01*
X51181Y63119D01*
X51181Y69370D02*
X43815Y69370D01*
X43815Y71416D01*
X43817Y71505D01*
X43823Y71594D01*
X43833Y71683D01*
X43846Y71771D01*
X43863Y71859D01*
X43885Y71946D01*
X43910Y72031D01*
X43938Y72116D01*
X43971Y72199D01*
X44007Y72281D01*
X44046Y72361D01*
X44089Y72439D01*
X44135Y72515D01*
X44185Y72590D01*
X44238Y72662D01*
X44294Y72731D01*
X44353Y72798D01*
X44414Y72863D01*
X44479Y72924D01*
X44546Y72983D01*
X44615Y73039D01*
X44687Y73092D01*
X44762Y73142D01*
X44838Y73188D01*
X44916Y73231D01*
X44996Y73270D01*
X45078Y73306D01*
X45161Y73339D01*
X45246Y73367D01*
X45331Y73392D01*
X45418Y73414D01*
X45506Y73431D01*
X45594Y73444D01*
X45683Y73454D01*
X45772Y73460D01*
X45861Y73462D01*
X45950Y73460D01*
X46039Y73454D01*
X46128Y73444D01*
X46216Y73431D01*
X46304Y73414D01*
X46391Y73392D01*
X46476Y73367D01*
X46561Y73339D01*
X46644Y73306D01*
X46726Y73270D01*
X46806Y73231D01*
X46884Y73188D01*
X46960Y73142D01*
X47035Y73092D01*
X47107Y73039D01*
X47176Y72983D01*
X47243Y72924D01*
X47308Y72863D01*
X47369Y72798D01*
X47428Y72731D01*
X47484Y72662D01*
X47537Y72590D01*
X47587Y72515D01*
X47633Y72439D01*
X47676Y72361D01*
X47715Y72281D01*
X47751Y72199D01*
X47784Y72116D01*
X47812Y72031D01*
X47837Y71946D01*
X47859Y71859D01*
X47876Y71771D01*
X47889Y71683D01*
X47899Y71594D01*
X47905Y71505D01*
X47907Y71416D01*
X47907Y69370D01*
X45452Y76324D02*
X43815Y78370D01*
X51181Y78370D01*
X51181Y76324D02*
X51181Y80416D01*
D12*
X412750Y228600D02*
X419100Y222250D01*
X400050Y228600D02*
X393700Y222250D01*
X374650Y228600D02*
X368300Y222250D01*
X361950Y228600D01*
X342900Y222250D02*
X336550Y228600D01*
X323850Y228600D02*
X317500Y222250D01*
X311150Y228600D01*
X298450Y228600D02*
X292100Y222250D01*
X285750Y228600D01*
X273050Y228600D02*
X266700Y222250D01*
X260350Y228600D01*
X247650Y228600D02*
X241300Y222250D01*
X234950Y228600D01*
X222250Y228600D02*
X215900Y222250D01*
X209550Y228600D01*
X196850Y228600D02*
X190500Y222250D01*
X171450Y228600D02*
X165100Y222250D01*
X158750Y228600D01*
X146050Y228600D02*
X139700Y222250D01*
X133350Y228600D01*
X120650Y228600D02*
X114300Y222250D01*
X114300Y209550D01*
X120650Y203200D01*
X133350Y203200D01*
X139700Y209550D01*
X146050Y203200D01*
X158750Y203200D01*
X165100Y209550D01*
X171450Y203200D01*
X184150Y203200D01*
X190500Y209550D01*
X196850Y203200D01*
X209550Y203200D01*
X215900Y209550D01*
X222250Y203200D01*
X234950Y203200D01*
X241300Y209550D01*
X247650Y203200D01*
X260350Y203200D01*
X266700Y209550D01*
X273050Y203200D01*
X285750Y203200D01*
X292100Y209550D01*
X298450Y203200D01*
X311150Y203200D01*
X317500Y209550D01*
X323850Y203200D01*
X336550Y203200D01*
X342900Y209550D01*
X349250Y203200D01*
X361950Y203200D01*
X368300Y209550D01*
X374650Y203200D01*
X387350Y203200D01*
X393700Y209550D01*
X400050Y203200D01*
X412750Y203200D01*
X419100Y209550D01*
X412750Y76200D02*
X419100Y69850D01*
X120650Y76200D02*
X114300Y69850D01*
X114300Y57150D01*
X412750Y50800D02*
X419100Y57150D01*
X107950Y215900D02*
X95250Y215900D01*
X88900Y209550D01*
X88900Y196850D02*
X95250Y190500D01*
X88900Y184150D01*
X88900Y171450D02*
X95250Y165100D01*
X88900Y158750D01*
X88900Y146050D02*
X95250Y139700D01*
X88900Y133350D01*
X88900Y120650D02*
X95250Y114300D01*
X88900Y107950D01*
X88900Y95250D02*
X95250Y88900D01*
X88900Y82550D01*
X88900Y69850D02*
X95250Y63500D01*
X107950Y63500D01*
X114300Y69850D01*
X114300Y82550D01*
X107950Y88900D01*
X114300Y95250D01*
X114300Y107950D01*
X107950Y114300D01*
X114300Y120650D01*
X114300Y133350D01*
X107950Y139700D01*
X114300Y146050D01*
X114300Y158750D01*
X107950Y165100D01*
X114300Y171450D01*
X114300Y184150D01*
X107950Y190500D01*
X114300Y196850D01*
X114300Y209550D01*
X107950Y215900D01*
X203200Y196850D02*
X209550Y203200D01*
X222250Y203200D01*
X228600Y196850D01*
X234950Y203200D01*
X247650Y203200D01*
X254000Y196850D01*
X254000Y184150D01*
X247650Y177800D01*
X234950Y177800D01*
X228600Y184150D01*
X222250Y177800D01*
X209550Y177800D01*
X203200Y184150D01*
X203200Y196850D01*
X412750Y203200D02*
X419100Y196850D01*
X419100Y184150D02*
X412750Y177800D01*
X419100Y171450D01*
X419100Y158750D02*
X412750Y152400D01*
X419100Y146050D01*
X419100Y133350D02*
X412750Y127000D01*
X400050Y127000D01*
X393700Y133350D01*
X393700Y146050D01*
X400050Y152400D01*
X393700Y158750D01*
X393700Y171450D01*
X400050Y177800D01*
X393700Y184150D01*
X393700Y196850D01*
X400050Y203200D01*
X120650Y50800D02*
X114300Y57150D01*
X387350Y228600D02*
X419100Y228600D01*
X387350Y228600D02*
X349250Y228600D01*
X184150Y228600D01*
X88900Y228600D01*
X88900Y50800D02*
X133350Y50800D01*
X146050Y50800D01*
X158750Y50800D01*
X171450Y50800D01*
X184150Y50800D01*
X196850Y50800D01*
X209550Y50800D01*
X222250Y50800D01*
X234950Y50800D01*
X247650Y50800D01*
X260350Y50800D01*
X273050Y50800D01*
X285750Y50800D01*
X298450Y50800D01*
X311150Y50800D01*
X323850Y50800D01*
X336550Y50800D01*
X349250Y50800D01*
X361950Y50800D01*
X374650Y50800D01*
X387350Y50800D01*
X400050Y50800D01*
X419100Y50800D01*
X88900Y50800D02*
X88900Y228600D01*
X419100Y228600D02*
X419100Y50800D01*
X190500Y222250D02*
X184150Y228600D01*
X387350Y228600D02*
X393700Y222250D01*
X349250Y228600D02*
X342900Y222250D01*
X139700Y57150D02*
X133350Y50800D01*
X139700Y57150D02*
X146050Y50800D01*
X158750Y50800D02*
X165100Y57150D01*
X171450Y50800D01*
X184150Y50800D02*
X190500Y57150D01*
X196850Y50800D01*
X209550Y50800D02*
X215900Y57150D01*
X222250Y50800D01*
X234950Y50800D02*
X241300Y57150D01*
X247650Y50800D01*
X260350Y50800D02*
X266700Y57150D01*
X273050Y50800D01*
X285750Y50800D02*
X292100Y57150D01*
X298450Y50800D01*
X311150Y50800D02*
X317500Y57150D01*
X323850Y50800D01*
X336550Y50800D02*
X342900Y57150D01*
X349250Y50800D01*
X361950Y50800D02*
X368300Y57150D01*
X374650Y50800D01*
X133350Y76200D02*
X120650Y76200D01*
X133350Y76200D02*
X139700Y69850D01*
X146050Y76200D01*
X158750Y76200D01*
X165100Y69850D01*
X171450Y76200D01*
X184150Y76200D01*
X190500Y69850D01*
X196850Y76200D01*
X209550Y76200D01*
X215900Y69850D01*
X222250Y76200D01*
X234950Y76200D01*
X241300Y69850D01*
X247650Y76200D01*
X260350Y76200D01*
X266700Y69850D01*
X273050Y76200D01*
X285750Y76200D01*
X292100Y69850D01*
X298450Y76200D01*
X311150Y76200D01*
X317500Y69850D01*
X323850Y76200D01*
X336550Y76200D01*
X342900Y69850D01*
X349250Y76200D01*
X361950Y76200D01*
X368300Y69850D01*
X374650Y76200D01*
X387350Y76200D01*
X393700Y69850D01*
X400050Y76200D01*
X412750Y76200D01*
X393700Y57150D02*
X400050Y50800D01*
X393700Y57150D02*
X387350Y50800D01*
D13*
X149719Y146558D02*
X153614Y158242D01*
X157508Y146558D01*
X156535Y149479D02*
X150693Y149479D01*
X162253Y146558D02*
X162253Y158242D01*
X165498Y158242D01*
X165611Y158240D01*
X165724Y158234D01*
X165837Y158224D01*
X165950Y158210D01*
X166062Y158193D01*
X166173Y158171D01*
X166283Y158146D01*
X166393Y158116D01*
X166501Y158083D01*
X166608Y158046D01*
X166714Y158006D01*
X166818Y157961D01*
X166921Y157913D01*
X167022Y157862D01*
X167121Y157807D01*
X167218Y157749D01*
X167313Y157687D01*
X167406Y157622D01*
X167496Y157554D01*
X167584Y157483D01*
X167670Y157408D01*
X167753Y157331D01*
X167833Y157251D01*
X167910Y157168D01*
X167985Y157082D01*
X168056Y156994D01*
X168124Y156904D01*
X168189Y156811D01*
X168251Y156716D01*
X168309Y156619D01*
X168364Y156520D01*
X168415Y156419D01*
X168463Y156316D01*
X168508Y156212D01*
X168548Y156106D01*
X168585Y155999D01*
X168618Y155891D01*
X168648Y155781D01*
X168673Y155671D01*
X168695Y155560D01*
X168712Y155448D01*
X168726Y155335D01*
X168736Y155222D01*
X168742Y155109D01*
X168744Y154996D01*
X168742Y154883D01*
X168736Y154770D01*
X168726Y154657D01*
X168712Y154544D01*
X168695Y154432D01*
X168673Y154321D01*
X168648Y154211D01*
X168618Y154101D01*
X168585Y153993D01*
X168548Y153886D01*
X168508Y153780D01*
X168463Y153676D01*
X168415Y153573D01*
X168364Y153472D01*
X168309Y153373D01*
X168251Y153276D01*
X168189Y153181D01*
X168124Y153088D01*
X168056Y152998D01*
X167985Y152910D01*
X167910Y152824D01*
X167833Y152741D01*
X167753Y152661D01*
X167670Y152584D01*
X167584Y152509D01*
X167496Y152438D01*
X167406Y152370D01*
X167313Y152305D01*
X167218Y152243D01*
X167121Y152185D01*
X167022Y152130D01*
X166921Y152079D01*
X166818Y152031D01*
X166714Y151986D01*
X166608Y151946D01*
X166501Y151909D01*
X166393Y151876D01*
X166283Y151846D01*
X166173Y151821D01*
X166062Y151799D01*
X165950Y151782D01*
X165837Y151768D01*
X165724Y151758D01*
X165611Y151752D01*
X165498Y151750D01*
X165498Y151751D02*
X162253Y151751D01*
X166147Y151751D02*
X168744Y146558D01*
X173990Y146558D02*
X173990Y158242D01*
X177236Y158242D01*
X177349Y158240D01*
X177462Y158234D01*
X177575Y158224D01*
X177688Y158210D01*
X177800Y158193D01*
X177911Y158171D01*
X178021Y158146D01*
X178131Y158116D01*
X178239Y158083D01*
X178346Y158046D01*
X178452Y158006D01*
X178556Y157961D01*
X178659Y157913D01*
X178760Y157862D01*
X178859Y157807D01*
X178956Y157749D01*
X179051Y157687D01*
X179144Y157622D01*
X179234Y157554D01*
X179322Y157483D01*
X179408Y157408D01*
X179491Y157331D01*
X179571Y157251D01*
X179648Y157168D01*
X179723Y157082D01*
X179794Y156994D01*
X179862Y156904D01*
X179927Y156811D01*
X179989Y156716D01*
X180047Y156619D01*
X180102Y156520D01*
X180153Y156419D01*
X180201Y156316D01*
X180246Y156212D01*
X180286Y156106D01*
X180323Y155999D01*
X180356Y155891D01*
X180386Y155781D01*
X180411Y155671D01*
X180433Y155560D01*
X180450Y155448D01*
X180464Y155335D01*
X180474Y155222D01*
X180480Y155109D01*
X180482Y154996D01*
X180481Y154996D02*
X180481Y149804D01*
X180482Y149804D02*
X180480Y149691D01*
X180474Y149578D01*
X180464Y149465D01*
X180450Y149352D01*
X180433Y149240D01*
X180411Y149129D01*
X180386Y149019D01*
X180356Y148909D01*
X180323Y148801D01*
X180286Y148694D01*
X180246Y148588D01*
X180201Y148484D01*
X180153Y148381D01*
X180102Y148280D01*
X180047Y148181D01*
X179989Y148084D01*
X179927Y147989D01*
X179862Y147896D01*
X179794Y147806D01*
X179723Y147718D01*
X179648Y147632D01*
X179571Y147549D01*
X179491Y147469D01*
X179408Y147392D01*
X179322Y147317D01*
X179234Y147246D01*
X179144Y147178D01*
X179051Y147113D01*
X178956Y147051D01*
X178859Y146993D01*
X178760Y146938D01*
X178659Y146887D01*
X178556Y146839D01*
X178452Y146794D01*
X178346Y146754D01*
X178239Y146717D01*
X178131Y146684D01*
X178021Y146654D01*
X177911Y146629D01*
X177800Y146607D01*
X177688Y146590D01*
X177575Y146576D01*
X177462Y146566D01*
X177349Y146560D01*
X177236Y146558D01*
X173990Y146558D01*
X186182Y149804D02*
X186182Y158242D01*
X186182Y149804D02*
X186184Y149691D01*
X186190Y149578D01*
X186200Y149465D01*
X186214Y149352D01*
X186231Y149240D01*
X186253Y149129D01*
X186278Y149019D01*
X186308Y148909D01*
X186341Y148801D01*
X186378Y148694D01*
X186418Y148588D01*
X186463Y148484D01*
X186511Y148381D01*
X186562Y148280D01*
X186617Y148181D01*
X186675Y148084D01*
X186737Y147989D01*
X186802Y147896D01*
X186870Y147806D01*
X186941Y147718D01*
X187016Y147632D01*
X187093Y147549D01*
X187173Y147469D01*
X187256Y147392D01*
X187342Y147317D01*
X187430Y147246D01*
X187520Y147178D01*
X187613Y147113D01*
X187708Y147051D01*
X187805Y146993D01*
X187904Y146938D01*
X188005Y146887D01*
X188108Y146839D01*
X188212Y146794D01*
X188318Y146754D01*
X188425Y146717D01*
X188533Y146684D01*
X188643Y146654D01*
X188753Y146629D01*
X188864Y146607D01*
X188976Y146590D01*
X189089Y146576D01*
X189202Y146566D01*
X189315Y146560D01*
X189428Y146558D01*
X189541Y146560D01*
X189654Y146566D01*
X189767Y146576D01*
X189880Y146590D01*
X189992Y146607D01*
X190103Y146629D01*
X190213Y146654D01*
X190323Y146684D01*
X190431Y146717D01*
X190538Y146754D01*
X190644Y146794D01*
X190748Y146839D01*
X190851Y146887D01*
X190952Y146938D01*
X191051Y146993D01*
X191148Y147051D01*
X191243Y147113D01*
X191336Y147178D01*
X191426Y147246D01*
X191514Y147317D01*
X191600Y147392D01*
X191683Y147469D01*
X191763Y147549D01*
X191840Y147632D01*
X191915Y147718D01*
X191986Y147806D01*
X192054Y147896D01*
X192119Y147989D01*
X192181Y148084D01*
X192239Y148181D01*
X192294Y148280D01*
X192345Y148381D01*
X192393Y148484D01*
X192438Y148588D01*
X192478Y148694D01*
X192515Y148801D01*
X192548Y148909D01*
X192578Y149019D01*
X192603Y149129D01*
X192625Y149240D01*
X192642Y149352D01*
X192656Y149465D01*
X192666Y149578D01*
X192672Y149691D01*
X192674Y149804D01*
X192673Y149804D02*
X192673Y158242D01*
X198953Y158242D02*
X198953Y146558D01*
X200251Y146558D02*
X197654Y146558D01*
X197654Y158242D02*
X200251Y158242D01*
X205232Y158242D02*
X205232Y146558D01*
X211723Y146558D02*
X205232Y158242D01*
X211723Y158242D02*
X211723Y146558D01*
X217043Y149804D02*
X217043Y154996D01*
X217045Y155109D01*
X217051Y155222D01*
X217061Y155335D01*
X217075Y155448D01*
X217092Y155560D01*
X217114Y155671D01*
X217139Y155781D01*
X217169Y155891D01*
X217202Y155999D01*
X217239Y156106D01*
X217279Y156212D01*
X217324Y156316D01*
X217372Y156419D01*
X217423Y156520D01*
X217478Y156619D01*
X217536Y156716D01*
X217598Y156811D01*
X217663Y156904D01*
X217731Y156994D01*
X217802Y157082D01*
X217877Y157168D01*
X217954Y157251D01*
X218034Y157331D01*
X218117Y157408D01*
X218203Y157483D01*
X218291Y157554D01*
X218381Y157622D01*
X218474Y157687D01*
X218569Y157749D01*
X218666Y157807D01*
X218765Y157862D01*
X218866Y157913D01*
X218969Y157961D01*
X219073Y158006D01*
X219179Y158046D01*
X219286Y158083D01*
X219394Y158116D01*
X219504Y158146D01*
X219614Y158171D01*
X219725Y158193D01*
X219837Y158210D01*
X219950Y158224D01*
X220063Y158234D01*
X220176Y158240D01*
X220289Y158242D01*
X220402Y158240D01*
X220515Y158234D01*
X220628Y158224D01*
X220741Y158210D01*
X220853Y158193D01*
X220964Y158171D01*
X221074Y158146D01*
X221184Y158116D01*
X221292Y158083D01*
X221399Y158046D01*
X221505Y158006D01*
X221609Y157961D01*
X221712Y157913D01*
X221813Y157862D01*
X221912Y157807D01*
X222009Y157749D01*
X222104Y157687D01*
X222197Y157622D01*
X222287Y157554D01*
X222375Y157483D01*
X222461Y157408D01*
X222544Y157331D01*
X222624Y157251D01*
X222701Y157168D01*
X222776Y157082D01*
X222847Y156994D01*
X222915Y156904D01*
X222980Y156811D01*
X223042Y156716D01*
X223100Y156619D01*
X223155Y156520D01*
X223206Y156419D01*
X223254Y156316D01*
X223299Y156212D01*
X223339Y156106D01*
X223376Y155999D01*
X223409Y155891D01*
X223439Y155781D01*
X223464Y155671D01*
X223486Y155560D01*
X223503Y155448D01*
X223517Y155335D01*
X223527Y155222D01*
X223533Y155109D01*
X223535Y154996D01*
X223534Y154996D02*
X223534Y149804D01*
X223535Y149804D02*
X223533Y149691D01*
X223527Y149578D01*
X223517Y149465D01*
X223503Y149352D01*
X223486Y149240D01*
X223464Y149129D01*
X223439Y149019D01*
X223409Y148909D01*
X223376Y148801D01*
X223339Y148694D01*
X223299Y148588D01*
X223254Y148484D01*
X223206Y148381D01*
X223155Y148280D01*
X223100Y148181D01*
X223042Y148084D01*
X222980Y147989D01*
X222915Y147896D01*
X222847Y147806D01*
X222776Y147718D01*
X222701Y147632D01*
X222624Y147549D01*
X222544Y147469D01*
X222461Y147392D01*
X222375Y147317D01*
X222287Y147246D01*
X222197Y147178D01*
X222104Y147113D01*
X222009Y147051D01*
X221912Y146993D01*
X221813Y146938D01*
X221712Y146887D01*
X221609Y146839D01*
X221505Y146794D01*
X221399Y146754D01*
X221292Y146717D01*
X221184Y146684D01*
X221074Y146654D01*
X220964Y146629D01*
X220853Y146607D01*
X220741Y146590D01*
X220628Y146576D01*
X220515Y146566D01*
X220402Y146560D01*
X220289Y146558D01*
X220176Y146560D01*
X220063Y146566D01*
X219950Y146576D01*
X219837Y146590D01*
X219725Y146607D01*
X219614Y146629D01*
X219504Y146654D01*
X219394Y146684D01*
X219286Y146717D01*
X219179Y146754D01*
X219073Y146794D01*
X218969Y146839D01*
X218866Y146887D01*
X218765Y146938D01*
X218666Y146993D01*
X218569Y147051D01*
X218474Y147113D01*
X218381Y147178D01*
X218291Y147246D01*
X218203Y147317D01*
X218117Y147392D01*
X218034Y147469D01*
X217954Y147549D01*
X217877Y147632D01*
X217802Y147718D01*
X217731Y147806D01*
X217663Y147896D01*
X217598Y147989D01*
X217536Y148084D01*
X217478Y148181D01*
X217423Y148280D01*
X217372Y148381D01*
X217324Y148484D01*
X217279Y148588D01*
X217239Y148694D01*
X217202Y148801D01*
X217169Y148909D01*
X217139Y149019D01*
X217114Y149129D01*
X217092Y149240D01*
X217075Y149352D01*
X217061Y149465D01*
X217051Y149578D01*
X217045Y149691D01*
X217043Y149804D01*
X228586Y151102D02*
X236375Y151102D01*
X241977Y146558D02*
X241977Y158242D01*
X245223Y158242D01*
X245336Y158240D01*
X245449Y158234D01*
X245562Y158224D01*
X245675Y158210D01*
X245787Y158193D01*
X245898Y158171D01*
X246008Y158146D01*
X246118Y158116D01*
X246226Y158083D01*
X246333Y158046D01*
X246439Y158006D01*
X246543Y157961D01*
X246646Y157913D01*
X246747Y157862D01*
X246846Y157807D01*
X246943Y157749D01*
X247038Y157687D01*
X247131Y157622D01*
X247221Y157554D01*
X247309Y157483D01*
X247395Y157408D01*
X247478Y157331D01*
X247558Y157251D01*
X247635Y157168D01*
X247710Y157082D01*
X247781Y156994D01*
X247849Y156904D01*
X247914Y156811D01*
X247976Y156716D01*
X248034Y156619D01*
X248089Y156520D01*
X248140Y156419D01*
X248188Y156316D01*
X248233Y156212D01*
X248273Y156106D01*
X248310Y155999D01*
X248343Y155891D01*
X248373Y155781D01*
X248398Y155671D01*
X248420Y155560D01*
X248437Y155448D01*
X248451Y155335D01*
X248461Y155222D01*
X248467Y155109D01*
X248469Y154996D01*
X248467Y154883D01*
X248461Y154770D01*
X248451Y154657D01*
X248437Y154544D01*
X248420Y154432D01*
X248398Y154321D01*
X248373Y154211D01*
X248343Y154101D01*
X248310Y153993D01*
X248273Y153886D01*
X248233Y153780D01*
X248188Y153676D01*
X248140Y153573D01*
X248089Y153472D01*
X248034Y153373D01*
X247976Y153276D01*
X247914Y153181D01*
X247849Y153088D01*
X247781Y152998D01*
X247710Y152910D01*
X247635Y152824D01*
X247558Y152741D01*
X247478Y152661D01*
X247395Y152584D01*
X247309Y152509D01*
X247221Y152438D01*
X247131Y152370D01*
X247038Y152305D01*
X246943Y152243D01*
X246846Y152185D01*
X246747Y152130D01*
X246646Y152079D01*
X246543Y152031D01*
X246439Y151986D01*
X246333Y151946D01*
X246226Y151909D01*
X246118Y151876D01*
X246008Y151846D01*
X245898Y151821D01*
X245787Y151799D01*
X245675Y151782D01*
X245562Y151768D01*
X245449Y151758D01*
X245336Y151752D01*
X245223Y151750D01*
X245223Y151751D02*
X241977Y151751D01*
X253312Y146558D02*
X253312Y158242D01*
X256557Y158242D01*
X256670Y158240D01*
X256783Y158234D01*
X256896Y158224D01*
X257009Y158210D01*
X257121Y158193D01*
X257232Y158171D01*
X257342Y158146D01*
X257452Y158116D01*
X257560Y158083D01*
X257667Y158046D01*
X257773Y158006D01*
X257877Y157961D01*
X257980Y157913D01*
X258081Y157862D01*
X258180Y157807D01*
X258277Y157749D01*
X258372Y157687D01*
X258465Y157622D01*
X258555Y157554D01*
X258643Y157483D01*
X258729Y157408D01*
X258812Y157331D01*
X258892Y157251D01*
X258969Y157168D01*
X259044Y157082D01*
X259115Y156994D01*
X259183Y156904D01*
X259248Y156811D01*
X259310Y156716D01*
X259368Y156619D01*
X259423Y156520D01*
X259474Y156419D01*
X259522Y156316D01*
X259567Y156212D01*
X259607Y156106D01*
X259644Y155999D01*
X259677Y155891D01*
X259707Y155781D01*
X259732Y155671D01*
X259754Y155560D01*
X259771Y155448D01*
X259785Y155335D01*
X259795Y155222D01*
X259801Y155109D01*
X259803Y154996D01*
X259801Y154883D01*
X259795Y154770D01*
X259785Y154657D01*
X259771Y154544D01*
X259754Y154432D01*
X259732Y154321D01*
X259707Y154211D01*
X259677Y154101D01*
X259644Y153993D01*
X259607Y153886D01*
X259567Y153780D01*
X259522Y153676D01*
X259474Y153573D01*
X259423Y153472D01*
X259368Y153373D01*
X259310Y153276D01*
X259248Y153181D01*
X259183Y153088D01*
X259115Y152998D01*
X259044Y152910D01*
X258969Y152824D01*
X258892Y152741D01*
X258812Y152661D01*
X258729Y152584D01*
X258643Y152509D01*
X258555Y152438D01*
X258465Y152370D01*
X258372Y152305D01*
X258277Y152243D01*
X258180Y152185D01*
X258081Y152130D01*
X257980Y152079D01*
X257877Y152031D01*
X257773Y151986D01*
X257667Y151946D01*
X257560Y151909D01*
X257452Y151876D01*
X257342Y151846D01*
X257232Y151821D01*
X257121Y151799D01*
X257009Y151782D01*
X256896Y151768D01*
X256783Y151758D01*
X256670Y151752D01*
X256557Y151750D01*
X256557Y151751D02*
X253312Y151751D01*
X257206Y151751D02*
X259803Y146558D01*
X264668Y149804D02*
X264668Y154996D01*
X264667Y154996D02*
X264669Y155109D01*
X264675Y155222D01*
X264685Y155335D01*
X264699Y155448D01*
X264716Y155560D01*
X264738Y155671D01*
X264763Y155781D01*
X264793Y155891D01*
X264826Y155999D01*
X264863Y156106D01*
X264903Y156212D01*
X264948Y156316D01*
X264996Y156419D01*
X265047Y156520D01*
X265102Y156619D01*
X265160Y156716D01*
X265222Y156811D01*
X265287Y156904D01*
X265355Y156994D01*
X265426Y157082D01*
X265501Y157168D01*
X265578Y157251D01*
X265658Y157331D01*
X265741Y157408D01*
X265827Y157483D01*
X265915Y157554D01*
X266005Y157622D01*
X266098Y157687D01*
X266193Y157749D01*
X266290Y157807D01*
X266389Y157862D01*
X266490Y157913D01*
X266593Y157961D01*
X266697Y158006D01*
X266803Y158046D01*
X266910Y158083D01*
X267018Y158116D01*
X267128Y158146D01*
X267238Y158171D01*
X267349Y158193D01*
X267461Y158210D01*
X267574Y158224D01*
X267687Y158234D01*
X267800Y158240D01*
X267913Y158242D01*
X268026Y158240D01*
X268139Y158234D01*
X268252Y158224D01*
X268365Y158210D01*
X268477Y158193D01*
X268588Y158171D01*
X268698Y158146D01*
X268808Y158116D01*
X268916Y158083D01*
X269023Y158046D01*
X269129Y158006D01*
X269233Y157961D01*
X269336Y157913D01*
X269437Y157862D01*
X269536Y157807D01*
X269633Y157749D01*
X269728Y157687D01*
X269821Y157622D01*
X269911Y157554D01*
X269999Y157483D01*
X270085Y157408D01*
X270168Y157331D01*
X270248Y157251D01*
X270325Y157168D01*
X270400Y157082D01*
X270471Y156994D01*
X270539Y156904D01*
X270604Y156811D01*
X270666Y156716D01*
X270724Y156619D01*
X270779Y156520D01*
X270830Y156419D01*
X270878Y156316D01*
X270923Y156212D01*
X270963Y156106D01*
X271000Y155999D01*
X271033Y155891D01*
X271063Y155781D01*
X271088Y155671D01*
X271110Y155560D01*
X271127Y155448D01*
X271141Y155335D01*
X271151Y155222D01*
X271157Y155109D01*
X271159Y154996D01*
X271159Y149804D01*
X271157Y149691D01*
X271151Y149578D01*
X271141Y149465D01*
X271127Y149352D01*
X271110Y149240D01*
X271088Y149129D01*
X271063Y149019D01*
X271033Y148909D01*
X271000Y148801D01*
X270963Y148694D01*
X270923Y148588D01*
X270878Y148484D01*
X270830Y148381D01*
X270779Y148280D01*
X270724Y148181D01*
X270666Y148084D01*
X270604Y147989D01*
X270539Y147896D01*
X270471Y147806D01*
X270400Y147718D01*
X270325Y147632D01*
X270248Y147549D01*
X270168Y147469D01*
X270085Y147392D01*
X269999Y147317D01*
X269911Y147246D01*
X269821Y147178D01*
X269728Y147113D01*
X269633Y147051D01*
X269536Y146993D01*
X269437Y146938D01*
X269336Y146887D01*
X269233Y146839D01*
X269129Y146794D01*
X269023Y146754D01*
X268916Y146717D01*
X268808Y146684D01*
X268698Y146654D01*
X268588Y146629D01*
X268477Y146607D01*
X268365Y146590D01*
X268252Y146576D01*
X268139Y146566D01*
X268026Y146560D01*
X267913Y146558D01*
X267800Y146560D01*
X267687Y146566D01*
X267574Y146576D01*
X267461Y146590D01*
X267349Y146607D01*
X267238Y146629D01*
X267128Y146654D01*
X267018Y146684D01*
X266910Y146717D01*
X266803Y146754D01*
X266697Y146794D01*
X266593Y146839D01*
X266490Y146887D01*
X266389Y146938D01*
X266290Y146993D01*
X266193Y147051D01*
X266098Y147113D01*
X266005Y147178D01*
X265915Y147246D01*
X265827Y147317D01*
X265741Y147392D01*
X265658Y147469D01*
X265578Y147549D01*
X265501Y147632D01*
X265426Y147718D01*
X265355Y147806D01*
X265287Y147896D01*
X265222Y147989D01*
X265160Y148084D01*
X265102Y148181D01*
X265047Y148280D01*
X264996Y148381D01*
X264948Y148484D01*
X264903Y148588D01*
X264863Y148694D01*
X264826Y148801D01*
X264793Y148909D01*
X264763Y149019D01*
X264738Y149129D01*
X264716Y149240D01*
X264699Y149352D01*
X264685Y149465D01*
X264675Y149578D01*
X264669Y149691D01*
X264667Y149804D01*
X276211Y151102D02*
X284000Y151102D01*
X289546Y146558D02*
X289546Y158242D01*
X293440Y151751D01*
X297335Y158242D01*
X297335Y146558D01*
X303727Y146558D02*
X303727Y158242D01*
X302429Y146558D02*
X305026Y146558D01*
X305026Y158242D02*
X302429Y158242D01*
X310007Y158242D02*
X310007Y146558D01*
X316498Y146558D02*
X310007Y158242D01*
X316498Y158242D02*
X316498Y146558D01*
X322777Y146558D02*
X322777Y158242D01*
X321479Y146558D02*
X324076Y146558D01*
X324076Y158242D02*
X321479Y158242D01*
X328789Y151102D02*
X336578Y151102D01*
X341630Y146558D02*
X344875Y146558D01*
X344988Y146560D01*
X345101Y146566D01*
X345214Y146576D01*
X345327Y146590D01*
X345439Y146607D01*
X345550Y146629D01*
X345660Y146654D01*
X345770Y146684D01*
X345878Y146717D01*
X345985Y146754D01*
X346091Y146794D01*
X346195Y146839D01*
X346298Y146887D01*
X346399Y146938D01*
X346498Y146993D01*
X346595Y147051D01*
X346690Y147113D01*
X346783Y147178D01*
X346873Y147246D01*
X346961Y147317D01*
X347047Y147392D01*
X347130Y147469D01*
X347210Y147549D01*
X347287Y147632D01*
X347362Y147718D01*
X347433Y147806D01*
X347501Y147896D01*
X347566Y147989D01*
X347628Y148084D01*
X347686Y148181D01*
X347741Y148280D01*
X347792Y148381D01*
X347840Y148484D01*
X347885Y148588D01*
X347925Y148694D01*
X347962Y148801D01*
X347995Y148909D01*
X348025Y149019D01*
X348050Y149129D01*
X348072Y149240D01*
X348089Y149352D01*
X348103Y149465D01*
X348113Y149578D01*
X348119Y149691D01*
X348121Y149804D01*
X348119Y149917D01*
X348113Y150030D01*
X348103Y150143D01*
X348089Y150256D01*
X348072Y150368D01*
X348050Y150479D01*
X348025Y150589D01*
X347995Y150699D01*
X347962Y150807D01*
X347925Y150914D01*
X347885Y151020D01*
X347840Y151124D01*
X347792Y151227D01*
X347741Y151328D01*
X347686Y151427D01*
X347628Y151524D01*
X347566Y151619D01*
X347501Y151712D01*
X347433Y151802D01*
X347362Y151890D01*
X347287Y151976D01*
X347210Y152059D01*
X347130Y152139D01*
X347047Y152216D01*
X346961Y152291D01*
X346873Y152362D01*
X346783Y152430D01*
X346690Y152495D01*
X346595Y152557D01*
X346498Y152615D01*
X346399Y152670D01*
X346298Y152721D01*
X346195Y152769D01*
X346091Y152814D01*
X345985Y152854D01*
X345878Y152891D01*
X345770Y152924D01*
X345660Y152954D01*
X345550Y152979D01*
X345439Y153001D01*
X345327Y153018D01*
X345214Y153032D01*
X345101Y153042D01*
X344988Y153048D01*
X344875Y153050D01*
X345525Y158242D02*
X341630Y158242D01*
X345525Y158242D02*
X345626Y158240D01*
X345726Y158234D01*
X345826Y158224D01*
X345926Y158211D01*
X346025Y158193D01*
X346124Y158172D01*
X346221Y158147D01*
X346318Y158118D01*
X346413Y158085D01*
X346507Y158049D01*
X346599Y158009D01*
X346690Y157966D01*
X346779Y157919D01*
X346866Y157869D01*
X346952Y157815D01*
X347035Y157758D01*
X347115Y157698D01*
X347194Y157635D01*
X347270Y157568D01*
X347343Y157499D01*
X347413Y157427D01*
X347481Y157353D01*
X347546Y157276D01*
X347607Y157196D01*
X347666Y157114D01*
X347721Y157030D01*
X347773Y156944D01*
X347822Y156856D01*
X347867Y156766D01*
X347909Y156674D01*
X347947Y156581D01*
X347981Y156486D01*
X348012Y156391D01*
X348039Y156294D01*
X348062Y156196D01*
X348082Y156097D01*
X348097Y155997D01*
X348109Y155897D01*
X348117Y155797D01*
X348121Y155696D01*
X348121Y155596D01*
X348117Y155495D01*
X348109Y155395D01*
X348097Y155295D01*
X348082Y155195D01*
X348062Y155096D01*
X348039Y154998D01*
X348012Y154901D01*
X347981Y154806D01*
X347947Y154711D01*
X347909Y154618D01*
X347867Y154526D01*
X347822Y154436D01*
X347773Y154348D01*
X347721Y154262D01*
X347666Y154178D01*
X347607Y154096D01*
X347546Y154016D01*
X347481Y153939D01*
X347413Y153865D01*
X347343Y153793D01*
X347270Y153724D01*
X347194Y153657D01*
X347115Y153594D01*
X347035Y153534D01*
X346952Y153477D01*
X346866Y153423D01*
X346779Y153373D01*
X346690Y153326D01*
X346599Y153283D01*
X346507Y153243D01*
X346413Y153207D01*
X346318Y153174D01*
X346221Y153145D01*
X346124Y153120D01*
X346025Y153099D01*
X345926Y153081D01*
X345826Y153068D01*
X345726Y153058D01*
X345626Y153052D01*
X345525Y153050D01*
X345525Y153049D02*
X342928Y153049D01*
X352411Y158242D02*
X356305Y146558D01*
X360200Y158242D01*
X364490Y146558D02*
X367735Y146558D01*
X367848Y146560D01*
X367961Y146566D01*
X368074Y146576D01*
X368187Y146590D01*
X368299Y146607D01*
X368410Y146629D01*
X368520Y146654D01*
X368630Y146684D01*
X368738Y146717D01*
X368845Y146754D01*
X368951Y146794D01*
X369055Y146839D01*
X369158Y146887D01*
X369259Y146938D01*
X369358Y146993D01*
X369455Y147051D01*
X369550Y147113D01*
X369643Y147178D01*
X369733Y147246D01*
X369821Y147317D01*
X369907Y147392D01*
X369990Y147469D01*
X370070Y147549D01*
X370147Y147632D01*
X370222Y147718D01*
X370293Y147806D01*
X370361Y147896D01*
X370426Y147989D01*
X370488Y148084D01*
X370546Y148181D01*
X370601Y148280D01*
X370652Y148381D01*
X370700Y148484D01*
X370745Y148588D01*
X370785Y148694D01*
X370822Y148801D01*
X370855Y148909D01*
X370885Y149019D01*
X370910Y149129D01*
X370932Y149240D01*
X370949Y149352D01*
X370963Y149465D01*
X370973Y149578D01*
X370979Y149691D01*
X370981Y149804D01*
X370979Y149917D01*
X370973Y150030D01*
X370963Y150143D01*
X370949Y150256D01*
X370932Y150368D01*
X370910Y150479D01*
X370885Y150589D01*
X370855Y150699D01*
X370822Y150807D01*
X370785Y150914D01*
X370745Y151020D01*
X370700Y151124D01*
X370652Y151227D01*
X370601Y151328D01*
X370546Y151427D01*
X370488Y151524D01*
X370426Y151619D01*
X370361Y151712D01*
X370293Y151802D01*
X370222Y151890D01*
X370147Y151976D01*
X370070Y152059D01*
X369990Y152139D01*
X369907Y152216D01*
X369821Y152291D01*
X369733Y152362D01*
X369643Y152430D01*
X369550Y152495D01*
X369455Y152557D01*
X369358Y152615D01*
X369259Y152670D01*
X369158Y152721D01*
X369055Y152769D01*
X368951Y152814D01*
X368845Y152854D01*
X368738Y152891D01*
X368630Y152924D01*
X368520Y152954D01*
X368410Y152979D01*
X368299Y153001D01*
X368187Y153018D01*
X368074Y153032D01*
X367961Y153042D01*
X367848Y153048D01*
X367735Y153050D01*
X368385Y158242D02*
X364490Y158242D01*
X368385Y158242D02*
X368486Y158240D01*
X368586Y158234D01*
X368686Y158224D01*
X368786Y158211D01*
X368885Y158193D01*
X368984Y158172D01*
X369081Y158147D01*
X369178Y158118D01*
X369273Y158085D01*
X369367Y158049D01*
X369459Y158009D01*
X369550Y157966D01*
X369639Y157919D01*
X369726Y157869D01*
X369812Y157815D01*
X369895Y157758D01*
X369975Y157698D01*
X370054Y157635D01*
X370130Y157568D01*
X370203Y157499D01*
X370273Y157427D01*
X370341Y157353D01*
X370406Y157276D01*
X370467Y157196D01*
X370526Y157114D01*
X370581Y157030D01*
X370633Y156944D01*
X370682Y156856D01*
X370727Y156766D01*
X370769Y156674D01*
X370807Y156581D01*
X370841Y156486D01*
X370872Y156391D01*
X370899Y156294D01*
X370922Y156196D01*
X370942Y156097D01*
X370957Y155997D01*
X370969Y155897D01*
X370977Y155797D01*
X370981Y155696D01*
X370981Y155596D01*
X370977Y155495D01*
X370969Y155395D01*
X370957Y155295D01*
X370942Y155195D01*
X370922Y155096D01*
X370899Y154998D01*
X370872Y154901D01*
X370841Y154806D01*
X370807Y154711D01*
X370769Y154618D01*
X370727Y154526D01*
X370682Y154436D01*
X370633Y154348D01*
X370581Y154262D01*
X370526Y154178D01*
X370467Y154096D01*
X370406Y154016D01*
X370341Y153939D01*
X370273Y153865D01*
X370203Y153793D01*
X370130Y153724D01*
X370054Y153657D01*
X369975Y153594D01*
X369895Y153534D01*
X369812Y153477D01*
X369726Y153423D01*
X369639Y153373D01*
X369550Y153326D01*
X369459Y153283D01*
X369367Y153243D01*
X369273Y153207D01*
X369178Y153174D01*
X369081Y153145D01*
X368984Y153120D01*
X368885Y153099D01*
X368786Y153081D01*
X368686Y153068D01*
X368586Y153058D01*
X368486Y153052D01*
X368385Y153050D01*
X368385Y153049D02*
X365788Y153049D01*
D11*
X35750Y189500D02*
X31750Y195500D01*
X35750Y189500D02*
X27750Y189500D01*
X31750Y195500D01*
D10*
X42131Y189468D02*
X49497Y189468D01*
X42131Y189468D02*
X42131Y191514D01*
X42133Y191603D01*
X42139Y191692D01*
X42149Y191781D01*
X42162Y191869D01*
X42179Y191957D01*
X42201Y192044D01*
X42226Y192129D01*
X42254Y192214D01*
X42287Y192297D01*
X42323Y192379D01*
X42362Y192459D01*
X42405Y192537D01*
X42451Y192613D01*
X42501Y192688D01*
X42554Y192760D01*
X42610Y192829D01*
X42669Y192896D01*
X42730Y192961D01*
X42795Y193022D01*
X42862Y193081D01*
X42931Y193137D01*
X43003Y193190D01*
X43078Y193240D01*
X43154Y193286D01*
X43232Y193329D01*
X43312Y193368D01*
X43394Y193404D01*
X43477Y193437D01*
X43562Y193465D01*
X43647Y193490D01*
X43734Y193512D01*
X43822Y193529D01*
X43910Y193542D01*
X43999Y193552D01*
X44088Y193558D01*
X44177Y193560D01*
X47451Y193560D01*
X47540Y193558D01*
X47629Y193552D01*
X47718Y193542D01*
X47806Y193529D01*
X47894Y193512D01*
X47981Y193490D01*
X48066Y193465D01*
X48151Y193437D01*
X48234Y193404D01*
X48316Y193368D01*
X48396Y193329D01*
X48474Y193286D01*
X48550Y193240D01*
X48625Y193190D01*
X48697Y193137D01*
X48766Y193081D01*
X48833Y193022D01*
X48898Y192961D01*
X48959Y192896D01*
X49018Y192829D01*
X49074Y192760D01*
X49127Y192688D01*
X49177Y192613D01*
X49223Y192537D01*
X49266Y192459D01*
X49305Y192379D01*
X49341Y192297D01*
X49374Y192214D01*
X49402Y192129D01*
X49427Y192044D01*
X49449Y191957D01*
X49466Y191869D01*
X49479Y191781D01*
X49489Y191692D01*
X49495Y191603D01*
X49497Y191514D01*
X49497Y189468D01*
X43768Y197027D02*
X42131Y199073D01*
X49497Y199073D01*
X49497Y197027D02*
X49497Y201119D01*
D11*
X582930Y227330D02*
X585470Y227330D01*
X585470Y242570D01*
X582930Y242570D01*
X521970Y242570D02*
X519430Y242570D01*
X519430Y227330D01*
X521970Y227330D01*
D17*
X539750Y262890D02*
X539750Y265430D01*
X539750Y262890D02*
X565150Y262890D01*
X565150Y265430D01*
X563880Y207010D02*
X539750Y207010D01*
X563880Y207010D02*
X563880Y204470D01*
X539750Y204470D02*
X539750Y207010D01*
D11*
X539750Y204470D02*
X530860Y204470D01*
X565150Y265430D02*
X574040Y265430D01*
X565150Y265430D02*
X539750Y265430D01*
X530860Y265430D01*
X539750Y204470D02*
X563880Y204470D01*
X574040Y204470D01*
X582930Y224790D02*
X582930Y227330D01*
X582930Y242570D02*
X582930Y245110D01*
X521970Y227330D02*
X521970Y224790D01*
X521970Y242570D02*
X521970Y245110D01*
X534670Y234950D02*
X534675Y235386D01*
X534691Y235822D01*
X534718Y236258D01*
X534756Y236693D01*
X534804Y237126D01*
X534862Y237559D01*
X534932Y237990D01*
X535012Y238419D01*
X535102Y238846D01*
X535203Y239270D01*
X535314Y239692D01*
X535436Y240111D01*
X535567Y240527D01*
X535709Y240940D01*
X535861Y241349D01*
X536023Y241754D01*
X536195Y242155D01*
X536377Y242552D01*
X536568Y242944D01*
X536769Y243331D01*
X536980Y243714D01*
X537200Y244091D01*
X537429Y244462D01*
X537666Y244828D01*
X537913Y245188D01*
X538169Y245542D01*
X538433Y245889D01*
X538706Y246230D01*
X538987Y246563D01*
X539276Y246890D01*
X539573Y247210D01*
X539878Y247522D01*
X540190Y247827D01*
X540510Y248124D01*
X540837Y248413D01*
X541170Y248694D01*
X541511Y248967D01*
X541858Y249231D01*
X542212Y249487D01*
X542572Y249734D01*
X542938Y249971D01*
X543309Y250200D01*
X543686Y250420D01*
X544069Y250631D01*
X544456Y250832D01*
X544848Y251023D01*
X545245Y251205D01*
X545646Y251377D01*
X546051Y251539D01*
X546460Y251691D01*
X546873Y251833D01*
X547289Y251964D01*
X547708Y252086D01*
X548130Y252197D01*
X548554Y252298D01*
X548981Y252388D01*
X549410Y252468D01*
X549841Y252538D01*
X550274Y252596D01*
X550707Y252644D01*
X551142Y252682D01*
X551578Y252709D01*
X552014Y252725D01*
X552450Y252730D01*
X552886Y252725D01*
X553322Y252709D01*
X553758Y252682D01*
X554193Y252644D01*
X554626Y252596D01*
X555059Y252538D01*
X555490Y252468D01*
X555919Y252388D01*
X556346Y252298D01*
X556770Y252197D01*
X557192Y252086D01*
X557611Y251964D01*
X558027Y251833D01*
X558440Y251691D01*
X558849Y251539D01*
X559254Y251377D01*
X559655Y251205D01*
X560052Y251023D01*
X560444Y250832D01*
X560831Y250631D01*
X561214Y250420D01*
X561591Y250200D01*
X561962Y249971D01*
X562328Y249734D01*
X562688Y249487D01*
X563042Y249231D01*
X563389Y248967D01*
X563730Y248694D01*
X564063Y248413D01*
X564390Y248124D01*
X564710Y247827D01*
X565022Y247522D01*
X565327Y247210D01*
X565624Y246890D01*
X565913Y246563D01*
X566194Y246230D01*
X566467Y245889D01*
X566731Y245542D01*
X566987Y245188D01*
X567234Y244828D01*
X567471Y244462D01*
X567700Y244091D01*
X567920Y243714D01*
X568131Y243331D01*
X568332Y242944D01*
X568523Y242552D01*
X568705Y242155D01*
X568877Y241754D01*
X569039Y241349D01*
X569191Y240940D01*
X569333Y240527D01*
X569464Y240111D01*
X569586Y239692D01*
X569697Y239270D01*
X569798Y238846D01*
X569888Y238419D01*
X569968Y237990D01*
X570038Y237559D01*
X570096Y237126D01*
X570144Y236693D01*
X570182Y236258D01*
X570209Y235822D01*
X570225Y235386D01*
X570230Y234950D01*
X570225Y234514D01*
X570209Y234078D01*
X570182Y233642D01*
X570144Y233207D01*
X570096Y232774D01*
X570038Y232341D01*
X569968Y231910D01*
X569888Y231481D01*
X569798Y231054D01*
X569697Y230630D01*
X569586Y230208D01*
X569464Y229789D01*
X569333Y229373D01*
X569191Y228960D01*
X569039Y228551D01*
X568877Y228146D01*
X568705Y227745D01*
X568523Y227348D01*
X568332Y226956D01*
X568131Y226569D01*
X567920Y226186D01*
X567700Y225809D01*
X567471Y225438D01*
X567234Y225072D01*
X566987Y224712D01*
X566731Y224358D01*
X566467Y224011D01*
X566194Y223670D01*
X565913Y223337D01*
X565624Y223010D01*
X565327Y222690D01*
X565022Y222378D01*
X564710Y222073D01*
X564390Y221776D01*
X564063Y221487D01*
X563730Y221206D01*
X563389Y220933D01*
X563042Y220669D01*
X562688Y220413D01*
X562328Y220166D01*
X561962Y219929D01*
X561591Y219700D01*
X561214Y219480D01*
X560831Y219269D01*
X560444Y219068D01*
X560052Y218877D01*
X559655Y218695D01*
X559254Y218523D01*
X558849Y218361D01*
X558440Y218209D01*
X558027Y218067D01*
X557611Y217936D01*
X557192Y217814D01*
X556770Y217703D01*
X556346Y217602D01*
X555919Y217512D01*
X555490Y217432D01*
X555059Y217362D01*
X554626Y217304D01*
X554193Y217256D01*
X553758Y217218D01*
X553322Y217191D01*
X552886Y217175D01*
X552450Y217170D01*
X552014Y217175D01*
X551578Y217191D01*
X551142Y217218D01*
X550707Y217256D01*
X550274Y217304D01*
X549841Y217362D01*
X549410Y217432D01*
X548981Y217512D01*
X548554Y217602D01*
X548130Y217703D01*
X547708Y217814D01*
X547289Y217936D01*
X546873Y218067D01*
X546460Y218209D01*
X546051Y218361D01*
X545646Y218523D01*
X545245Y218695D01*
X544848Y218877D01*
X544456Y219068D01*
X544069Y219269D01*
X543686Y219480D01*
X543309Y219700D01*
X542938Y219929D01*
X542572Y220166D01*
X542212Y220413D01*
X541858Y220669D01*
X541511Y220933D01*
X541170Y221206D01*
X540837Y221487D01*
X540510Y221776D01*
X540190Y222073D01*
X539878Y222378D01*
X539573Y222690D01*
X539276Y223010D01*
X538987Y223337D01*
X538706Y223670D01*
X538433Y224011D01*
X538169Y224358D01*
X537913Y224712D01*
X537666Y225072D01*
X537429Y225438D01*
X537200Y225809D01*
X536980Y226186D01*
X536769Y226569D01*
X536568Y226956D01*
X536377Y227348D01*
X536195Y227745D01*
X536023Y228146D01*
X535861Y228551D01*
X535709Y228960D01*
X535567Y229373D01*
X535436Y229789D01*
X535314Y230208D01*
X535203Y230630D01*
X535102Y231054D01*
X535012Y231481D01*
X534932Y231910D01*
X534862Y232341D01*
X534804Y232774D01*
X534756Y233207D01*
X534718Y233642D01*
X534691Y234078D01*
X534675Y234514D01*
X534670Y234950D01*
X549910Y234950D02*
X549912Y235050D01*
X549918Y235151D01*
X549928Y235250D01*
X549942Y235350D01*
X549959Y235449D01*
X549981Y235547D01*
X550007Y235644D01*
X550036Y235740D01*
X550069Y235834D01*
X550106Y235928D01*
X550146Y236020D01*
X550190Y236110D01*
X550238Y236198D01*
X550289Y236285D01*
X550343Y236369D01*
X550401Y236451D01*
X550462Y236531D01*
X550526Y236608D01*
X550593Y236683D01*
X550663Y236755D01*
X550736Y236824D01*
X550811Y236890D01*
X550889Y236954D01*
X550969Y237014D01*
X551052Y237071D01*
X551137Y237124D01*
X551224Y237174D01*
X551313Y237221D01*
X551403Y237264D01*
X551495Y237304D01*
X551589Y237340D01*
X551684Y237372D01*
X551780Y237400D01*
X551878Y237425D01*
X551976Y237445D01*
X552075Y237462D01*
X552175Y237475D01*
X552274Y237484D01*
X552375Y237489D01*
X552475Y237490D01*
X552575Y237487D01*
X552676Y237480D01*
X552775Y237469D01*
X552875Y237454D01*
X552973Y237436D01*
X553071Y237413D01*
X553168Y237386D01*
X553263Y237356D01*
X553358Y237322D01*
X553451Y237284D01*
X553542Y237243D01*
X553632Y237198D01*
X553720Y237150D01*
X553806Y237098D01*
X553890Y237043D01*
X553971Y236984D01*
X554050Y236922D01*
X554127Y236858D01*
X554201Y236790D01*
X554272Y236719D01*
X554341Y236646D01*
X554406Y236570D01*
X554469Y236491D01*
X554528Y236410D01*
X554584Y236327D01*
X554637Y236242D01*
X554686Y236154D01*
X554732Y236065D01*
X554774Y235974D01*
X554813Y235881D01*
X554848Y235787D01*
X554879Y235692D01*
X554907Y235595D01*
X554930Y235498D01*
X554950Y235399D01*
X554966Y235300D01*
X554978Y235201D01*
X554986Y235100D01*
X554990Y235000D01*
X554990Y234900D01*
X554986Y234800D01*
X554978Y234699D01*
X554966Y234600D01*
X554950Y234501D01*
X554930Y234402D01*
X554907Y234305D01*
X554879Y234208D01*
X554848Y234113D01*
X554813Y234019D01*
X554774Y233926D01*
X554732Y233835D01*
X554686Y233746D01*
X554637Y233658D01*
X554584Y233573D01*
X554528Y233490D01*
X554469Y233409D01*
X554406Y233330D01*
X554341Y233254D01*
X554272Y233181D01*
X554201Y233110D01*
X554127Y233042D01*
X554050Y232978D01*
X553971Y232916D01*
X553890Y232857D01*
X553806Y232802D01*
X553720Y232750D01*
X553632Y232702D01*
X553542Y232657D01*
X553451Y232616D01*
X553358Y232578D01*
X553263Y232544D01*
X553168Y232514D01*
X553071Y232487D01*
X552973Y232464D01*
X552875Y232446D01*
X552775Y232431D01*
X552676Y232420D01*
X552575Y232413D01*
X552475Y232410D01*
X552375Y232411D01*
X552274Y232416D01*
X552175Y232425D01*
X552075Y232438D01*
X551976Y232455D01*
X551878Y232475D01*
X551780Y232500D01*
X551684Y232528D01*
X551589Y232560D01*
X551495Y232596D01*
X551403Y232636D01*
X551313Y232679D01*
X551224Y232726D01*
X551137Y232776D01*
X551052Y232829D01*
X550969Y232886D01*
X550889Y232946D01*
X550811Y233010D01*
X550736Y233076D01*
X550663Y233145D01*
X550593Y233217D01*
X550526Y233292D01*
X550462Y233369D01*
X550401Y233449D01*
X550343Y233531D01*
X550289Y233615D01*
X550238Y233702D01*
X550190Y233790D01*
X550146Y233880D01*
X550106Y233972D01*
X550069Y234066D01*
X550036Y234160D01*
X550007Y234256D01*
X549981Y234353D01*
X549959Y234451D01*
X549942Y234550D01*
X549928Y234650D01*
X549918Y234749D01*
X549912Y234850D01*
X549910Y234950D01*
D10*
X507393Y235698D02*
X507391Y235620D01*
X507386Y235542D01*
X507376Y235465D01*
X507363Y235388D01*
X507347Y235312D01*
X507327Y235237D01*
X507303Y235163D01*
X507276Y235090D01*
X507245Y235018D01*
X507211Y234948D01*
X507174Y234880D01*
X507133Y234813D01*
X507089Y234748D01*
X507043Y234686D01*
X506993Y234626D01*
X506941Y234568D01*
X506886Y234513D01*
X506828Y234461D01*
X506768Y234411D01*
X506706Y234365D01*
X506641Y234321D01*
X506575Y234280D01*
X506506Y234243D01*
X506436Y234209D01*
X506364Y234178D01*
X506291Y234151D01*
X506217Y234127D01*
X506142Y234107D01*
X506066Y234091D01*
X505989Y234078D01*
X505912Y234068D01*
X505834Y234063D01*
X505756Y234061D01*
X505642Y234063D01*
X505529Y234068D01*
X505415Y234078D01*
X505302Y234091D01*
X505190Y234108D01*
X505078Y234128D01*
X504967Y234152D01*
X504856Y234180D01*
X504747Y234211D01*
X504639Y234246D01*
X504532Y234285D01*
X504426Y234327D01*
X504322Y234372D01*
X504219Y234421D01*
X504118Y234474D01*
X504019Y234529D01*
X503921Y234588D01*
X503826Y234650D01*
X503733Y234715D01*
X503641Y234783D01*
X503553Y234854D01*
X503466Y234928D01*
X503382Y235005D01*
X503301Y235084D01*
X503505Y239790D02*
X503507Y239868D01*
X503512Y239946D01*
X503522Y240023D01*
X503535Y240100D01*
X503551Y240176D01*
X503571Y240251D01*
X503595Y240325D01*
X503622Y240398D01*
X503653Y240470D01*
X503687Y240540D01*
X503724Y240609D01*
X503765Y240675D01*
X503809Y240740D01*
X503855Y240802D01*
X503905Y240862D01*
X503957Y240920D01*
X504012Y240975D01*
X504070Y241027D01*
X504130Y241077D01*
X504192Y241123D01*
X504257Y241167D01*
X504324Y241208D01*
X504392Y241245D01*
X504462Y241279D01*
X504534Y241310D01*
X504607Y241337D01*
X504681Y241361D01*
X504756Y241381D01*
X504832Y241397D01*
X504909Y241410D01*
X504986Y241420D01*
X505064Y241425D01*
X505142Y241427D01*
X505252Y241425D01*
X505361Y241419D01*
X505471Y241409D01*
X505579Y241396D01*
X505688Y241378D01*
X505795Y241357D01*
X505902Y241331D01*
X506008Y241302D01*
X506113Y241270D01*
X506216Y241233D01*
X506318Y241193D01*
X506419Y241149D01*
X506518Y241101D01*
X506615Y241051D01*
X506710Y240996D01*
X506803Y240938D01*
X506894Y240877D01*
X506983Y240813D01*
X504324Y238357D02*
X504257Y238399D01*
X504192Y238443D01*
X504130Y238491D01*
X504070Y238541D01*
X504012Y238594D01*
X503957Y238650D01*
X503905Y238709D01*
X503855Y238769D01*
X503808Y238833D01*
X503765Y238898D01*
X503724Y238965D01*
X503687Y239034D01*
X503653Y239105D01*
X503622Y239177D01*
X503595Y239251D01*
X503571Y239325D01*
X503551Y239401D01*
X503535Y239478D01*
X503522Y239555D01*
X503512Y239633D01*
X503507Y239712D01*
X503505Y239790D01*
X506575Y237130D02*
X506641Y237088D01*
X506706Y237044D01*
X506768Y236997D01*
X506828Y236946D01*
X506886Y236893D01*
X506941Y236837D01*
X506994Y236779D01*
X507043Y236718D01*
X507090Y236655D01*
X507133Y236590D01*
X507174Y236523D01*
X507211Y236454D01*
X507245Y236383D01*
X507276Y236311D01*
X507303Y236237D01*
X507327Y236162D01*
X507347Y236087D01*
X507363Y236010D01*
X507376Y235933D01*
X507386Y235855D01*
X507391Y235776D01*
X507393Y235698D01*
X506575Y237130D02*
X504324Y238358D01*
X510372Y239790D02*
X512418Y241427D01*
X512418Y234061D01*
X510372Y234061D02*
X514465Y234061D01*
M02*
