M48
;GenerationSoftware,Autodesk,EAGLE,9.4.2*%
;CreationDate,2019-08-09T09:54:57Z*%
FMAT,2
ICI,OFF
METRIC,TZ,000.000
T7C0.350
T6C0.889
T5C0.900
T4C1.000
T3C1.016
T2C1.397
T1C2.540
%
G90
M71
T1
X74930Y13970
X2930Y13970
T2
X95250Y7937
X80010Y7937
X80010Y21273
X95250Y21273
T3
X58496Y25756
X6985Y10160
X51994Y21234
X51994Y25756
X58496Y21234
X6985Y20320
X6985Y17780
X6985Y15240
X6985Y12700
X6985Y7620
T4
X47625Y15240
X10160Y20320
X10160Y15240
X10160Y12700
X10160Y10160
X10160Y7620
X21590Y19050
X24130Y19050
X40640Y6350
X38100Y6350
X35560Y6350
X25400Y21590
X33020Y6350
X27940Y6350
X22860Y6350
X20320Y6350
X15240Y6350
X12700Y6350
X17780Y6350
X45085Y17780
X47625Y10160
X47625Y12700
X25400Y6350
X47625Y17780
X45085Y15240
X45085Y12700
X45085Y10160
X30480Y6350
X10160Y17780
X40640Y21590
X38100Y21590
X35560Y21590
X33020Y21590
X30480Y21590
X27940Y21590
X22860Y21590
X20320Y21590
X17780Y21590
X15240Y21590
X12700Y21590
X40640Y19050
X40640Y16510
X40640Y13970
T5
X90805Y6985
X84455Y6985
X84455Y1905
X90805Y1905
T6
X85090Y24765
X97790Y12065
X90170Y24765
X97790Y17145
X97790Y14605
X87630Y24765
T7
X4445Y24765
X15240Y24765
X31750Y24130
X15240Y3175
X4445Y3175
X46355Y6350
X53340Y16510
X64135Y18415
X64135Y12065
X57785Y6350
X19685Y13335
X38100Y24130
X37465Y11430
X40640Y10160
X30480Y3175
X33020Y1905
X43180Y25400
X30480Y13335
X26035Y3175
M30